# 3ds Max Wavefront OBJ Exporter v0.97b - (c)2007 guruware
# File Created: 03.09.2020 23:54:02

#
# object OracDecor_DX119_2300_decorative_element
#

v  -1000.0001 -92.0000 3.3556
v  -1000.0001 -92.0000 0.0000
v  999.9999 -92.0000 0.0000
v  999.9999 -92.0000 3.3556
v  -1000.0001 -73.0000 0.0000
v  999.9999 -73.0000 0.0000
v  -1000.0001 -73.0000 1.0000
v  999.9999 -73.0000 1.0000
v  -1000.0001 -20.0000 1.0000
v  999.9999 -20.0000 1.0000
v  -1000.0001 -20.0000 0.0000
v  999.9999 -20.0000 0.0000
v  -1000.0001 -0.0000 0.0000
v  999.9999 -0.0000 0.0000
v  -1000.0001 -0.0000 3.8080
v  999.9999 -0.0000 3.8080
v  -1000.0001 -19.5600 10.8080
v  -1000.0001 -21.0600 10.8080
v  999.9999 -21.0600 10.8080
v  999.9999 -19.5600 10.8080
v  -1000.0001 -21.2123 10.0426
v  999.9999 -21.2123 10.0426
v  -1000.0001 -21.6458 9.3938
v  999.9999 -21.6458 9.3938
v  -1000.0001 -22.2946 8.9602
v  999.9999 -22.2946 8.9602
v  -1000.0001 -23.0600 8.8080
v  999.9999 -23.0600 8.8080
v  -1000.0001 -23.8254 8.9602
v  999.9999 -23.8254 8.9602
v  -1000.0001 -24.4742 9.3938
v  999.9999 -24.4742 9.3938
v  -1000.0001 -24.9078 10.0426
v  999.9999 -24.9078 10.0426
v  -1000.0001 -25.0600 10.8080
v  999.9999 -25.0600 10.8080
v  -1000.0001 -26.5600 10.8080
v  999.9999 -26.5600 10.8080
v  -1000.0001 -26.5600 12.8080
v  999.9999 -26.5600 12.8080
v  -1000.0001 -33.5600 12.8080
v  999.9999 -33.5600 12.8080
v  -1000.0001 -33.5600 10.8080
v  999.9999 -33.5600 10.8080
v  -1000.0001 -67.5000 10.8080
v  999.9999 -67.5000 10.8080
v  -1000.0001 -67.5000 12.8080
v  999.9999 -67.5000 12.8080
v  -1000.0001 -74.5000 12.8080
v  999.9999 -74.5000 12.8080
v  -1000.0001 -74.5000 10.8080
v  999.9999 -74.5000 10.8080
v  -1000.0001 -76.0000 10.8080
v  999.9999 -76.0000 10.8080
v  -1000.0001 -76.2370 9.2870
v  999.9999 -76.2370 9.2870
v  -1000.0001 -76.9254 7.9102
v  999.9999 -76.9254 7.9102
v  -1000.0001 -78.0000 6.8080
v  999.9999 -78.0000 6.8080
v  -1000.0001 -80.0000 8.7181
v  999.9999 -80.0000 8.7181
v  -1000.0001 -81.0245 9.4245
v  999.9999 -81.0245 9.4245
v  -1000.0001 -82.2182 9.7760
v  999.9999 -82.2182 9.7760
v  -1000.0001 -83.4620 9.7373
v  999.9999 -83.4620 9.7373
v  -1000.0001 -84.6316 9.3124
v  999.9999 -84.6316 9.3124
v  -1000.0001 -85.6102 8.5437
v  999.9999 -85.6102 8.5437
v  -1000.0001 -86.3000 7.5080
v  999.9999 -86.3000 7.5080
v  -1000.0001 -87.2713 5.9482
v  999.9999 -87.2713 5.9482
v  -1000.0001 -88.6062 4.6853
v  999.9999 -88.6062 4.6853
v  -1000.0001 -90.2175 3.8019
v  999.9999 -90.2175 3.8019
v  -1000.0001 -0.8244 4.4478
v  -1000.0001 -1.8298 5.4718
v  999.9999 -1.8298 5.4718
v  999.9999 -0.8244 4.4478
v  -1000.0001 -2.5113 6.5720
v  999.9999 -2.5113 6.5720
v  -1000.0001 -2.8436 7.7560
v  999.9999 -2.8436 7.7560
v  -1000.0001 -2.8234 8.9634
v  999.9999 -2.8234 8.9634
v  -1000.0001 -2.4706 10.0348
v  999.9999 -2.4706 10.0348
v  -1000.0001 -1.7702 11.1557
v  999.9999 -1.7702 11.1557
v  -1000.0001 -0.8749 12.6158
v  999.9999 -0.8749 12.6158
v  -1000.0001 -0.3044 14.0576
v  999.9999 -0.3044 14.0576
v  -1000.0001 -0.0284 15.4901
v  999.9999 -0.0284 15.4901
v  -1000.0001 -0.0288 16.8333
v  999.9999 -0.0288 16.8333
v  -1000.0001 -0.3585 18.2852
v  999.9999 -0.3585 18.2852
v  -1000.0001 -1.0564 19.6511
v  999.9999 -1.0564 19.6511
v  -1000.0001 -1.9649 20.6293
v  999.9999 -1.9649 20.6293
v  -1000.0001 -3.1454 21.3072
v  999.9999 -3.1454 21.3072
v  -1000.0001 -4.6408 21.7423
v  999.9999 -4.6408 21.7423
v  -1000.0001 -6.1759 21.9541
v  999.9999 -6.1759 21.9541
v  -1000.0001 -7.6872 21.9815
v  999.9999 -7.6872 21.9815
v  -1000.0001 -9.2308 21.8133
v  999.9999 -9.2308 21.8133
v  -1000.0001 -10.6475 21.4535
v  999.9999 -10.6475 21.4535
v  -1000.0001 -12.0407 20.8795
v  999.9999 -12.0407 20.8795
v  -1000.0001 -13.4308 20.0695
v  999.9999 -13.4308 20.0695
v  -1000.0001 -14.6793 19.1091
v  999.9999 -14.6793 19.1091
v  -1000.0001 -15.7221 18.0867
v  999.9999 -15.7221 18.0867
v  -1000.0001 -16.7077 16.8832
v  999.9999 -16.7077 16.8832
v  -1000.0001 -17.5790 15.5641
v  999.9999 -17.5790 15.5641
v  -1000.0001 -18.3015 14.2067
v  999.9999 -18.3015 14.2067
v  -1000.0001 -18.9002 12.8159
v  999.9999 -18.9002 12.8159
v  -1000.0001 -19.3665 11.4682
v  999.9999 -19.3665 11.4682
# 138 vertices

vn 0.0000 -1.0000 -0.0000
vn 0.0000 0.0000 -1.0000
vn 0.0000 1.0000 -0.0000
vn 0.0000 0.8981 0.4398
vn 0.0000 0.0000 1.0000
vn 0.0000 -0.9808 0.1951
vn 0.0000 -0.9239 0.3827
vn 0.0000 -0.7071 0.7071
vn 0.0000 -0.3827 0.9239
vn 0.0000 -0.0000 1.0000
vn 0.0000 0.3827 0.9239
vn 0.0000 0.7071 0.7071
vn 0.0000 0.9239 0.3827
vn 0.0000 0.9808 0.1951
vn -0.0000 0.0000 1.0000
vn -0.0000 -0.0000 1.0000
vn -0.0000 -0.9881 0.1539
vn -0.0000 -0.9526 0.3042
vn -0.0000 -0.8149 0.5796
vn 0.0000 -0.7160 0.6981
vn 0.0000 0.6907 0.7232
vn 0.0000 0.6312 0.7756
vn 0.0000 0.4305 0.9026
vn 0.0000 0.1273 0.9919
vn 0.0000 -0.1886 0.9820
vn 0.0000 -0.4857 0.8741
vn 0.0000 -0.7342 0.6789
vn 0.0000 -0.8407 0.5415
vn 0.0000 -0.7744 0.6327
vn 0.0000 -0.5888 0.8083
vn 0.0000 -0.3648 0.9311
vn 0.0000 -0.2429 0.9701
vn 0.0000 0.6648 0.7470
vn 0.0000 0.7867 0.6174
vn -0.0000 0.9155 0.4024
vn -0.0000 0.9918 0.1281
vn 0.0000 0.9860 -0.1666
vn 0.0000 0.9055 -0.4244
vn 0.0000 0.8503 -0.5263
vn 0.0000 0.8945 -0.4470
vn 0.0000 0.9601 -0.2798
vn 0.0000 0.9955 -0.0949
vn 0.0000 0.9938 0.1115
vn 0.0000 0.9401 0.3409
vn 0.0000 0.8194 0.5732
vn 0.0000 0.6224 0.7827
vn 0.0000 0.3914 0.9202
vn -0.0000 0.2086 0.9780
vn 0.0000 0.0776 0.9970
vn 0.0000 -0.0452 0.9990
vn 0.0000 -0.1777 0.9841
vn 0.0000 -0.3144 0.9493
vn 0.0000 -0.4432 0.8964
vn 0.0000 -0.5577 0.8300
vn 0.0000 -0.6561 0.7547
vn 0.0000 -0.7380 0.6748
vn 0.0000 -0.8051 0.5932
vn 0.0000 -0.8595 0.5111
vn 0.0000 -0.9014 0.4330
vn 0.0000 -0.9324 0.3614
vn 0.0000 -0.9526 0.3042
vn 0.0000 -0.9596 0.2813
vn -1.0000 0.0000 -0.0000
vn 1.0000 0.0000 -0.0000
# 64 vertex normals

vt 100.5000 1.2635 -4.1000
vt 100.5000 1.5991 -4.1000
vt -99.5000 1.5991 -4.1000
vt -99.5000 1.2635 -4.1000
vt 100.5000 -4.1000 1.5991
vt 100.5000 -2.2000 1.5991
vt -99.5000 -2.2000 1.5991
vt -99.5000 -4.1000 1.5991
vt -99.5000 1.5991 -2.2000
vt -99.5000 1.4991 -2.2000
vt 100.5000 1.4991 -2.2000
vt 100.5000 1.5991 -2.2000
vt 100.5000 -2.2000 1.4991
vt 100.5000 3.1000 1.4991
vt -99.5000 3.1000 1.4991
vt -99.5000 -2.2000 1.4991
vt 100.5000 1.4991 3.1000
vt 100.5000 1.5991 3.1000
vt -99.5000 1.5991 3.1000
vt -99.5000 1.4991 3.1000
vt 100.5000 3.1000 1.5991
vt 100.5000 5.1000 1.5991
vt -99.5000 5.1000 1.5991
vt -99.5000 3.1000 1.5991
vt -99.5000 1.5991 5.1000
vt -99.5000 1.2183 5.1000
vt 100.5000 1.2183 5.1000
vt 100.5000 1.5991 5.1000
vt -99.5000 3.1440 0.5183
vt -99.5000 2.9940 0.5183
vt 100.5000 2.9940 0.5183
vt 100.5000 3.1440 0.5183
vt 100.5000 0.5183 2.9940
vt 100.5000 0.5948 2.9788
vt -99.5000 0.5948 2.9788
vt -99.5000 0.5183 2.9940
vt 100.5000 0.6597 2.9354
vt -99.5000 0.6597 2.9354
vt -99.5000 2.9354 0.6597
vt -99.5000 2.8705 0.7031
vt 100.5000 2.8705 0.7030
vt 100.5000 2.9354 0.6597
vt -99.5000 2.7940 0.7183
vt 100.5000 2.7940 0.7183
vt -99.5000 2.7175 0.7031
vt 100.5000 2.7175 0.7030
vt -99.5000 2.6526 0.6597
vt 100.5000 2.6526 0.6597
vt -99.5000 0.6597 2.6526
vt -99.5000 0.5948 2.6092
vt 100.5000 0.5948 2.6092
vt 100.5000 0.6597 2.6526
vt -99.5000 0.5183 2.5940
vt 100.5000 0.5183 2.5940
vt -99.5000 2.5940 0.5183
vt -99.5000 2.4440 0.5183
vt 100.5000 2.4440 0.5183
vt 100.5000 2.5940 0.5183
vt -99.5000 0.5183 2.4440
vt -99.5000 0.3183 2.4440
vt 100.5000 0.3183 2.4440
vt 100.5000 0.5183 2.4440
vt -99.5000 2.4440 0.3183
vt -99.5000 1.7440 0.3183
vt 100.5000 1.7440 0.3183
vt 100.5000 2.4440 0.3183
vt 100.5000 0.3183 1.7440
vt 100.5000 0.5183 1.7440
vt -99.5000 0.5183 1.7440
vt -99.5000 0.3183 1.7440
vt -99.5000 1.7440 0.5183
vt -99.5000 -1.6500 0.5183
vt 100.5000 -1.6500 0.5183
vt 100.5000 1.7440 0.5183
vt -99.5000 0.5183 -1.6500
vt -99.5000 0.3183 -1.6500
vt 100.5000 0.3183 -1.6500
vt 100.5000 0.5183 -1.6500
vt -99.5000 -1.6500 0.3183
vt -99.5000 -2.3500 0.3183
vt 100.5000 -2.3500 0.3183
vt 100.5000 -1.6500 0.3183
vt 100.5000 0.3183 -2.3500
vt 100.5000 0.5183 -2.3500
vt -99.5000 0.5183 -2.3500
vt -99.5000 0.3183 -2.3500
vt -99.5000 -2.3500 0.5183
vt -99.5000 -2.5000 0.5183
vt 100.5000 -2.5000 0.5183
vt 100.5000 -2.3500 0.5183
vt 100.5000 0.5183 -2.5000
vt 100.5000 0.6704 -2.5237
vt -99.5000 0.6704 -2.5237
vt -99.5000 0.5183 -2.5000
vt 100.5000 0.8081 -2.5925
vt -99.5000 0.8080 -2.5925
vt 100.5000 0.9183 -2.7000
vt -99.5000 0.9183 -2.7000
vt -99.5000 -2.7000 0.9183
vt -99.5000 -2.9000 0.7273
vt 100.5000 -2.9000 0.7272
vt 100.5000 -2.7000 0.9183
vt -99.5000 -3.0024 0.6566
vt 100.5000 -3.0024 0.6566
vt -99.5000 -3.1218 0.6215
vt 100.5000 -3.1218 0.6215
vt -99.5000 -3.2462 0.6254
vt 100.5000 -3.2462 0.6253
vt -99.5000 -3.3632 0.6679
vt 100.5000 -3.3632 0.6678
vt -99.5000 -3.4610 0.7447
vt 100.5000 -3.4610 0.7447
vt 100.5000 0.7447 -3.4610
vt 100.5000 0.8483 -3.5300
vt -99.5000 0.8483 -3.5300
vt -99.5000 0.7447 -3.4610
vt 100.5000 1.0043 -3.6271
vt -99.5000 1.0042 -3.6271
vt -99.5000 -3.6271 1.0043
vt -99.5000 -3.7606 1.1306
vt 100.5000 -3.7606 1.1305
vt 100.5000 -3.6271 1.0042
vt -99.5000 -3.9217 1.2189
vt 100.5000 -3.9217 1.2189
vt -99.5000 -4.1000 1.2635
vt 100.5000 -4.1000 1.2635
vt -99.5000 1.1543 5.0176
vt -99.5000 1.0519 4.9170
vt 100.5000 1.0519 4.9170
vt 100.5000 1.1543 5.0176
vt -99.5000 0.9419 4.8489
vt 100.5000 0.9419 4.8489
vt -99.5000 0.8235 4.8156
vt 100.5000 0.8235 4.8156
vt -99.5000 0.7028 4.8177
vt 100.5000 0.7027 4.8177
vt -99.5000 0.5956 4.8529
vt 100.5000 0.5956 4.8529
vt -99.5000 0.4835 4.9230
vt 100.5000 0.4835 4.9230
vt -99.5000 0.3375 5.0125
vt 100.5000 0.3375 5.0125
vt -99.5000 0.1933 5.0696
vt 100.5000 0.1933 5.0696
vt -99.5000 0.0501 5.0972
vt 100.5000 0.0500 5.0972
vt -99.5000 -0.0842 5.0971
vt 100.5000 -0.0843 5.0971
vt -99.5000 -0.2294 5.0642
vt 100.5000 -0.2295 5.0642
vt -99.5000 -0.3660 4.9944
vt 100.5000 -0.3661 4.9944
vt -99.5000 -0.4638 4.9035
vt 100.5000 -0.4639 4.9035
vt -99.5000 4.9035 -0.4638
vt -99.5000 4.7855 -0.5316
vt 100.5000 4.7855 -0.5317
vt 100.5000 4.9035 -0.4639
vt -99.5000 4.6359 -0.5751
vt 100.5000 4.6359 -0.5752
vt -99.5000 4.4824 -0.5963
vt 100.5000 4.4824 -0.5964
vt -99.5000 4.3313 -0.5991
vt 100.5000 4.3313 -0.5991
vt -99.5000 4.1769 -0.5822
vt 100.5000 4.1769 -0.5823
vt -99.5000 4.0353 -0.5462
vt 100.5000 4.0353 -0.5463
vt -99.5000 3.8959 -0.4888
vt 100.5000 3.8959 -0.4889
vt -99.5000 3.7569 -0.4078
vt 100.5000 3.7569 -0.4079
vt -99.5000 3.6321 -0.3118
vt 100.5000 3.6321 -0.3119
vt -99.5000 3.5278 -0.2096
vt 100.5000 3.5278 -0.2096
vt 100.5000 -0.2096 3.5278
vt 100.5000 -0.0892 3.4292
vt -99.5000 -0.0893 3.4292
vt -99.5000 -0.2096 3.5278
vt 100.5000 0.0427 3.3421
vt -99.5000 0.0426 3.3421
vt 100.5000 0.1784 3.2699
vt -99.5000 0.1784 3.2699
vt 100.5000 0.3175 3.2100
vt -99.5000 0.3175 3.2100
vt 100.5000 0.4523 3.1634
vt -99.5000 0.4522 3.1634
vt -99.5000 5.1000 1.2183
vt -99.5000 5.0176 1.1543
vt 100.5000 5.0176 1.1543
vt 100.5000 5.1000 1.2183
vt 100.5000 0.5183 3.1440
vt -99.5000 0.5183 3.1440
vt -0.2189 -3.9217 -99.5000
vt -0.5991 -2.2000 -99.5000
vt -0.5991 -4.1000 -99.5000
vt -0.2635 -4.1000 -99.5000
vt 0.4817 -2.3500 -99.5000
vt 0.6817 -2.3500 -99.5000
vt 0.6817 -1.6500 -99.5000
vt 0.4817 -1.6500 -99.5000
vt -0.4991 -2.2000 -99.5000
vt 0.4817 1.7440 -99.5000
vt -0.4991 3.1000 -99.5000
vt 0.3296 -2.5237 -99.5000
vt 0.4817 -2.5000 -99.5000
vt 0.1919 -2.5925 -99.5000
vt 0.0817 -2.7000 -99.5000
vt -0.1306 -3.7606 -99.5000
vt -0.0043 -3.6271 -99.5000
vt 0.1517 -3.5300 -99.5000
vt 0.2553 -3.4610 -99.5000
vt 0.3321 -3.3632 -99.5000
vt 0.3746 -3.2462 -99.5000
vt 0.2727 -2.9000 -99.5000
vt 0.3785 -3.1218 -99.5000
vt 0.3434 -3.0024 -99.5000
vt 0.6817 1.7440 -99.5000
vt 0.6817 2.4440 -99.5000
vt 0.4817 2.4440 -99.5000
vt 0.4052 2.6092 -99.5000
vt 0.3403 2.6526 -99.5000
vt 0.4817 2.5940 -99.5000
vt 0.2969 2.7175 -99.5000
vt 0.2817 2.7940 -99.5000
vt 0.2969 2.8705 -99.5000
vt 0.3403 2.9354 -99.5000
vt 0.4817 2.9940 -99.5000
vt 0.4817 3.1440 -99.5000
vt 0.4052 2.9788 -99.5000
vt 0.1765 4.8156 -99.5000
vt 0.0581 4.8489 -99.5000
vt -0.1543 5.0176 -99.5000
vt -0.2183 5.1000 -99.5000
vt -0.5991 5.1000 -99.5000
vt -0.5991 3.1000 -99.5000
vt -0.0519 4.9170 -99.5000
vt 0.5477 3.1634 -99.5000
vt 0.2972 4.8177 -99.5000
vt 0.6825 3.2100 -99.5000
vt 0.4044 4.8529 -99.5000
vt 0.8216 3.2699 -99.5000
vt 0.5165 4.9230 -99.5000
vt 0.9573 3.3421 -99.5000
vt 0.6625 5.0125 -99.5000
vt 1.0892 3.4292 -99.5000
vt 0.8067 5.0696 -99.5000
vt 1.2096 3.5278 -99.5000
vt 0.9499 5.0972 -99.5000
vt 1.3118 3.6321 -99.5000
vt 1.0842 5.0971 -99.5000
vt 1.4078 3.7569 -99.5000
vt 1.2294 5.0642 -99.5000
vt 1.4888 3.8959 -99.5000
vt 1.3660 4.9944 -99.5000
vt 1.5462 4.0353 -99.5000
vt 1.4638 4.9035 -99.5000
vt 1.5822 4.1769 -99.5000
vt 1.5316 4.7855 -99.5000
vt 1.5991 4.3313 -99.5000
vt 1.5751 4.6359 -99.5000
vt 1.5963 4.4824 -99.5000
vt 1.2189 -3.9217 100.5000
vt 1.2635 -4.1000 100.5000
vt 1.5991 -4.1000 100.5000
vt 1.5991 -2.2000 100.5000
vt 0.5183 -2.3500 100.5000
vt 0.5183 -1.6500 100.5000
vt 0.3183 -1.6500 100.5000
vt 0.3183 -2.3500 100.5000
vt 1.4991 -2.2000 100.5000
vt 1.4991 3.1000 100.5000
vt 0.5183 1.7440 100.5000
vt 0.6704 -2.5237 100.5000
vt 0.5183 -2.5000 100.5000
vt 0.8080 -2.5925 100.5000
vt 0.9183 -2.7000 100.5000
vt 1.1305 -3.7606 100.5000
vt 1.0042 -3.6271 100.5000
vt 0.8483 -3.5300 100.5000
vt 0.7447 -3.4610 100.5000
vt 0.6678 -3.3632 100.5000
vt 0.6253 -3.2462 100.5000
vt 0.7272 -2.9000 100.5000
vt 0.6215 -3.1218 100.5000
vt 0.6566 -3.0024 100.5000
vt 0.5183 2.4440 100.5000
vt 0.3183 2.4440 100.5000
vt 0.3183 1.7440 100.5000
vt 0.5948 2.6092 100.5000
vt 0.6597 2.6526 100.5000
vt 0.5183 2.5940 100.5000
vt 0.7030 2.7175 100.5000
vt 0.7183 2.7940 100.5000
vt 0.7030 2.8705 100.5000
vt 0.6597 2.9354 100.5000
vt 0.5183 2.9940 100.5000
vt 0.5948 2.9788 100.5000
vt 0.5183 3.1440 100.5000
vt 0.9419 4.8489 100.5000
vt 0.8235 4.8156 100.5000
vt 1.1543 5.0176 100.5000
vt 1.2183 5.1000 100.5000
vt 1.5991 5.1000 100.5000
vt 1.5991 3.1000 100.5000
vt 1.0519 4.9170 100.5000
vt 0.7027 4.8177 100.5000
vt 0.4522 3.1634 100.5000
vt 0.3175 3.2100 100.5000
vt 0.5956 4.8529 100.5000
vt 0.1784 3.2699 100.5000
vt 0.4835 4.9230 100.5000
vt 0.0426 3.3421 100.5000
vt 0.3375 5.0125 100.5000
vt -0.0893 3.4292 100.5000
vt 0.1933 5.0696 100.5000
vt -0.2096 3.5278 100.5000
vt 0.0500 5.0972 100.5000
vt -0.3119 3.6321 100.5000
vt -0.0843 5.0971 100.5000
vt -0.4079 3.7569 100.5000
vt -0.2295 5.0642 100.5000
vt -0.4889 3.8959 100.5000
vt -0.3661 4.9944 100.5000
vt -0.5463 4.0353 100.5000
vt -0.4639 4.9035 100.5000
vt -0.5823 4.1769 100.5000
vt -0.5317 4.7855 100.5000
vt -0.5991 4.3313 100.5000
vt -0.5752 4.6359 100.5000
vt -0.5964 4.4824 100.5000
# 332 texture coords

g OracDecor_DX119_2300_decorative_element
s 1
f 1/1/1 2/2/1 3/3/1 4/4/1 
s 2
f 2/5/2 5/6/2 6/7/2 3/8/2 
s 1
f 5/9/3 7/10/3 8/11/3 6/12/3 
s 2
f 7/13/2 9/14/2 10/15/2 8/16/2 
s 1
f 9/17/1 11/18/1 12/19/1 10/20/1 
s 2
f 11/21/2 13/22/2 14/23/2 12/24/2 
s 1
f 13/25/3 15/26/4 16/27/4 14/28/3 
s 2
f 17/29/5 18/30/5 19/31/5 20/32/5 
s 1
f 18/33/6 21/34/7 22/35/7 19/36/6 
f 21/34/7 23/37/8 24/38/8 22/35/7 
f 23/39/8 25/40/9 26/41/9 24/42/8 
f 25/40/9 27/43/10 28/44/10 26/41/9 
f 27/43/10 29/45/11 30/46/11 28/44/10 
f 29/45/11 31/47/12 32/48/12 30/46/11 
f 31/49/12 33/50/13 34/51/13 32/52/12 
f 33/50/13 35/53/14 36/54/14 34/51/13 
s 2
f 35/55/5 37/56/5 38/57/5 36/58/5 
s 1
f 37/59/3 39/60/3 40/61/3 38/62/3 
s 2
f 39/63/15 41/64/15 42/65/15 40/66/15 
s 1
f 41/67/1 43/68/1 44/69/1 42/70/1 
s 2
f 43/71/16 45/72/16 46/73/16 44/74/16 
s 1
f 45/75/3 47/76/3 48/77/3 46/78/3 
s 2
f 47/79/15 49/80/15 50/81/15 48/82/15 
s 1
f 49/83/1 51/84/1 52/85/1 50/86/1 
s 2
f 51/87/15 53/88/15 54/89/15 52/90/15 
s 1
f 53/91/17 55/92/18 56/93/18 54/94/17 
f 55/92/18 57/95/19 58/96/19 56/93/18 
f 57/95/19 59/97/20 60/98/20 58/96/19 
s 2
f 59/99/21 61/100/22 62/101/22 60/102/21 
f 61/100/22 63/103/23 64/104/23 62/101/22 
f 63/103/23 65/105/24 66/106/24 64/104/23 
f 65/105/24 67/107/25 68/108/25 66/106/24 
f 67/107/25 69/109/26 70/110/26 68/108/25 
f 69/109/26 71/111/27 72/112/27 70/110/26 
f 71/113/27 73/114/28 74/115/28 72/116/27 
f 73/114/28 75/117/29 76/118/29 74/115/28 
f 75/119/29 77/120/30 78/121/30 76/122/29 
f 77/120/30 79/123/31 80/124/31 78/121/30 
f 79/123/31 1/125/32 4/126/32 80/124/31 
s 1
f 81/127/33 82/128/34 83/129/34 84/130/33 
f 82/128/34 85/131/35 86/132/35 83/129/34 
f 85/131/35 87/133/36 88/134/36 86/132/35 
f 87/133/36 89/135/37 90/136/37 88/134/36 
f 89/135/37 91/137/38 92/138/38 90/136/37 
f 91/137/38 93/139/39 94/140/39 92/138/38 
f 93/139/39 95/141/40 96/142/40 94/140/39 
f 95/141/40 97/143/41 98/144/41 96/142/40 
f 97/143/41 99/145/42 100/146/42 98/144/41 
f 99/145/42 101/147/43 102/148/43 100/146/42 
f 101/147/43 103/149/44 104/150/44 102/148/43 
f 103/149/44 105/151/45 106/152/45 104/150/44 
f 105/151/45 107/153/46 108/154/46 106/152/45 
f 107/155/46 109/156/47 110/157/47 108/158/46 
f 109/156/47 111/159/48 112/160/48 110/157/47 
f 111/159/48 113/161/49 114/162/49 112/160/48 
f 113/161/49 115/163/50 116/164/50 114/162/49 
f 115/163/50 117/165/51 118/166/51 116/164/50 
f 117/165/51 119/167/52 120/168/52 118/166/51 
f 119/167/52 121/169/53 122/170/53 120/168/52 
f 121/169/53 123/171/54 124/172/54 122/170/53 
f 123/171/54 125/173/55 126/174/55 124/172/54 
f 125/173/55 127/175/56 128/176/56 126/174/55 
f 127/177/56 129/178/57 130/179/57 128/180/56 
f 129/178/57 131/181/58 132/182/58 130/179/57 
f 131/181/58 133/183/59 134/184/59 132/182/58 
f 133/183/59 135/185/60 136/186/60 134/184/59 
f 135/185/60 137/187/61 138/188/61 136/186/60 
f 15/189/4 81/190/33 84/191/33 16/192/4 
f 137/187/61 17/193/62 20/194/62 138/188/61 
s 4
f 79/195/63 5/196/63 2/197/63 1/198/63 
f 51/199/63 49/200/63 47/201/63 45/202/63 
f 51/199/63 45/202/63 7/203/63 
f 45/202/63 43/204/63 9/205/63 7/203/63 
f 55/206/63 53/207/63 7/203/63 
f 53/207/63 51/199/63 7/203/63 
f 57/208/63 55/206/63 7/203/63 
f 59/209/63 57/208/63 7/203/63 
f 79/195/63 77/210/63 5/196/63 
f 77/210/63 75/211/63 5/196/63 
f 75/211/63 73/212/63 5/196/63 
f 73/212/63 71/213/63 5/196/63 
f 71/213/63 69/214/63 5/196/63 
f 69/214/63 67/215/63 5/196/63 
f 61/216/63 59/209/63 5/196/63 
f 59/209/63 7/203/63 5/196/63 
f 65/217/63 63/218/63 5/196/63 
f 63/218/63 61/216/63 5/196/63 
f 67/215/63 65/217/63 5/196/63 
f 43/204/63 41/219/63 39/220/63 37/221/63 
f 43/204/63 37/221/63 9/205/63 
f 33/222/63 31/223/63 9/205/63 37/221/63 
f 37/221/63 35/224/63 33/222/63 
f 29/225/63 27/226/63 9/205/63 
f 31/223/63 29/225/63 9/205/63 
f 25/227/63 23/228/63 9/205/63 
f 27/226/63 25/227/63 9/205/63 
f 18/229/63 17/230/63 9/205/63 21/231/63 
f 9/205/63 23/228/63 21/231/63 
f 17/230/63 87/232/63 85/233/63 9/205/63 
f 81/234/63 15/235/63 9/205/63 
f 13/236/63 11/237/63 9/205/63 15/235/63 
f 82/238/63 81/234/63 9/205/63 
f 9/205/63 85/233/63 82/238/63 
f 17/230/63 137/239/63 89/240/63 87/232/63 
f 135/241/63 91/242/63 89/240/63 137/239/63 
f 133/243/63 93/244/63 91/242/63 135/241/63 
f 131/245/63 95/246/63 93/244/63 133/243/63 
f 129/247/63 97/248/63 95/246/63 131/245/63 
f 127/249/63 99/250/63 97/248/63 129/247/63 
f 125/251/63 101/252/63 99/250/63 127/249/63 
f 123/253/63 103/254/63 101/252/63 125/251/63 
f 121/255/63 105/256/63 103/254/63 123/253/63 
f 119/257/63 107/258/63 105/256/63 121/255/63 
f 117/259/63 109/260/63 107/258/63 119/257/63 
f 115/261/63 111/262/63 109/260/63 117/259/63 
f 115/261/63 113/263/63 111/262/63 
f 80/264/64 4/265/64 3/266/64 6/267/64 
f 52/268/64 46/269/64 48/270/64 50/271/64 
f 52/268/64 8/272/64 46/269/64 
f 46/269/64 8/272/64 10/273/64 44/274/64 
f 56/275/64 8/272/64 54/276/64 
f 54/276/64 8/272/64 52/268/64 
f 58/277/64 8/272/64 56/275/64 
f 60/278/64 8/272/64 58/277/64 
f 80/264/64 6/267/64 78/279/64 
f 78/279/64 6/267/64 76/280/64 
f 76/280/64 6/267/64 74/281/64 
f 74/281/64 6/267/64 72/282/64 
f 72/282/64 6/267/64 70/283/64 
f 70/283/64 6/267/64 68/284/64 
f 62/285/64 6/267/64 60/278/64 
f 60/278/64 6/267/64 8/272/64 
f 66/286/64 6/267/64 64/287/64 
f 64/287/64 6/267/64 62/285/64 
f 68/284/64 6/267/64 66/286/64 
f 44/274/64 38/288/64 40/289/64 42/290/64 
f 44/274/64 10/273/64 38/288/64 
f 34/291/64 38/288/64 10/273/64 32/292/64 
f 38/288/64 34/291/64 36/293/64 
f 30/294/64 10/273/64 28/295/64 
f 32/292/64 10/273/64 30/294/64 
f 26/296/64 10/273/64 24/297/64 
f 28/295/64 10/273/64 26/296/64 
f 19/298/64 22/299/64 10/273/64 20/300/64 
f 10/273/64 22/299/64 24/297/64 
f 20/300/64 10/273/64 86/301/64 88/302/64 
f 84/303/64 10/273/64 16/304/64 
f 14/305/64 16/304/64 10/273/64 12/306/64 
f 83/307/64 10/273/64 84/303/64 
f 10/273/64 83/307/64 86/301/64 
f 20/300/64 88/302/64 90/308/64 138/309/64 
f 136/310/64 138/309/64 90/308/64 92/311/64 
f 134/312/64 136/310/64 92/311/64 94/313/64 
f 132/314/64 134/312/64 94/313/64 96/315/64 
f 130/316/64 132/314/64 96/315/64 98/317/64 
f 128/318/64 130/316/64 98/317/64 100/319/64 
f 126/320/64 128/318/64 100/319/64 102/321/64 
f 124/322/64 126/320/64 102/321/64 104/323/64 
f 122/324/64 124/322/64 104/323/64 106/325/64 
f 120/326/64 122/324/64 106/325/64 108/327/64 
f 118/328/64 120/326/64 108/327/64 110/329/64 
f 116/330/64 118/328/64 110/329/64 112/331/64 
f 116/330/64 112/331/64 114/332/64 
# 109 polygons - 54 triangles

