# 3ds Max Wavefront OBJ Exporter v0.97b - (c)2007 guruware
# File Created: 04.09.2020 00:02:16

#
# object OracDecor_DX170_2300_decorative_element
#

v  -1000.0002 -118.9999 0.0000
v  1000.0001 -118.9999 0.0000
v  1000.0001 -118.9998 5.4902
v  -1000.0002 -118.9998 5.4902
v  1000.0001 -118.9656 5.7323
v  -1000.0002 -118.9656 5.7323
v  1000.0001 -118.8594 5.8902
v  -1000.0002 -118.8594 5.8902
v  1000.0001 -118.7048 5.9729
v  -1000.0002 -118.7048 5.9729
v  1000.0001 -118.6047 5.9887
v  -1000.0002 -118.6047 5.9887
v  -1000.0002 -114.9509 6.0069
v  1000.0001 -114.9509 6.0069
v  1000.0001 -111.7714 6.1799
v  -1000.0002 -111.7714 6.1799
v  1000.0001 -106.1489 6.9529
v  -1000.0002 -106.1489 6.9529
v  1000.0001 -105.5776 7.1594
v  -1000.0002 -105.5776 7.1594
v  1000.0001 -105.0950 7.5277
v  -1000.0002 -105.0950 7.5277
v  1000.0001 -104.7448 8.0242
v  -1000.0002 -104.7448 8.0242
v  1000.0001 -104.1364 9.1342
v  -1000.0002 -104.1364 9.1342
v  1000.0001 -103.4419 10.1926
v  -1000.0002 -103.4419 10.1926
v  1000.0001 -103.2897 10.3322
v  -1000.0002 -103.2897 10.3322
v  1000.0001 -103.0944 10.3984
v  -1000.0002 -103.0944 10.3984
v  1000.0001 -102.8887 10.3800
v  -1000.0002 -102.8887 10.3800
v  1000.0001 -100.6116 9.9438
v  -1000.0002 -100.6116 9.9438
v  1000.0001 -98.5748 10.0392
v  -1000.0002 -98.5748 10.0392
v  1000.0001 -96.4501 10.6651
v  -1000.0002 -96.4501 10.6651
v  1000.0001 -95.2279 11.2581
v  -1000.0002 -95.2279 11.2581
v  1000.0001 -93.8525 12.0889
v  -1000.0002 -93.8525 12.0889
v  1000.0001 -92.2916 13.1626
v  -1000.0002 -92.2916 13.1626
v  1000.0001 -90.5913 14.3554
v  -1000.0002 -90.5913 14.3554
v  1000.0001 -89.0200 15.3531
v  -1000.0002 -89.0200 15.3531
v  1000.0001 -87.6195 16.0845
v  -1000.0002 -87.6195 16.0845
v  1000.0001 -86.3661 16.5807
v  -1000.0002 -86.3661 16.5807
v  1000.0001 -85.1942 16.8997
v  -1000.0002 -85.1942 16.8997
v  1000.0001 -82.8480 17.1254
v  -1000.0002 -82.8480 17.1254
v  1000.0001 -81.5961 17.0352
v  -1000.0002 -81.5961 17.0352
v  1000.0001 -80.2327 16.7853
v  -1000.0002 -80.2327 16.7853
v  1000.0001 -78.7126 16.3385
v  -1000.0002 -78.7126 16.3385
v  1000.0001 -76.9817 15.6359
v  -1000.0002 -76.9817 15.6359
v  1000.0001 -76.7429 15.5984
v  -1000.0002 -76.7429 15.5984
v  1000.0001 -76.5197 15.6915
v  -1000.0002 -76.5197 15.6915
v  1000.0001 -76.3783 15.8876
v  -1000.0002 -76.3783 15.8876
v  1000.0001 -75.8431 17.2463
v  -1000.0002 -75.8431 17.2463
v  1000.0001 -75.3220 18.3069
v  -1000.0002 -75.3220 18.3069
v  1000.0001 -74.8033 19.1132
v  -1000.0002 -74.8033 19.1132
v  1000.0001 -74.2808 19.7273
v  -1000.0002 -74.2808 19.7273
v  1000.0001 -73.7322 20.2130
v  -1000.0002 -73.7322 20.2130
v  1000.0001 -73.1277 20.6098
v  -1000.0002 -73.1277 20.6098
v  1000.0001 -71.7745 21.1346
v  -1000.0002 -71.7745 21.1346
v  1000.0001 -70.4646 21.2427
v  -1000.0002 -70.4646 21.2427
v  1000.0001 -69.1134 20.9459
v  -1000.0002 -69.1134 20.9459
v  1000.0001 -67.8326 20.2484
v  -1000.0002 -67.8326 20.2484
v  1000.0001 -67.2509 19.7467
v  -1000.0002 -67.2509 19.7467
v  1000.0001 -66.7020 19.1230
v  -1000.0002 -66.7020 19.1230
v  1000.0001 -66.1982 18.3666
v  -1000.0002 -66.1982 18.3666
v  1000.0001 -65.7200 17.3950
v  -1000.0002 -65.7200 17.3950
v  1000.0001 -65.5355 17.1487
v  -1000.0002 -65.5355 17.1487
v  1000.0001 -65.3978 17.0675
v  -1000.0002 -65.3978 17.0675
v  1000.0001 -65.2363 17.0638
v  -1000.0002 -65.2363 17.0638
v  1000.0001 -65.0266 17.2127
v  -1000.0002 -65.0266 17.2127
v  -1000.0002 -19.4210 16.8270
v  1000.0001 -19.4210 16.8270
v  1000.0001 -18.1652 19.6687
v  -1000.0002 -18.1652 19.6687
v  1000.0001 -18.0520 19.8420
v  -1000.0002 -18.0520 19.8420
v  1000.0001 -17.8832 19.9374
v  -1000.0002 -17.8832 19.9374
v  1000.0001 -14.6263 21.2620
v  -1000.0002 -14.6263 21.2620
v  1000.0001 -14.5286 21.3154
v  -1000.0002 -14.5286 21.3154
v  1000.0001 -14.4452 21.3964
v  -1000.0002 -14.4452 21.3964
v  1000.0001 -12.3568 24.8338
v  -1000.0002 -12.3568 24.8338
v  1000.0001 -10.9982 28.6195
v  -1000.0002 -10.9982 28.6195
v  1000.0001 -10.9583 28.7197
v  -1000.0002 -10.9583 28.7197
v  1000.0001 -10.8929 28.8056
v  -1000.0002 -10.8929 28.8056
v  1000.0001 -9.4513 30.2489
v  -1000.0002 -9.4513 30.2489
v  1000.0001 -9.3081 30.3410
v  -1000.0002 -9.3081 30.3410
v  1000.0001 -9.1394 30.3652
v  -1000.0002 -9.1394 30.3652
v  1000.0001 -5.0651 30.1307
v  -1000.0002 -5.0651 30.1307
v  1000.0001 -0.9857 30.0142
v  -1000.0002 -0.9857 30.0142
v  1000.0001 -0.6074 29.9341
v  -1000.0002 -0.6074 29.9341
v  1000.0001 -0.2878 29.7164
v  -1000.0002 -0.2878 29.7164
v  1000.0001 -0.0747 29.3938
v  -1000.0002 -0.0747 29.3938
v  1000.0001 0.0001 29.0143
v  -1000.0002 0.0001 29.0143
v  1000.0001 0.0001 -0.0002
v  -1000.0002 0.0001 -0.0002
v  1000.0001 -2.9286 -0.0002
v  -1000.0002 -2.9286 -0.0002
v  1000.0001 -3.1945 0.0763
v  -1000.0002 -3.1945 0.0763
v  1000.0001 -3.3788 0.2824
v  -1000.0002 -3.3788 0.2824
v  1000.0001 -3.7764 0.8200
v  -1000.0002 -3.7764 0.8200
v  1000.0001 -4.3428 1.1756
v  -1000.0002 -4.3428 1.1756
v  1000.0001 -4.9999 1.2998
v  -1000.0002 -4.9999 1.2998
v  1000.0001 -5.6571 1.1756
v  -1000.0002 -5.6571 1.1756
v  1000.0001 -6.2234 0.8200
v  -1000.0002 -6.2234 0.8200
v  1000.0001 -6.6208 0.2824
v  -1000.0002 -6.6208 0.2824
v  1000.0001 -6.8053 0.0763
v  -1000.0002 -6.8053 0.0763
v  1000.0001 -7.0712 -0.0002
v  -1000.0002 -7.0712 -0.0002
v  1000.0001 -10.2151 -0.0002
v  -1000.0002 -10.2151 -0.0002
v  1000.0001 -10.4556 0.0615
v  -1000.0002 -10.4556 0.0615
v  1000.0001 -10.6367 0.2312
v  -1000.0002 -10.6367 0.2312
v  1000.0001 -10.7140 0.4671
v  -1000.0002 -10.7140 0.4671
v  1000.0001 -10.6682 0.7112
v  -1000.0002 -10.6682 0.7112
v  1000.0001 -6.9999 8.5779
v  -1000.0002 -6.9999 8.5779
v  1000.0001 -6.9998 17.4657
v  -1000.0002 -6.9998 17.4657
v  1000.0001 -7.0425 17.6053
v  -1000.0002 -7.0425 17.6053
v  1000.0001 -7.1559 17.6973
v  -1000.0002 -7.1559 17.6973
v  1000.0001 -7.3013 17.7104
v  -1000.0002 -7.3013 17.7104
v  1000.0001 -7.4291 17.6400
v  -1000.0002 -7.4291 17.6400
v  1000.0001 -13.7834 11.1061
v  -1000.0002 -13.7834 11.1061
v  1000.0001 -15.5883 9.6934
v  -1000.0002 -15.5883 9.6934
v  1000.0001 -17.7048 8.8144
v  -1000.0002 -17.7048 8.8144
v  1000.0001 -21.6749 7.8335
v  -1000.0002 -21.6749 7.8335
v  1000.0001 -25.0500 7.0771
v  -1000.0002 -25.0500 7.0771
v  1000.0001 -27.6354 6.6779
v  -1000.0002 -27.6354 6.6779
v  1000.0001 -27.8560 6.6002
v  -1000.0002 -27.8560 6.6002
v  1000.0001 -28.0170 6.4308
v  -1000.0002 -28.0170 6.4308
v  1000.0001 -28.0834 6.2067
v  -1000.0002 -28.0834 6.2067
v  1000.0001 -28.3439 1.2369
v  -1000.0002 -28.3439 1.2369
v  1000.0001 -28.3816 1.1175
v  -1000.0002 -28.3816 1.1175
v  1000.0001 -28.4723 1.0314
v  -1000.0002 -28.4723 1.0314
v  1000.0001 -28.5935 1.0000
v  -1000.0002 -28.5935 1.0000
v  1000.0001 -31.4191 1.0000
v  -1000.0002 -31.4191 1.0000
v  1000.0001 -31.5403 1.0314
v  -1000.0002 -31.5403 1.0314
v  1000.0001 -31.6310 1.1175
v  -1000.0002 -31.6310 1.1175
v  1000.0001 -31.6687 1.2369
v  -1000.0002 -31.6687 1.2369
v  1000.0001 -31.9294 6.2121
v  -1000.0002 -31.9294 6.2121
v  1000.0001 -31.9945 6.4338
v  -1000.0002 -31.9945 6.4338
v  1000.0001 -32.1522 6.6025
v  -1000.0002 -32.1522 6.6025
v  1000.0001 -32.3689 6.6824
v  -1000.0002 -32.3689 6.6824
v  1000.0001 -33.1481 6.7980
v  -1000.0002 -33.1481 6.7980
v  -1000.0002 -34.7689 7.2047
v  1000.0001 -34.7689 7.2047
v  1000.0001 -36.5613 8.0108
v  -1000.0002 -36.5613 8.0108
v  1000.0001 -38.6157 9.5482
v  -1000.0002 -38.6157 9.5482
v  1000.0001 -40.4658 12.1086
v  -1000.0002 -40.4658 12.1086
v  1000.0001 -41.2523 14.8542
v  -1000.0002 -41.2523 14.8542
v  1000.0001 -41.3077 18.1147
v  -1000.0002 -41.3077 18.1147
v  1000.0001 -40.8119 20.5431
v  -1000.0002 -40.8119 20.5431
v  1000.0001 -40.2305 22.2535
v  -1000.0002 -40.2305 22.2535
v  1000.0001 -39.8976 23.1853
v  -1000.0002 -39.8976 23.1853
v  1000.0001 -39.9132 23.7139
v  -1000.0002 -39.9132 23.7139
v  1000.0001 -40.1820 24.1690
v  -1000.0002 -40.1820 24.1690
v  1000.0001 -40.6376 24.4376
v  -1000.0002 -40.6376 24.4376
v  1000.0001 -41.0349 24.4824
v  -1000.0002 -41.0349 24.4824
v  1000.0001 -44.7306 23.6168
v  -1000.0002 -44.7306 23.6168
v  1000.0001 -47.3488 22.5116
v  -1000.0002 -47.3488 22.5116
v  1000.0001 -50.2026 20.8029
v  -1000.0002 -50.2026 20.8029
v  1000.0001 -54.0126 17.7357
v  -1000.0002 -54.0126 17.7357
v  1000.0001 -56.7280 14.8837
v  -1000.0002 -56.7280 14.8837
v  1000.0001 -58.7433 12.2788
v  -1000.0002 -58.7433 12.2788
v  1000.0001 -59.8304 11.1182
v  -1000.0002 -59.8304 11.1182
v  1000.0001 -60.5208 10.5764
v  -1000.0002 -60.5208 10.5764
v  1000.0001 -61.2688 10.1062
v  -1000.0002 -61.2688 10.1062
v  1000.0001 -62.8990 9.4128
v  -1000.0002 -62.8990 9.4128
v  1000.0001 -63.0363 9.3468
v  -1000.0002 -63.0363 9.3468
v  1000.0001 -63.1473 9.2425
v  -1000.0002 -63.1473 9.2425
v  1000.0001 -63.2218 9.1096
v  -1000.0002 -63.2218 9.1096
v  1000.0001 -63.2528 8.9606
v  -1000.0002 -63.2528 8.9606
v  1000.0001 -63.6576 1.2369
v  -1000.0002 -63.6576 1.2369
v  1000.0001 -63.6953 1.1175
v  -1000.0002 -63.6953 1.1175
v  1000.0001 -63.7860 1.0314
v  -1000.0002 -63.7860 1.0314
v  1000.0001 -63.9071 1.0000
v  -1000.0002 -63.9071 1.0000
v  1000.0001 -66.7328 1.0000
v  -1000.0002 -66.7328 1.0000
v  1000.0001 -66.8540 1.0314
v  -1000.0002 -66.8540 1.0314
v  1000.0001 -66.9447 1.1175
v  -1000.0002 -66.9447 1.1175
v  1000.0001 -66.9823 1.2369
v  -1000.0002 -66.9823 1.2369
v  1000.0001 -67.3640 8.5186
v  -1000.0002 -67.3640 8.5186
v  1000.0001 -67.4504 8.7744
v  -1000.0002 -67.4504 8.7744
v  1000.0001 -67.6575 8.9480
v  -1000.0002 -67.6575 8.9480
v  1000.0001 -67.9242 8.9887
v  -1000.0002 -67.9242 8.9887
v  1000.0001 -77.0865 7.8637
v  -1000.0002 -77.0865 7.8637
v  1000.0001 -78.7413 7.8905
v  -1000.0002 -78.7413 7.8905
v  1000.0001 -80.3259 8.3684
v  -1000.0002 -80.3259 8.3684
v  -1000.0002 -81.7346 8.9098
v  1000.0001 -81.7346 8.9098
v  1000.0001 -82.6451 9.1031
v  -1000.0002 -82.6451 9.1031
v  1000.0001 -83.2344 9.1185
v  -1000.0002 -83.2344 9.1185
v  1000.0001 -83.7440 9.0211
v  -1000.0002 -83.7440 9.0211
v  1000.0001 -84.5088 8.7043
v  -1000.0002 -84.5088 8.7043
v  1000.0001 -85.8163 7.9251
v  -1000.0002 -85.8163 7.9251
v  1000.0001 -87.6206 6.6646
v  -1000.0002 -87.6206 6.6646
v  1000.0001 -89.7507 5.2148
v  -1000.0002 -89.7507 5.2148
v  1000.0001 -91.9773 3.9291
v  -1000.0002 -91.9773 3.9291
v  1000.0001 -94.1923 2.9603
v  -1000.0002 -94.1923 2.9603
v  1000.0001 -101.3888 0.3412
v  -1000.0002 -101.3888 0.3412
v  1000.0001 -101.8383 0.0713
v  -1000.0002 -101.8383 0.0713
v  1000.0001 -101.9622 0.0182
v  -1000.0002 -101.9622 0.0182
v  1000.0001 -102.0957 0.0000
v  -1000.0002 -102.0957 -0.0000
v  1000.0001 -108.4073 0.0000
v  -1000.0002 -108.4073 0.0000
v  1000.0001 -108.6731 0.0765
v  -1000.0002 -108.6731 0.0765
v  1000.0001 -108.8575 0.2826
v  -1000.0002 -108.8575 0.2826
v  1000.0001 -109.2550 0.8202
v  -1000.0002 -109.2550 0.8202
v  1000.0001 -109.8214 1.1757
v  -1000.0002 -109.8214 1.1757
v  1000.0001 -110.4785 1.3000
v  -1000.0002 -110.4785 1.3000
v  1000.0001 -111.1357 1.1757
v  -1000.0002 -111.1357 1.1757
v  1000.0001 -111.7020 0.8202
v  -1000.0002 -111.7020 0.8202
v  1000.0001 -112.0994 0.2826
v  -1000.0002 -112.0994 0.2826
v  1000.0001 -112.2839 0.0765
v  -1000.0002 -112.2839 0.0765
v  1000.0001 -112.5498 0.0000
v  -1000.0002 -112.5498 0.0000
v  -1000.0002 -64.1984 18.3278
v  1000.0001 -64.1984 18.3278
v  -1000.0002 -19.6515 16.5998
v  1000.0001 -19.6515 16.5998
v  1000.0001 -63.0443 19.7941
v  -1000.0002 -63.0443 19.7941
v  1000.0001 -61.8303 21.2028
v  -1000.0002 -61.8303 21.2028
v  1000.0001 -60.5681 22.5427
v  -1000.0002 -60.5681 22.5427
v  1000.0001 -59.2651 23.8071
v  -1000.0002 -59.2651 23.8071
v  1000.0001 -57.9066 25.0105
v  -1000.0002 -57.9066 25.0105
v  1000.0001 -56.4230 26.2038
v  -1000.0002 -56.4230 26.2038
v  1000.0001 -54.9155 27.2966
v  -1000.0002 -54.9155 27.2966
v  1000.0001 -53.4010 28.2818
v  -1000.0002 -53.4010 28.2818
v  1000.0001 -51.8829 29.1619
v  -1000.0002 -51.8829 29.1619
v  1000.0001 -50.3359 29.9531
v  -1000.0002 -50.3359 29.9531
v  1000.0001 -48.7032 30.6782
v  -1000.0002 -48.7032 30.6782
v  1000.0001 -47.1160 31.2738
v  -1000.0002 -47.1160 31.2738
v  1000.0001 -45.4637 31.7740
v  -1000.0002 -45.4637 31.7740
v  1000.0001 -43.8236 32.1487
v  -1000.0002 -43.8236 32.1487
v  1000.0001 -42.0831 32.4109
v  -1000.0002 -42.0831 32.4109
v  1000.0001 -40.3339 32.5307
v  -1000.0002 -40.3339 32.5307
v  1000.0001 -38.3740 32.4762
v  -1000.0002 -38.3740 32.4762
v  1000.0001 -36.4967 32.1664
v  -1000.0002 -36.4967 32.1664
v  1000.0001 -34.9888 31.6402
v  -1000.0002 -34.9888 31.6402
v  1000.0001 -33.5927 30.7754
v  -1000.0002 -33.5927 30.7754
v  1000.0001 -32.4510 29.5609
v  -1000.0002 -32.4510 29.5609
v  1000.0001 -31.5769 27.9534
v  -1000.0002 -31.5769 27.9534
v  1000.0001 -31.1122 26.1653
v  -1000.0002 -31.1122 26.1653
v  1000.0001 -31.1158 24.4261
v  -1000.0002 -31.1158 24.4261
v  1000.0001 -31.4996 22.7848
v  -1000.0002 -31.4996 22.7848
v  1000.0001 -32.0437 21.2753
v  -1000.0002 -32.0437 21.2753
v  1000.0001 -32.5313 19.9965
v  -1000.0002 -32.5313 19.9965
v  1000.0001 -32.9242 18.9463
v  -1000.0002 -32.9242 18.9463
v  1000.0001 -33.2296 17.9849
v  -1000.0002 -33.2296 17.9849
v  1000.0001 -33.3634 17.3179
v  -1000.0002 -33.3634 17.3179
v  1000.0001 -33.4265 16.6172
v  -1000.0002 -33.4265 16.6172
v  1000.0001 -33.3527 15.8791
v  -1000.0002 -33.3527 15.8791
v  1000.0001 -33.1248 15.3707
v  -1000.0002 -33.1248 15.3707
v  1000.0001 -32.7184 15.0125
v  -1000.0002 -32.7184 15.0125
v  1000.0001 -32.1278 14.7674
v  -1000.0002 -32.1278 14.7674
v  1000.0001 -30.9829 14.5960
v  -1000.0002 -30.9829 14.5960
v  1000.0001 -29.4869 14.5698
v  -1000.0002 -29.4869 14.5698
v  1000.0001 -28.4674 14.6356
v  -1000.0002 -28.4674 14.6356
v  1000.0001 -27.4536 14.7735
v  -1000.0002 -27.4536 14.7735
v  1000.0001 -26.1263 15.0254
v  -1000.0002 -26.1263 15.0254
v  1000.0001 -24.1049 15.4795
v  -1000.0002 -24.1049 15.4795
v  1000.0001 -21.3173 16.1490
v  -1000.0002 -21.3173 16.1490
# 460 vertices

vn 0.0000 -1.0000 0.0000
vn 0.0000 -0.9975 0.0701
vn 0.0000 -0.9337 0.3580
vn 0.0000 -0.6705 0.7419
vn 0.0000 -0.3182 0.9480
vn 0.0000 -0.0807 0.9967
vn 0.0000 -0.0297 0.9996
vn 0.0000 -0.0953 0.9954
vn 0.0000 -0.2394 0.9709
vn 0.0000 -0.4788 0.8779
vn 0.0000 -0.7202 0.6938
vn 0.0000 -0.8484 0.5294
vn 0.0000 -0.8572 0.5150
vn 0.0000 -0.7619 0.6477
vn 0.0000 -0.5094 0.8605
vn 0.0000 -0.1186 0.9929
vn -0.0000 0.1387 0.9903
vn -0.0000 0.0712 0.9975
vn -0.0000 -0.1659 0.9861
vn -0.0000 -0.3608 0.9327
vn -0.0000 -0.4773 0.8788
vn -0.0000 -0.5421 0.8403
vn 0.0000 -0.5705 0.8213
vn 0.0000 -0.5553 0.8316
vn 0.0000 -0.4999 0.8661
vn 0.0000 -0.4161 0.9093
vn 0.0000 -0.3159 0.9488
vn 0.0000 -0.1799 0.9837
vn 0.0000 -0.0120 0.9999
vn 0.0000 0.1263 0.9920
vn 0.0000 0.2314 0.9728
vn 0.0000 0.3295 0.9442
vn 0.0000 0.2674 0.9636
vn 0.0000 -0.1195 0.9928
vn 0.0000 -0.6215 0.7834
vn 0.0000 -0.8776 0.4793
vn 0.0000 -0.9147 0.4041
vn 0.0000 -0.8707 0.4918
vn 0.0000 -0.8031 0.5959
vn -0.0000 -0.7140 0.7002
vn -0.0000 -0.6074 0.7944
vn -0.0000 -0.4577 0.8891
vn -0.0000 -0.2242 0.9745
vn -0.0000 0.0669 0.9978
vn -0.0000 0.3499 0.9368
vn -0.0000 0.5689 0.8224
vn -0.0000 0.7036 0.7106
vn 0.0000 0.7933 0.6088
vn 0.0000 0.8666 0.4991
vn 0.0000 0.8525 0.5228
vn 0.0000 0.6671 0.7449
vn 0.0000 0.2744 0.9616
vn -0.0000 -0.2927 0.9562
vn -0.0000 -0.6995 0.7147
vn -0.0000 -0.8229 0.5682
vn 0.0000 -0.8789 0.4770
vn 0.0000 -0.6841 0.7294
vn 0.0000 -0.4353 0.9003
vn 0.0000 -0.4286 0.9035
vn 0.0000 -0.5935 0.8048
vn 0.0000 -0.7821 0.6232
vn 0.0000 -0.9025 0.4307
vn 0.0000 -0.9352 0.3540
vn 0.0000 -0.8705 0.4922
vn 0.0000 -0.7535 0.6574
vn 0.0000 -0.6277 0.7784
vn 0.0000 -0.3495 0.9369
vn 0.0000 -0.0427 0.9991
vn 0.0000 0.0430 0.9991
vn 0.0000 0.1184 0.9930
vn 0.0000 0.3925 0.9198
vn 0.0000 0.7121 0.7021
vn 0.0000 0.9252 0.3795
vn 0.0000 0.9953 0.0972
vn 0.0000 1.0000 -0.0000
vn 0.0000 0.0000 -1.0000
vn 0.0000 -0.1396 -0.9902
vn 0.0000 -0.5317 -0.8469
vn 0.0000 -0.7755 -0.6313
vn 0.0000 -0.6796 -0.7336
vn 0.0000 -0.3651 -0.9310
vn 0.0000 -0.0000 -1.0000
vn 0.0000 0.3651 -0.9310
vn 0.0000 0.6797 -0.7335
vn 0.0000 0.7755 -0.6314
vn 0.0000 0.5316 -0.8470
vn 0.0000 0.1396 -0.9902
vn 0.0000 -0.1252 -0.9921
vn 0.0000 -0.4811 -0.8767
vn 0.0000 -0.8434 -0.5373
vn 0.0000 -0.9979 -0.0655
vn 0.0000 -0.9521 0.3059
vn 0.0000 -0.9763 0.2164
vn 0.0000 -0.9890 -0.1479
vn 0.0000 -0.8292 -0.5589
vn 0.0000 -0.3761 -0.9266
vn 0.0000 0.2055 -0.9787
vn 0.0000 0.6062 -0.7953
vn 0.0000 0.6681 -0.7440
vn 0.0000 0.5046 -0.8634
vn 0.0000 0.3126 -0.9499
vn 0.0000 0.2293 -0.9734
vn 0.0000 0.1858 -0.9826
vn 0.0000 0.2434 -0.9699
vn 0.0000 0.5436 -0.8393
vn 0.0000 0.8658 -0.5004
vn 0.0000 0.9855 -0.1694
vn 0.0000 0.9840 -0.1782
vn 0.0000 0.8479 -0.5302
vn 0.0000 0.4850 -0.8745
vn 0.0000 0.1265 -0.9920
vn 0.0000 -0.1265 -0.9920
vn 0.0000 -0.4850 -0.8745
vn 0.0000 -0.8479 -0.5302
vn 0.0000 -0.9840 -0.1782
vn 0.0000 -0.9858 -0.1681
vn 0.0000 -0.8685 -0.4956
vn 0.0000 -0.5532 -0.8331
vn 0.0000 -0.2476 -0.9689
vn 0.0000 -0.1953 -0.9807
vn 0.0000 -0.3281 -0.9447
vn 0.0000 -0.5077 -0.8615
vn 0.0000 -0.7130 -0.7012
vn 0.0000 -0.8994 -0.4371
vn 0.0000 -0.9891 -0.1475
vn -0.0000 -0.9958 0.0921
vn -0.0000 -0.9652 0.2615
vn -0.0000 -0.9443 0.3291
vn -0.0000 -0.9877 0.1561
vn -0.0000 -0.9606 -0.2778
vn -0.0000 -0.7068 -0.7074
vn 0.0000 -0.3169 -0.9484
vn 0.0000 0.0588 -0.9983
vn -0.0000 0.3096 -0.9509
vn -0.0000 0.4524 -0.8918
vn 0.0000 0.5718 -0.8204
vn -0.0000 0.6771 -0.7359
vn -0.0000 0.7586 -0.6516
vn 0.0000 0.7612 -0.6485
vn 0.0000 0.6756 -0.7373
vn 0.0000 0.5756 -0.8178
vn 0.0000 0.4632 -0.8862
vn 0.0000 0.4124 -0.9110
vn 0.0000 0.5655 -0.8247
vn 0.0000 0.7877 -0.6160
vn 0.0000 0.9366 -0.3503
vn 0.0000 0.9917 -0.1284
vn 0.0000 0.4851 -0.8745
vn 0.0000 0.1266 -0.9920
vn 0.0000 -0.8481 -0.5298
vn 0.0000 -0.9841 -0.1777
vn 0.0000 -0.9822 -0.1880
vn 0.0000 -0.8257 -0.5641
vn 0.0000 -0.4120 -0.9112
vn 0.0000 -0.0146 -0.9999
vn 0.0000 0.0530 -0.9986
vn 0.0000 -0.1539 -0.9881
vn 0.0000 -0.3240 -0.9461
vn 0.0000 -0.2841 -0.9588
vn 0.0000 -0.1174 -0.9931
vn 0.0000 0.0812 -0.9967
vn 0.0000 0.2867 -0.9580
vn 0.0000 0.4485 -0.8938
vn 0.0000 0.5427 -0.8400
vn 0.0000 0.5677 -0.8232
vn 0.0000 0.5317 -0.8469
vn 0.0000 0.4511 -0.8925
vn 0.0000 0.3715 -0.9284
vn 0.0000 0.4303 -0.9027
vn 0.0000 0.4555 -0.8903
vn 0.0000 0.2669 -0.9637
vn 0.0000 0.0676 -0.9977
vn 0.0000 -0.1397 -0.9902
vn 0.0000 -0.5317 -0.8470
vn 0.0000 -0.7755 -0.6314
vn 0.0000 -0.6797 -0.7335
vn 0.0000 0.6798 -0.7334
vn 0.0000 0.7754 -0.6314
vn 0.0000 0.5314 -0.8471
vn -0.0000 -0.7944 0.6074
vn -0.0000 -0.4979 0.8672
vn 0.0000 -0.7719 0.6358
vn 0.0000 -0.7429 0.6694
vn 0.0000 -0.7123 0.7018
vn 0.0000 -0.6799 0.7333
vn 0.0000 -0.6451 0.7641
vn -0.0000 -0.6070 0.7947
vn -0.0000 -0.5663 0.8242
vn -0.0000 -0.5236 0.8520
vn -0.0000 -0.4786 0.8780
vn -0.0000 -0.4308 0.9025
vn -0.0000 -0.3788 0.9255
vn -0.0000 -0.3207 0.9472
vn -0.0000 -0.2564 0.9666
vn -0.0000 -0.1860 0.9826
vn -0.0000 -0.1087 0.9941
vn -0.0000 -0.0203 0.9998
vn -0.0000 0.0955 0.9954
vn -0.0000 0.2471 0.9690
vn -0.0000 0.4306 0.9025
vn -0.0000 0.6330 0.7741
vn -0.0000 0.8102 0.5861
vn -0.0000 0.9301 0.3674
vn -0.0000 0.9921 0.1257
vn 0.0000 0.9933 -0.1156
vn 0.0000 0.9589 -0.2839
vn 0.0000 0.9376 -0.3477
vn 0.0000 0.9355 -0.3533
vn 0.0000 0.9451 -0.3267
vn 0.0000 0.9682 -0.2501
vn 0.0000 0.9897 -0.1434
vn 0.0000 1.0000 0.0049
vn -0.0000 0.9662 0.2576
vn -0.0000 0.8051 0.5931
vn -0.0000 0.5294 0.8484
vn -0.0000 0.2677 0.9635
vn -0.0000 0.0830 0.9966
vn -0.0000 -0.0235 0.9997
vn -0.0000 -0.0997 0.9950
vn -0.0000 -0.1607 0.9870
vn -0.0000 -0.2028 0.9792
vn -0.0000 -0.2264 0.9740
vn -0.0000 -0.2474 0.9689
vn -1.0000 0.0000 -0.0000
vn 1.0000 0.0000 -0.0000
# 225 vertex normals

vt 100.5000 2.1265 -5.4500
vt -99.5000 2.1265 -5.4500
vt -99.5000 1.5775 -5.4500
vt 100.5000 1.5775 -5.4500
vt -99.5000 1.5533 -5.4466
vt 100.5000 1.5533 -5.4466
vt -99.5000 1.5375 -5.4359
vt 100.5000 1.5375 -5.4359
vt -99.5000 -5.4359 1.5375
vt 100.5000 -5.4359 1.5375
vt 100.5000 -5.4205 1.5292
vt -99.5000 -5.4205 1.5293
vt 100.5000 -5.4105 1.5276
vt -99.5000 -5.4105 1.5277
vt -99.5000 -5.0451 1.5259
vt 100.5000 -5.0451 1.5258
vt 100.5000 -4.7271 1.5085
vt -99.5000 -4.7271 1.5086
vt 100.5000 -4.1649 1.4312
vt -99.5000 -4.1649 1.4313
vt 100.5000 -4.1078 1.4106
vt -99.5000 -4.1078 1.4106
vt 100.5000 -4.0595 1.3737
vt -99.5000 -4.0595 1.3738
vt 100.5000 1.3738 -4.0595
vt -99.5000 1.3737 -4.0595
vt -99.5000 1.3241 -4.0245
vt 100.5000 1.3241 -4.0245
vt -99.5000 1.2131 -3.9636
vt 100.5000 1.2131 -3.9636
vt -99.5000 1.1072 -3.8942
vt 100.5000 1.1073 -3.8942
vt -99.5000 -3.8942 1.1073
vt 100.5000 -3.8942 1.1072
vt 100.5000 -3.8790 1.0933
vt -99.5000 -3.8790 1.0933
vt 100.5000 -3.8594 1.0867
vt -99.5000 -3.8594 1.0867
vt 100.5000 -3.8389 1.0885
vt -99.5000 -3.8389 1.0886
vt 100.5000 -3.6112 1.1321
vt -99.5000 -3.6112 1.1322
vt 100.5000 -3.4075 1.1226
vt -99.5000 -3.4075 1.1226
vt 100.5000 -3.1950 1.0600
vt -99.5000 -3.1950 1.0600
vt 100.5000 -3.0728 1.0007
vt -99.5000 -3.0728 1.0007
vt 100.5000 -2.9353 0.9176
vt -99.5000 -2.9353 0.9177
vt 100.5000 -2.7792 0.8102
vt -99.5000 -2.7792 0.8103
vt 100.5000 -2.6091 0.6910
vt -99.5000 -2.6091 0.6910
vt 100.5000 -2.4520 0.5912
vt -99.5000 -2.4520 0.5912
vt 100.5000 -2.3120 0.5181
vt -99.5000 -2.3120 0.5181
vt 100.5000 -2.1866 0.4684
vt -99.5000 -2.1866 0.4685
vt 100.5000 -2.0694 0.4365
vt -99.5000 -2.0694 0.4366
vt 100.5000 -1.8348 0.4140
vt -99.5000 -1.8348 0.4140
vt 100.5000 -1.7096 0.4230
vt -99.5000 -1.7096 0.4230
vt 100.5000 -1.5733 0.4480
vt -99.5000 -1.5733 0.4480
vt 100.5000 -1.4213 0.4927
vt -99.5000 -1.4213 0.4927
vt 100.5000 -1.2482 0.5629
vt -99.5000 -1.2482 0.5630
vt 100.5000 -1.2243 0.5667
vt -99.5000 -1.2243 0.5667
vt 100.5000 -1.2020 0.5574
vt -99.5000 -1.2020 0.5574
vt 100.5000 0.5574 -1.2020
vt -99.5000 0.5574 -1.2020
vt -99.5000 0.5377 -1.1878
vt 100.5000 0.5378 -1.1878
vt -99.5000 0.4019 -1.1343
vt 100.5000 0.4019 -1.1343
vt -99.5000 0.2958 -1.0822
vt 100.5000 0.2959 -1.0822
vt -99.5000 0.2152 -1.0303
vt 100.5000 0.2152 -1.0303
vt -99.5000 0.1538 -0.9781
vt 100.5000 0.1538 -0.9781
vt -99.5000 -0.9781 0.1538
vt 100.5000 -0.9781 0.1538
vt 100.5000 -0.9232 0.1052
vt -99.5000 -0.9232 0.1053
vt 100.5000 -0.8628 0.0655
vt -99.5000 -0.8628 0.0656
vt 100.5000 -0.7275 0.0130
vt -99.5000 -0.7275 0.0131
vt 100.5000 -0.5965 0.0022
vt -99.5000 -0.5965 0.0023
vt 100.5000 -0.4614 0.0319
vt -99.5000 -0.4614 0.0320
vt 100.5000 -0.3333 0.1017
vt -99.5000 -0.3333 0.1017
vt 100.5000 -0.2751 0.1518
vt -99.5000 -0.2751 0.1519
vt -99.5000 0.1519 -0.2751
vt 100.5000 0.1518 -0.2751
vt 100.5000 0.2142 -0.2202
vt -99.5000 0.2143 -0.2202
vt 100.5000 0.2898 -0.1698
vt -99.5000 0.2899 -0.1698
vt 100.5000 0.3870 -0.1220
vt -99.5000 0.3871 -0.1220
vt 100.5000 0.4116 -0.1036
vt -99.5000 0.4117 -0.1036
vt -99.5000 -0.1036 0.4117
vt 100.5000 -0.1036 0.4116
vt 100.5000 -0.0898 0.4198
vt -99.5000 -0.0898 0.4198
vt 100.5000 -0.0736 0.4201
vt -99.5000 -0.0736 0.4202
vt 100.5000 -0.0527 0.4052
vt -99.5000 -0.0527 0.4053
vt 100.5000 0.4439 4.5079
vt -99.5000 0.4438 4.5079
vt -99.5000 0.1596 4.6335
vt 100.5000 0.1597 4.6335
vt -99.5000 0.1423 4.6448
vt 100.5000 0.1423 4.6448
vt -99.5000 4.6448 0.1423
vt 100.5000 4.6448 0.1423
vt 100.5000 4.6617 0.1328
vt -99.5000 4.6617 0.1328
vt 100.5000 4.9874 0.0003
vt -99.5000 4.9874 0.0003
vt 100.5000 4.9971 -0.0050
vt -99.5000 4.9971 -0.0050
vt 100.5000 5.0055 -0.0131
vt -99.5000 5.0055 -0.0131
vt 100.5000 -0.0131 5.0055
vt -99.5000 -0.0131 5.0055
vt -99.5000 -0.3569 5.2143
vt 100.5000 -0.3568 5.2143
vt -99.5000 -0.7354 5.3502
vt 100.5000 -0.7354 5.3502
vt -99.5000 -0.7455 5.3542
vt 100.5000 -0.7454 5.3542
vt -99.5000 -0.7541 5.3607
vt 100.5000 -0.7540 5.3607
vt -99.5000 -0.8984 5.5049
vt 100.5000 -0.8983 5.5049
vt -99.5000 5.5049 -0.8983
vt 100.5000 5.5049 -0.8984
vt 100.5000 5.5192 -0.9076
vt -99.5000 5.5192 -0.9075
vt 100.5000 5.5360 -0.9100
vt -99.5000 5.5360 -0.9100
vt 100.5000 5.9435 -0.8866
vt -99.5000 5.9435 -0.8865
vt 100.5000 6.3514 -0.8749
vt -99.5000 6.3514 -0.8749
vt 100.5000 6.3892 -0.8669
vt -99.5000 6.3892 -0.8669
vt 100.5000 6.4212 -0.8451
vt -99.5000 6.4212 -0.8451
vt -99.5000 -0.8451 6.4212
vt 100.5000 -0.8451 6.4212
vt 100.5000 -0.8129 6.4425
vt -99.5000 -0.8128 6.4425
vt 100.5000 -0.7749 6.4500
vt -99.5000 -0.7749 6.4500
vt 100.5000 2.1265 6.4500
vt -99.5000 2.1266 6.4500
vt 100.5000 6.4500 2.1266
vt -99.5000 6.4500 2.1265
vt -99.5000 6.1571 2.1265
vt 100.5000 6.1571 2.1266
vt -99.5000 6.1305 2.1189
vt 100.5000 6.1305 2.1189
vt 100.5000 2.1189 6.1305
vt -99.5000 2.1189 6.1305
vt -99.5000 2.0983 6.1121
vt 100.5000 2.0983 6.1121
vt -99.5000 2.0445 6.0724
vt 100.5000 2.0445 6.0724
vt 100.5000 6.0724 2.0445
vt -99.5000 6.0724 2.0445
vt -99.5000 6.0157 2.0089
vt 100.5000 6.0157 2.0090
vt -99.5000 5.9500 1.9965
vt 100.5000 5.9500 1.9966
vt -99.5000 5.8843 2.0089
vt 100.5000 5.8843 2.0090
vt -99.5000 5.8276 2.0445
vt 100.5000 5.8276 2.0445
vt -99.5000 2.0445 5.8276
vt 100.5000 2.0445 5.8276
vt 100.5000 2.0983 5.7879
vt -99.5000 2.0983 5.7879
vt 100.5000 2.1189 5.7695
vt -99.5000 2.1189 5.7695
vt 100.5000 5.7695 2.1189
vt -99.5000 5.7695 2.1189
vt -99.5000 5.7429 2.1265
vt 100.5000 5.7429 2.1266
vt -99.5000 5.4285 2.1265
vt 100.5000 5.4285 2.1266
vt -99.5000 5.4044 2.1204
vt 100.5000 5.4044 2.1204
vt -99.5000 5.3863 2.1034
vt 100.5000 5.3863 2.1034
vt 100.5000 2.1034 5.3863
vt -99.5000 2.1034 5.3863
vt -99.5000 2.0798 5.3786
vt 100.5000 2.0798 5.3786
vt -99.5000 2.0554 5.3832
vt 100.5000 2.0554 5.3832
vt -99.5000 1.2687 5.7500
vt 100.5000 1.2688 5.7500
vt -99.5000 0.3799 5.7500
vt 100.5000 0.3800 5.7500
vt -99.5000 0.3660 5.7457
vt 100.5000 0.3660 5.7457
vt 100.5000 5.7457 0.3660
vt -99.5000 5.7457 0.3660
vt -99.5000 5.7344 0.3568
vt 100.5000 5.7344 0.3568
vt -99.5000 5.7199 0.3555
vt 100.5000 5.7199 0.3555
vt -99.5000 5.7071 0.3625
vt 100.5000 5.7071 0.3626
vt -99.5000 0.3626 5.7071
vt 100.5000 0.3625 5.7071
vt 100.5000 1.0159 5.0716
vt -99.5000 1.0159 5.0716
vt 100.5000 5.0716 1.0159
vt -99.5000 5.0716 1.0159
vt -99.5000 4.8912 1.1572
vt 100.5000 4.8912 1.1572
vt -99.5000 4.6795 1.2451
vt 100.5000 4.6795 1.2451
vt -99.5000 4.2825 1.3431
vt 100.5000 4.2825 1.3432
vt -99.5000 3.9450 1.4188
vt 100.5000 3.9450 1.4188
vt -99.5000 3.6865 1.4587
vt 100.5000 3.6865 1.4588
vt -99.5000 3.6644 1.4665
vt 100.5000 3.6644 1.4665
vt -99.5000 1.4665 3.6644
vt 100.5000 1.4665 3.6644
vt 100.5000 1.4834 3.6483
vt -99.5000 1.4835 3.6483
vt 100.5000 1.5058 3.6417
vt -99.5000 1.5059 3.6417
vt 100.5000 2.0028 3.6156
vt -99.5000 2.0029 3.6156
vt 100.5000 2.0148 3.6118
vt -99.5000 2.0148 3.6118
vt 100.5000 3.6118 2.0148
vt -99.5000 3.6118 2.0148
vt -99.5000 3.6028 2.0234
vt 100.5000 3.6028 2.0234
vt -99.5000 3.5906 2.0265
vt 100.5000 3.5906 2.0265
vt -99.5000 3.3081 2.0265
vt 100.5000 3.3081 2.0265
vt -99.5000 3.2960 2.0234
vt 100.5000 3.2960 2.0234
vt -99.5000 3.2869 2.0148
vt 100.5000 3.2869 2.0148
vt 100.5000 2.0148 3.2869
vt -99.5000 2.0148 3.2869
vt -99.5000 2.0028 3.2831
vt 100.5000 2.0029 3.2831
vt -99.5000 1.5053 3.2570
vt 100.5000 1.5053 3.2570
vt -99.5000 1.4831 3.2505
vt 100.5000 1.4832 3.2505
vt -99.5000 1.4663 3.2348
vt 100.5000 1.4663 3.2348
vt 100.5000 3.2348 1.4663
vt -99.5000 3.2348 1.4663
vt -99.5000 3.2131 1.4583
vt 100.5000 3.2131 1.4583
vt -99.5000 3.1352 1.4467
vt 100.5000 3.1352 1.4468
vt 100.5000 2.9731 1.4061
vt -99.5000 2.9731 1.4060
vt -99.5000 2.7939 1.3254
vt 100.5000 2.7939 1.3255
vt -99.5000 2.5884 1.1717
vt 100.5000 2.5884 1.1717
vt 100.5000 1.1717 2.5884
vt -99.5000 1.1717 2.5884
vt -99.5000 0.9156 2.4034
vt 100.5000 0.9157 2.4034
vt -99.5000 0.6411 2.3248
vt 100.5000 0.6411 2.3248
vt -99.5000 0.3150 2.3192
vt 100.5000 0.3151 2.3192
vt -99.5000 0.0722 2.3688
vt 100.5000 0.0722 2.3688
vt -99.5000 -0.0988 2.4269
vt 100.5000 -0.0988 2.4269
vt -99.5000 -0.1920 2.4602
vt 100.5000 -0.1920 2.4602
vt -99.5000 -0.2449 2.4587
vt 100.5000 -0.2448 2.4587
vt -99.5000 -0.2904 2.4318
vt 100.5000 -0.2904 2.4318
vt 100.5000 2.4318 -0.2904
vt -99.5000 2.4318 -0.2904
vt -99.5000 2.3862 -0.3173
vt 100.5000 2.3862 -0.3172
vt -99.5000 2.3465 -0.3217
vt 100.5000 2.3465 -0.3217
vt -99.5000 1.9769 -0.2352
vt 100.5000 1.9769 -0.2351
vt -99.5000 1.7151 -0.1247
vt 100.5000 1.7151 -0.1246
vt -99.5000 1.4297 0.0462
vt 100.5000 1.4297 0.0463
vt -99.5000 1.0487 0.3529
vt 100.5000 1.0487 0.3530
vt -99.5000 0.3530 1.0487
vt 100.5000 0.3529 1.0487
vt 100.5000 0.6381 0.7772
vt -99.5000 0.6382 0.7772
vt 100.5000 0.8986 0.5757
vt -99.5000 0.8987 0.5757
vt 100.5000 1.0147 0.4669
vt -99.5000 1.0147 0.4669
vt 100.5000 0.4669 1.0147
vt -99.5000 0.4669 1.0147
vt -99.5000 0.3979 1.0689
vt 100.5000 0.3979 1.0689
vt -99.5000 0.3231 1.1159
vt 100.5000 0.3231 1.1159
vt -99.5000 0.1601 1.1852
vt 100.5000 0.1601 1.1853
vt -99.5000 0.1464 1.1918
vt 100.5000 0.1464 1.1919
vt -99.5000 0.1353 1.2023
vt 100.5000 0.1353 1.2023
vt -99.5000 1.2023 0.1353
vt 100.5000 1.2023 0.1353
vt 100.5000 1.2155 0.1278
vt -99.5000 1.2156 0.1278
vt 100.5000 1.2304 0.1247
vt -99.5000 1.2305 0.1247
vt 100.5000 2.0028 0.0842
vt -99.5000 2.0029 0.0842
vt 100.5000 2.0148 0.0805
vt -99.5000 2.0148 0.0805
vt 100.5000 0.0805 2.0148
vt -99.5000 0.0805 2.0148
vt -99.5000 0.0714 2.0234
vt 100.5000 0.0714 2.0234
vt -99.5000 0.0593 2.0265
vt 100.5000 0.0593 2.0265
vt -99.5000 -0.2233 2.0265
vt 100.5000 -0.2233 2.0265
vt -99.5000 -0.2354 2.0234
vt 100.5000 -0.2354 2.0234
vt -99.5000 -0.2445 2.0148
vt 100.5000 -0.2445 2.0148
vt 100.5000 2.0148 -0.2445
vt -99.5000 2.0148 -0.2445
vt -99.5000 2.0028 -0.2482
vt 100.5000 2.0029 -0.2482
vt -99.5000 1.2746 -0.2864
vt 100.5000 1.2747 -0.2864
vt -99.5000 1.2491 -0.2951
vt 100.5000 1.2491 -0.2951
vt 100.5000 -0.2951 1.2491
vt -99.5000 -0.2951 1.2491
vt -99.5000 -0.3158 1.2317
vt 100.5000 -0.3158 1.2317
vt -99.5000 -0.3424 1.2276
vt 100.5000 -0.3424 1.2277
vt -99.5000 -1.2587 1.3401
vt 100.5000 -1.2587 1.3402
vt -99.5000 -1.4241 1.3374
vt 100.5000 -1.4241 1.3375
vt -99.5000 -1.5826 1.2897
vt 100.5000 -1.5826 1.2897
vt 100.5000 -1.7235 1.2356
vt -99.5000 -1.7235 1.2355
vt -99.5000 -1.8145 1.2162
vt 100.5000 -1.8145 1.2162
vt -99.5000 -1.8734 1.2147
vt 100.5000 -1.8734 1.2147
vt -99.5000 -1.9244 1.2244
vt 100.5000 -1.9244 1.2244
vt -99.5000 -2.0009 1.2561
vt 100.5000 -2.0009 1.2561
vt -99.5000 -2.1316 1.3340
vt 100.5000 -2.1316 1.3340
vt -99.5000 -2.3121 1.4600
vt 100.5000 -2.3121 1.4601
vt -99.5000 -2.5251 1.6050
vt 100.5000 -2.5251 1.6051
vt -99.5000 -2.7477 1.7336
vt 100.5000 -2.7477 1.7336
vt -99.5000 -2.9692 1.8305
vt 100.5000 -2.9692 1.8305
vt -99.5000 -3.6889 2.0924
vt 100.5000 -3.6889 2.0924
vt -99.5000 -3.7338 2.1194
vt 100.5000 -3.7338 2.1194
vt -99.5000 -3.7462 2.1247
vt 100.5000 -3.7462 2.1247
vt -99.5000 -3.7596 2.1265
vt 100.5000 -3.7596 2.1266
vt -99.5000 -4.3907 2.1265
vt 100.5000 -4.3907 2.1266
vt -99.5000 -4.4173 2.1189
vt 100.5000 -4.4173 2.1189
vt 100.5000 2.1189 -4.4173
vt -99.5000 2.1189 -4.4173
vt -99.5000 2.0982 -4.4358
vt 100.5000 2.0983 -4.4358
vt -99.5000 2.0445 -4.4755
vt 100.5000 2.0445 -4.4755
vt 100.5000 -4.4755 2.0445
vt -99.5000 -4.4755 2.0445
vt -99.5000 -4.5322 2.0089
vt 100.5000 -4.5322 2.0090
vt -99.5000 -4.5979 1.9965
vt 100.5000 -4.5979 1.9966
vt -99.5000 -4.6636 2.0089
vt 100.5000 -4.6636 2.0090
vt -99.5000 -4.7202 2.0445
vt 100.5000 -4.7202 2.0445
vt -99.5000 2.0445 -4.7202
vt 100.5000 2.0445 -4.7202
vt 100.5000 2.0982 -4.7599
vt -99.5000 2.0983 -4.7599
vt 100.5000 2.1189 -4.7784
vt -99.5000 2.1189 -4.7784
vt 100.5000 -4.7784 2.1189
vt -99.5000 -4.7784 2.1189
vt -99.5000 -4.8050 2.1265
vt 100.5000 -4.8050 2.1265
vt -99.5000 -5.4500 2.1265
vt 100.5000 -5.4500 2.1265
vt 100.5000 0.2938 0.0302
vt 100.5000 0.4053 -0.0527
vt -99.5000 0.4052 -0.0527
vt -99.5000 0.2937 0.0302
vt -99.5000 4.4848 0.4666
vt 100.5000 4.4848 0.4665
vt 100.5000 4.5079 0.4438
vt -99.5000 4.5079 0.4439
vt -99.5000 0.1471 0.1456
vt 100.5000 0.1471 0.1456
vt -99.5000 0.0062 0.2670
vt 100.5000 0.0063 0.2670
vt -99.5000 -0.1278 0.3932
vt 100.5000 -0.1277 0.3932
vt -99.5000 0.3932 -0.1277
vt 100.5000 0.3932 -0.1278
vt 100.5000 0.5235 -0.2542
vt -99.5000 0.5235 -0.2542
vt 100.5000 0.6593 -0.3745
vt -99.5000 0.6593 -0.3745
vt 100.5000 0.8077 -0.4939
vt -99.5000 0.8077 -0.4938
vt 100.5000 0.9584 -0.6032
vt -99.5000 0.9584 -0.6031
vt 100.5000 1.1099 -0.7017
vt -99.5000 1.1099 -0.7016
vt 100.5000 1.2617 -0.7897
vt -99.5000 1.2617 -0.7896
vt 100.5000 1.4164 -0.8688
vt -99.5000 1.4164 -0.8688
vt 100.5000 1.5797 -0.9413
vt -99.5000 1.5797 -0.9413
vt 100.5000 1.7384 -1.0009
vt -99.5000 1.7384 -1.0008
vt 100.5000 1.9036 -1.0509
vt -99.5000 1.9036 -1.0509
vt 100.5000 2.0676 -1.0884
vt -99.5000 2.0676 -1.0883
vt 100.5000 2.2417 -1.1146
vt -99.5000 2.2417 -1.1145
vt 100.5000 2.4166 -1.1266
vt -99.5000 2.4166 -1.1265
vt 100.5000 2.6126 -1.1211
vt -99.5000 2.6126 -1.1211
vt 100.5000 2.8003 -1.0901
vt -99.5000 2.8003 -1.0901
vt 100.5000 2.9511 -1.0375
vt -99.5000 2.9511 -1.0375
vt 100.5000 3.0907 -0.9510
vt -99.5000 3.0907 -0.9510
vt -99.5000 -0.9510 3.0907
vt 100.5000 -0.9510 3.0907
vt 100.5000 -0.8296 3.2049
vt -99.5000 -0.8295 3.2049
vt 100.5000 -0.6688 3.2923
vt -99.5000 -0.6688 3.2923
vt 100.5000 -0.4900 3.3388
vt -99.5000 -0.4900 3.3388
vt 100.5000 -0.3161 3.3384
vt -99.5000 -0.3161 3.3384
vt 100.5000 -0.1520 3.3000
vt -99.5000 -0.1519 3.3000
vt 100.5000 -0.0010 3.2456
vt -99.5000 -0.0010 3.2456
vt 100.5000 0.1269 3.1969
vt -99.5000 0.1269 3.1969
vt 100.5000 0.2319 3.1576
vt -99.5000 0.2319 3.1576
vt 100.5000 0.3280 3.1270
vt -99.5000 0.3281 3.1270
vt 100.5000 0.3947 3.1136
vt -99.5000 0.3948 3.1136
vt 100.5000 0.4648 3.1073
vt -99.5000 0.4648 3.1073
vt 100.5000 0.5386 3.1147
vt -99.5000 0.5386 3.1147
vt 100.5000 0.5894 3.1375
vt -99.5000 0.5895 3.1375
vt -99.5000 3.1375 0.5895
vt 100.5000 3.1375 0.5894
vt 100.5000 3.1781 0.6253
vt -99.5000 3.1781 0.6253
vt 100.5000 3.2372 0.6498
vt -99.5000 3.2372 0.6498
vt 100.5000 3.3517 0.6669
vt -99.5000 3.3517 0.6669
vt 100.5000 3.5013 0.6695
vt -99.5000 3.5013 0.6696
vt 100.5000 3.6032 0.6629
vt -99.5000 3.6032 0.6630
vt 100.5000 3.7046 0.6492
vt -99.5000 3.7046 0.6492
vt 100.5000 3.8374 0.6240
vt -99.5000 3.8374 0.6240
vt 100.5000 4.0395 0.5786
vt -99.5000 4.0395 0.5786
vt 100.5000 4.3183 0.5116
vt -99.5000 4.3183 0.5116
vt -1.1189 -4.7784 -99.5000
vt -1.1265 -4.8050 -99.5000
vt -1.1265 -5.4500 -99.5000
vt -0.5775 -5.4500 -99.5000
vt -0.5533 -5.4466 -99.5000
vt -1.0265 3.5906 -99.5000
vt -1.0265 3.3081 -99.5000
vt -1.0234 3.2960 -99.5000
vt -1.0234 3.6028 -99.5000
vt -1.0148 3.2869 -99.5000
vt -1.0148 3.6118 -99.5000
vt -1.0029 3.2831 -99.5000
vt -1.0029 3.6156 -99.5000
vt -0.5053 3.2570 -99.5000
vt -0.5059 3.6417 -99.5000
vt -0.4832 3.2505 -99.5000
vt -0.4835 3.6483 -99.5000
vt -0.4663 3.2348 -99.5000
vt -0.4665 3.6644 -99.5000
vt -0.4583 3.2131 -99.5000
vt -0.4588 3.6865 -99.5000
vt -1.1266 5.7429 -99.5000
vt -1.1266 5.4285 -99.5000
vt -1.1204 5.4044 -99.5000
vt -1.1189 5.7695 -99.5000
vt -1.1034 5.3863 -99.5000
vt -1.0983 5.7879 -99.5000
vt -1.0798 5.3786 -99.5000
vt -1.0445 5.8276 -99.5000
vt -1.0554 5.3832 -99.5000
vt -1.0090 5.8843 -99.5000
vt -1.1266 6.4500 -99.5000
vt -1.1266 6.1571 -99.5000
vt -1.1189 6.1305 -99.5000
vt -1.0445 6.0724 -99.5000
vt -1.0090 6.0157 -99.5000
vt 0.6200 5.7500 -99.5000
vt 1.7749 6.4500 -99.5000
vt 1.8749 6.3514 -99.5000
vt 1.8669 6.3892 -99.5000
vt 0.6445 5.7199 -99.5000
vt 0.6374 5.7071 -99.5000
vt 0.6340 5.7457 -99.5000
vt 1.8128 6.4425 -99.5000
vt 0.6432 5.7344 -99.5000
vt 1.8451 6.4212 -99.5000
vt -0.9966 5.9500 -99.5000
vt -0.2688 5.7500 -99.5000
vt -1.0983 6.1121 -99.5000
vt 1.8865 5.9435 -99.5000
vt 1.9075 5.5192 -99.5000
vt 1.9100 5.5360 -99.5000
vt 1.8983 5.5049 -99.5000
vt 1.7540 5.3607 -99.5000
vt 1.7454 5.3542 -99.5000
vt 1.7354 5.3502 -99.5000
vt 1.3568 5.2143 -99.5000
vt 1.0131 5.0055 -99.5000
vt 1.0050 4.9971 -99.5000
vt 0.9997 4.9874 -99.5000
vt -0.0159 5.0716 -99.5000
vt 0.8577 4.6448 -99.5000
vt 0.8672 4.6617 -99.5000
vt 0.8403 4.6335 -99.5000
vt 0.5334 4.4848 -99.5000
vt 0.5561 4.5079 -99.5000
vt -0.1572 4.8912 -99.5000
vt -0.2451 4.6795 -99.5000
vt 0.4884 4.3183 -99.5000
vt -0.3432 4.2825 -99.5000
vt 0.4214 4.0395 -99.5000
vt 0.3508 3.7046 -99.5000
vt 0.3760 3.8374 -99.5000
vt -0.4188 3.9450 -99.5000
vt 0.3304 3.5013 -99.5000
vt 0.3370 3.6032 -99.5000
vt 0.3331 3.3517 -99.5000
vt 0.3502 3.2372 -99.5000
vt -0.4468 3.1352 -99.5000
vt -0.4061 2.9731 -99.5000
vt 0.3747 3.1781 -99.5000
vt -0.3255 2.7939 -99.5000
vt 0.4105 3.1375 -99.5000
vt -0.1717 2.5884 -99.5000
vt 0.4614 3.1147 -99.5000
vt 0.0843 2.4034 -99.5000
vt 0.5352 3.1073 -99.5000
vt 0.3589 2.3248 -99.5000
vt 0.6052 3.1136 -99.5000
vt 0.6849 2.3192 -99.5000
vt 0.6719 3.1270 -99.5000
vt 0.9278 2.3688 -99.5000
vt 0.7681 3.1576 -99.5000
vt 1.0988 2.4269 -99.5000
vt 0.8731 3.1969 -99.5000
vt 1.1920 2.4602 -99.5000
vt 1.0010 3.2456 -99.5000
vt 1.1519 3.3000 -99.5000
vt 1.3161 3.3384 -99.5000
vt 1.4900 3.3388 -99.5000
vt 1.2448 2.4587 -99.5000
vt 1.6688 3.2923 -99.5000
vt 1.8295 3.2049 -99.5000
vt 2.0375 2.9511 -99.5000
vt 1.9510 3.0907 -99.5000
vt 1.2904 2.4318 -99.5000
vt 2.0901 2.8003 -99.5000
vt 2.1211 2.6126 -99.5000
vt 1.3172 2.3862 -99.5000
vt 2.1145 2.2417 -99.5000
vt 2.1265 2.4166 -99.5000
vt 1.3217 2.3465 -99.5000
vt 2.0883 2.0676 -99.5000
vt 2.0008 1.7384 -99.5000
vt 2.0509 1.9036 -99.5000
vt 1.2351 1.9769 -99.5000
vt 1.9413 1.5797 -99.5000
vt 1.1246 1.7151 -99.5000
vt 1.8688 1.4164 -99.5000
vt 1.7016 1.1099 -99.5000
vt 1.7896 1.2617 -99.5000
vt 0.9537 1.4297 -99.5000
vt 1.6031 0.9584 -99.5000
vt 1.3745 0.6593 -99.5000
vt 1.4938 0.8077 -99.5000
vt 0.6470 1.0487 -99.5000
vt 1.2542 0.5235 -99.5000
vt 0.3618 0.7772 -99.5000
vt 1.1277 0.3932 -99.5000
vt 0.1013 0.5757 -99.5000
vt 0.9937 0.2670 -99.5000
vt -0.0147 0.4669 -99.5000
vt 0.8529 0.1456 -99.5000
vt -0.0689 0.3979 -99.5000
vt 0.7062 0.0302 -99.5000
vt -0.1159 0.3231 -99.5000
vt -1.0265 0.0593 -99.5000
vt -1.0265 -0.2233 -99.5000
vt -1.0234 -0.2354 -99.5000
vt -1.0234 0.0714 -99.5000
vt -1.0148 -0.2445 -99.5000
vt -1.0148 0.0805 -99.5000
vt -1.0029 -0.2482 -99.5000
vt -1.0029 0.0842 -99.5000
vt -0.2747 -0.2864 -99.5000
vt -0.2305 0.1247 -99.5000
vt -0.2491 -0.2951 -99.5000
vt -0.2156 0.1278 -99.5000
vt -0.2023 0.1353 -99.5000
vt -0.2317 -0.3158 -99.5000
vt -0.1919 0.1464 -99.5000
vt -0.2277 -0.3424 -99.5000
vt 0.5947 -0.0527 -99.5000
vt -0.1853 0.1601 -99.5000
vt 0.5798 -0.0736 -99.5000
vt 0.5883 -0.1036 -99.5000
vt 0.5802 -0.0898 -99.5000
vt 0.6129 -0.1220 -99.5000
vt 0.7101 -0.1698 -99.5000
vt 0.7857 -0.2202 -99.5000
vt 0.8481 -0.2751 -99.5000
vt 0.8983 -0.3333 -99.5000
vt 0.9680 -0.4614 -99.5000
vt 0.9977 -0.5965 -99.5000
vt 0.9869 -0.7275 -99.5000
vt 0.9344 -0.8628 -99.5000
vt 0.8947 -0.9232 -99.5000
vt 0.8462 -0.9781 -99.5000
vt 0.7848 -1.0303 -99.5000
vt 0.7041 -1.0822 -99.5000
vt 0.5981 -1.1343 -99.5000
vt 0.4622 -1.1878 -99.5000
vt 0.4426 -1.2020 -99.5000
vt -0.3402 -1.2587 -99.5000
vt 0.4333 -1.2243 -99.5000
vt 0.4370 -1.2482 -99.5000
vt -0.3375 -1.4241 -99.5000
vt -0.2897 -1.5826 -99.5000
vt 0.5073 -1.4213 -99.5000
vt -0.2356 -1.7235 -99.5000
vt 0.5520 -1.5733 -99.5000
vt -0.2162 -1.8145 -99.5000
vt 0.5770 -1.7096 -99.5000
vt 0.5860 -1.8348 -99.5000
vt -0.2147 -1.8734 -99.5000
vt 0.5634 -2.0694 -99.5000
vt -0.2244 -1.9244 -99.5000
vt 0.5315 -2.1866 -99.5000
vt -0.2561 -2.0009 -99.5000
vt 0.4819 -2.3120 -99.5000
vt -0.3340 -2.1316 -99.5000
vt 0.4088 -2.4520 -99.5000
vt 0.1897 -2.7792 -99.5000
vt 0.3090 -2.6091 -99.5000
vt -0.4601 -2.3121 -99.5000
vt -0.0007 -3.0728 -99.5000
vt 0.0823 -2.9353 -99.5000
vt -0.6051 -2.5251 -99.5000
vt -0.7336 -2.7477 -99.5000
vt -0.0600 -3.1950 -99.5000
vt -0.8305 -2.9692 -99.5000
vt -0.1226 -3.4075 -99.5000
vt -0.1322 -3.6112 -99.5000
vt -1.0924 -3.6889 -99.5000
vt -0.5375 -5.4359 -99.5000
vt -0.5293 -5.4205 -99.5000
vt -1.0983 -4.7599 -99.5000
vt -0.5277 -5.4105 -99.5000
vt -0.5259 -5.0451 -99.5000
vt -1.0445 -4.7202 -99.5000
vt -1.0090 -4.6636 -99.5000
vt -0.5086 -4.7271 -99.5000
vt -0.9966 -4.5979 -99.5000
vt -0.4313 -4.1649 -99.5000
vt -1.0090 -4.5322 -99.5000
vt -1.0983 -4.4358 -99.5000
vt -1.0445 -4.4755 -99.5000
vt -0.4106 -4.1078 -99.5000
vt -1.1189 -4.4173 -99.5000
vt -1.1266 -4.3907 -99.5000
vt -0.3738 -4.0595 -99.5000
vt -1.1266 -3.7596 -99.5000
vt -0.3241 -4.0245 -99.5000
vt -0.2131 -3.9636 -99.5000
vt -1.1247 -3.7462 -99.5000
vt -0.1073 -3.8942 -99.5000
vt -0.0933 -3.8790 -99.5000
vt -1.1194 -3.7338 -99.5000
vt -0.0867 -3.8594 -99.5000
vt -0.0886 -3.8389 -99.5000
vt 2.1265 -5.4500 100.5000
vt 2.1265 -4.8050 100.5000
vt 2.1189 -4.7784 100.5000
vt 1.5533 -5.4466 100.5000
vt 1.5775 -5.4500 100.5000
vt 2.0265 3.5906 100.5000
vt 2.0234 3.6028 100.5000
vt 2.0234 3.2960 100.5000
vt 2.0265 3.3081 100.5000
vt 2.0148 3.6118 100.5000
vt 2.0148 3.2869 100.5000
vt 2.0028 3.6156 100.5000
vt 2.0028 3.2831 100.5000
vt 1.5058 3.6417 100.5000
vt 1.5053 3.2570 100.5000
vt 1.4834 3.6483 100.5000
vt 1.4831 3.2505 100.5000
vt 1.4665 3.6644 100.5000
vt 1.4663 3.2348 100.5000
vt 1.4587 3.6865 100.5000
vt 1.4583 3.2131 100.5000
vt 2.1265 5.7429 100.5000
vt 2.1189 5.7695 100.5000
vt 2.1204 5.4044 100.5000
vt 2.1265 5.4285 100.5000
vt 2.0983 5.7879 100.5000
vt 2.1034 5.3863 100.5000
vt 2.0445 5.8276 100.5000
vt 2.0798 5.3786 100.5000
vt 2.0089 5.8843 100.5000
vt 2.0554 5.3832 100.5000
vt 2.1265 6.4500 100.5000
vt 2.1189 6.1305 100.5000
vt 2.1265 6.1571 100.5000
vt 2.0445 6.0724 100.5000
vt -0.7749 6.4500 100.5000
vt 0.3799 5.7500 100.5000
vt 2.0089 6.0157 100.5000
vt -0.8749 6.3514 100.5000
vt 0.3625 5.7071 100.5000
vt 0.3555 5.7199 100.5000
vt -0.8669 6.3892 100.5000
vt -0.8129 6.4425 100.5000
vt 0.3660 5.7457 100.5000
vt -0.8451 6.4212 100.5000
vt 0.3568 5.7344 100.5000
vt 1.9965 5.9500 100.5000
vt 1.2687 5.7500 100.5000
vt 2.0983 6.1121 100.5000
vt -0.8866 5.9435 100.5000
vt -0.9076 5.5192 100.5000
vt -0.9100 5.5360 100.5000
vt -0.8984 5.5049 100.5000
vt -0.7541 5.3607 100.5000
vt -0.7455 5.3542 100.5000
vt -0.7354 5.3502 100.5000
vt -0.3569 5.2143 100.5000
vt -0.0131 5.0055 100.5000
vt -0.0050 4.9971 100.5000
vt 0.0003 4.9874 100.5000
vt 1.0159 5.0716 100.5000
vt 0.1423 4.6448 100.5000
vt 0.1328 4.6617 100.5000
vt 0.1596 4.6335 100.5000
vt 0.4665 4.4848 100.5000
vt 1.1572 4.8912 100.5000
vt 0.4438 4.5079 100.5000
vt 0.5116 4.3183 100.5000
vt 1.2451 4.6795 100.5000
vt 0.5786 4.0395 100.5000
vt 1.3431 4.2825 100.5000
vt 0.6492 3.7046 100.5000
vt 1.4188 3.9450 100.5000
vt 0.6240 3.8374 100.5000
vt 0.6695 3.5013 100.5000
vt 0.6629 3.6032 100.5000
vt 0.6669 3.3517 100.5000
vt 0.6498 3.2372 100.5000
vt 1.4467 3.1352 100.5000
vt 0.6253 3.1781 100.5000
vt 1.4060 2.9731 100.5000
vt 0.5894 3.1375 100.5000
vt 1.3254 2.7939 100.5000
vt 0.5386 3.1147 100.5000
vt 1.1717 2.5884 100.5000
vt 0.4648 3.1073 100.5000
vt 0.9156 2.4034 100.5000
vt 0.3947 3.1136 100.5000
vt 0.6411 2.3248 100.5000
vt 0.3280 3.1270 100.5000
vt 0.3150 2.3192 100.5000
vt 0.2319 3.1576 100.5000
vt 0.0722 2.3688 100.5000
vt 0.1269 3.1969 100.5000
vt -0.0988 2.4269 100.5000
vt -0.0010 3.2456 100.5000
vt -0.1920 2.4602 100.5000
vt -0.1520 3.3000 100.5000
vt -0.3161 3.3384 100.5000
vt -0.4900 3.3388 100.5000
vt -0.2449 2.4587 100.5000
vt -0.6688 3.2923 100.5000
vt -0.8296 3.2049 100.5000
vt -1.0375 2.9511 100.5000
vt -0.2904 2.4318 100.5000
vt -0.9510 3.0907 100.5000
vt -1.0901 2.8003 100.5000
vt -1.1211 2.6126 100.5000
vt -0.3173 2.3862 100.5000
vt -1.1146 2.2417 100.5000
vt -1.1266 2.4166 100.5000
vt -1.0884 2.0676 100.5000
vt -0.3217 2.3465 100.5000
vt -1.0009 1.7384 100.5000
vt -0.2352 1.9769 100.5000
vt -1.0509 1.9036 100.5000
vt -0.9413 1.5797 100.5000
vt -0.1247 1.7151 100.5000
vt -0.8688 1.4164 100.5000
vt -0.7017 1.1099 100.5000
vt 0.0462 1.4297 100.5000
vt -0.7897 1.2617 100.5000
vt -0.6032 0.9584 100.5000
vt -0.3745 0.6593 100.5000
vt 0.3529 1.0487 100.5000
vt -0.4939 0.8077 100.5000
vt -0.2542 0.5235 100.5000
vt 0.6381 0.7772 100.5000
vt -0.1278 0.3932 100.5000
vt 0.8986 0.5757 100.5000
vt 0.0062 0.2670 100.5000
vt 1.0147 0.4669 100.5000
vt 0.1471 0.1456 100.5000
vt 1.0689 0.3979 100.5000
vt 0.2937 0.0302 100.5000
vt 1.1159 0.3231 100.5000
vt 2.0265 0.0593 100.5000
vt 2.0234 0.0714 100.5000
vt 2.0234 -0.2354 100.5000
vt 2.0265 -0.2233 100.5000
vt 2.0148 0.0805 100.5000
vt 2.0148 -0.2445 100.5000
vt 2.0028 0.0842 100.5000
vt 2.0028 -0.2482 100.5000
vt 1.2304 0.1247 100.5000
vt 1.2746 -0.2864 100.5000
vt 1.2155 0.1278 100.5000
vt 1.2491 -0.2951 100.5000
vt 1.2023 0.1353 100.5000
vt 1.2317 -0.3158 100.5000
vt 1.1918 0.1464 100.5000
vt 1.2276 -0.3424 100.5000
vt 0.4052 -0.0527 100.5000
vt 1.1852 0.1601 100.5000
vt 0.4201 -0.0736 100.5000
vt 0.4116 -0.1036 100.5000
vt 0.4198 -0.0898 100.5000
vt 0.3870 -0.1220 100.5000
vt 0.2898 -0.1698 100.5000
vt 0.2142 -0.2202 100.5000
vt 0.1518 -0.2751 100.5000
vt 0.1017 -0.3333 100.5000
vt 0.0319 -0.4614 100.5000
vt 0.0022 -0.5965 100.5000
vt 0.0130 -0.7275 100.5000
vt 0.0655 -0.8628 100.5000
vt 0.1052 -0.9232 100.5000
vt 0.1538 -0.9781 100.5000
vt 0.2152 -1.0303 100.5000
vt 0.2958 -1.0822 100.5000
vt 0.4019 -1.1343 100.5000
vt 0.5377 -1.1878 100.5000
vt 0.5574 -1.2020 100.5000
vt 0.5667 -1.2243 100.5000
vt 1.3401 -1.2587 100.5000
vt 0.5629 -1.2482 100.5000
vt 1.3374 -1.4241 100.5000
vt 0.4927 -1.4213 100.5000
vt 1.2897 -1.5826 100.5000
vt 0.4480 -1.5733 100.5000
vt 1.2355 -1.7235 100.5000
vt 0.4230 -1.7096 100.5000
vt 1.2162 -1.8145 100.5000
vt 0.4140 -1.8348 100.5000
vt 1.2147 -1.8734 100.5000
vt 0.4365 -2.0694 100.5000
vt 1.2244 -1.9244 100.5000
vt 0.4684 -2.1866 100.5000
vt 1.2561 -2.0009 100.5000
vt 0.5181 -2.3120 100.5000
vt 1.3340 -2.1316 100.5000
vt 0.5912 -2.4520 100.5000
vt 0.8102 -2.7792 100.5000
vt 1.4600 -2.3121 100.5000
vt 0.6910 -2.6091 100.5000
vt 1.0007 -3.0728 100.5000
vt 1.6050 -2.5251 100.5000
vt 0.9176 -2.9353 100.5000
vt 1.0600 -3.1950 100.5000
vt 1.7336 -2.7477 100.5000
vt 1.1226 -3.4075 100.5000
vt 1.8305 -2.9692 100.5000
vt 1.1321 -3.6112 100.5000
vt 2.0924 -3.6889 100.5000
vt 1.5375 -5.4359 100.5000
vt 1.5292 -5.4205 100.5000
vt 2.0982 -4.7599 100.5000
vt 1.5276 -5.4105 100.5000
vt 1.5258 -5.0451 100.5000
vt 2.0445 -4.7202 100.5000
vt 2.0089 -4.6636 100.5000
vt 1.5085 -4.7271 100.5000
vt 1.9965 -4.5979 100.5000
vt 2.0089 -4.5322 100.5000
vt 1.4312 -4.1649 100.5000
vt 2.0445 -4.4755 100.5000
vt 2.0982 -4.4358 100.5000
vt 2.1189 -4.4173 100.5000
vt 1.4106 -4.1078 100.5000
vt 2.1265 -4.3907 100.5000
vt 2.1265 -3.7596 100.5000
vt 1.3737 -4.0595 100.5000
vt 1.3241 -4.0245 100.5000
vt 1.2131 -3.9636 100.5000
vt 2.1247 -3.7462 100.5000
vt 1.1072 -3.8942 100.5000
vt 2.1194 -3.7338 100.5000
vt 1.0933 -3.8790 100.5000
vt 1.0867 -3.8594 100.5000
vt 1.0885 -3.8389 100.5000
# 1004 texture coords

g OracDecor_DX170_2300_decorative_element
s 2
f 1/1/1 2/2/1 3/3/2 4/4/2 
f 4/4/2 3/3/2 5/5/3 6/6/3 
f 6/6/3 5/5/3 7/7/4 8/8/4 
f 8/9/4 7/10/4 9/11/5 10/12/5 
f 10/12/5 9/11/5 11/13/6 12/14/6 
f 13/15/7 12/14/6 11/13/6 14/16/7 
f 13/15/7 14/16/7 15/17/8 16/18/8 
f 16/18/8 15/17/8 17/19/9 18/20/9 
f 18/20/9 17/19/9 19/21/10 20/22/10 
f 20/22/10 19/21/10 21/23/11 22/24/11 
f 22/25/11 21/26/11 23/27/12 24/28/12 
f 24/28/12 23/27/12 25/29/13 26/30/13 
f 26/30/13 25/29/13 27/31/14 28/32/14 
f 28/33/14 27/34/14 29/35/15 30/36/15 
f 30/36/15 29/35/15 31/37/16 32/38/16 
f 32/38/16 31/37/16 33/39/17 34/40/17 
f 34/40/17 33/39/17 35/41/18 36/42/18 
f 36/42/18 35/41/18 37/43/19 38/44/19 
f 38/44/19 37/43/19 39/45/20 40/46/20 
f 40/46/20 39/45/20 41/47/21 42/48/21 
f 42/48/21 41/47/21 43/49/22 44/50/22 
f 44/50/22 43/49/22 45/51/23 46/52/23 
f 46/52/23 45/51/23 47/53/24 48/54/24 
f 48/54/24 47/53/24 49/55/25 50/56/25 
f 50/56/25 49/55/25 51/57/26 52/58/26 
f 52/58/26 51/57/26 53/59/27 54/60/27 
f 54/60/27 53/59/27 55/61/28 56/62/28 
f 56/62/28 55/61/28 57/63/29 58/64/29 
f 58/64/29 57/63/29 59/65/30 60/66/30 
f 60/66/30 59/65/30 61/67/31 62/68/31 
f 62/68/31 61/67/31 63/69/32 64/70/32 
f 64/70/32 63/69/32 65/71/33 66/72/33 
f 66/72/33 65/71/33 67/73/34 68/74/34 
f 68/74/34 67/73/34 69/75/35 70/76/35 
f 70/77/35 69/78/35 71/79/36 72/80/36 
f 72/80/36 71/79/36 73/81/37 74/82/37 
f 74/82/37 73/81/37 75/83/38 76/84/38 
f 76/84/38 75/83/38 77/85/39 78/86/39 
f 78/86/39 77/85/39 79/87/40 80/88/40 
f 80/89/40 79/90/40 81/91/41 82/92/41 
f 82/92/41 81/91/41 83/93/42 84/94/42 
f 84/94/42 83/93/42 85/95/43 86/96/43 
f 86/96/43 85/95/43 87/97/44 88/98/44 
f 88/98/44 87/97/44 89/99/45 90/100/45 
f 90/100/45 89/99/45 91/101/46 92/102/46 
f 92/102/46 91/101/46 93/103/47 94/104/47 
f 94/105/47 93/106/47 95/107/48 96/108/48 
f 96/108/48 95/107/48 97/109/49 98/110/49 
f 98/110/49 97/109/49 99/111/50 100/112/50 
f 100/112/50 99/111/50 101/113/51 102/114/51 
f 102/115/51 101/116/51 103/117/52 104/118/52 
f 104/118/52 103/117/52 105/119/53 106/120/53 
f 106/120/53 105/119/53 107/121/54 108/122/54 
f 109/123/55 110/124/55 111/125/56 112/126/56 
f 112/126/56 111/125/56 113/127/57 114/128/57 
f 114/129/57 113/130/57 115/131/58 116/132/58 
f 116/132/58 115/131/58 117/133/59 118/134/59 
f 118/134/59 117/133/59 119/135/60 120/136/60 
f 120/136/60 119/135/60 121/137/61 122/138/61 
f 122/139/61 121/140/61 123/141/62 124/142/62 
f 124/142/62 123/141/62 125/143/63 126/144/63 
f 126/144/63 125/143/63 127/145/64 128/146/64 
f 128/146/64 127/145/64 129/147/65 130/148/65 
f 130/148/65 129/147/65 131/149/66 132/150/66 
f 132/151/66 131/152/66 133/153/67 134/154/67 
f 134/154/67 133/153/67 135/155/68 136/156/68 
f 136/156/68 135/155/68 137/157/69 138/158/69 
f 138/158/69 137/157/69 139/159/70 140/160/70 
f 140/160/70 139/159/70 141/161/71 142/162/71 
f 142/162/71 141/161/71 143/163/72 144/164/72 
f 144/165/72 143/166/72 145/167/73 146/168/73 
f 146/168/73 145/167/73 147/169/74 148/170/74 
f 148/170/74 147/169/74 149/171/75 150/172/75 
s 4
f 150/173/76 149/174/76 151/175/77 152/176/77 
f 152/176/77 151/175/77 153/177/78 154/178/78 
f 154/179/78 153/180/78 155/181/79 156/182/79 
f 156/182/79 155/181/79 157/183/80 158/184/80 
f 158/185/80 157/186/80 159/187/81 160/188/81 
f 160/188/81 159/187/81 161/189/82 162/190/82 
f 162/190/82 161/189/82 163/191/83 164/192/83 
f 164/192/83 163/191/83 165/193/84 166/194/84 
f 166/195/84 165/196/84 167/197/85 168/198/85 
f 168/198/85 167/197/85 169/199/86 170/200/86 
f 170/201/86 169/202/86 171/203/87 172/204/87 
f 172/204/87 171/203/87 173/205/88 174/206/88 
f 174/206/88 173/205/88 175/207/89 176/208/89 
f 176/208/89 175/207/89 177/209/90 178/210/90 
f 178/211/90 177/212/90 179/213/91 180/214/91 
f 180/214/91 179/213/91 181/215/92 182/216/92 
f 182/216/92 181/215/92 183/217/93 184/218/93 
f 184/218/93 183/217/93 185/219/94 186/220/94 
f 186/220/94 185/219/94 187/221/95 188/222/95 
f 188/223/95 187/224/95 189/225/96 190/226/96 
f 190/226/96 189/225/96 191/227/97 192/228/97 
f 192/228/97 191/227/97 193/229/98 194/230/98 
f 194/231/98 193/232/98 195/233/99 196/234/99 
f 196/235/99 195/236/99 197/237/100 198/238/100 
f 198/238/100 197/237/100 199/239/101 200/240/101 
f 200/240/101 199/239/101 201/241/102 202/242/102 
f 202/242/102 201/241/102 203/243/103 204/244/103 
f 204/244/103 203/243/103 205/245/104 206/246/104 
f 206/246/104 205/245/104 207/247/105 208/248/105 
f 208/249/105 207/250/105 209/251/106 210/252/106 
f 210/252/106 209/251/106 211/253/107 212/254/107 
f 212/254/107 211/253/107 213/255/108 214/256/108 
f 214/256/108 213/255/108 215/257/109 216/258/109 
f 216/259/109 215/260/109 217/261/110 218/262/110 
f 218/262/110 217/261/110 219/263/111 220/264/111 
f 220/264/111 219/263/111 221/265/112 222/266/112 
f 222/266/112 221/265/112 223/267/113 224/268/113 
f 224/268/113 223/267/113 225/269/114 226/270/114 
f 226/271/114 225/272/114 227/273/115 228/274/115 
f 228/274/115 227/273/115 229/275/116 230/276/116 
f 230/276/116 229/275/116 231/277/117 232/278/117 
f 232/278/117 231/277/117 233/279/118 234/280/118 
f 234/281/118 233/282/118 235/283/119 236/284/119 
f 236/284/119 235/283/119 237/285/120 238/286/120 
f 239/287/121 238/286/120 237/285/120 240/288/121 
f 239/287/121 240/288/121 241/289/122 242/290/122 
f 242/290/122 241/289/122 243/291/123 244/292/123 
f 244/293/123 243/294/123 245/295/124 246/296/124 
f 246/296/124 245/295/124 247/297/125 248/298/125 
f 248/298/125 247/297/125 249/299/126 250/300/126 
f 250/300/126 249/299/126 251/301/127 252/302/127 
f 252/302/127 251/301/127 253/303/128 254/304/128 
f 254/304/128 253/303/128 255/305/129 256/306/129 
f 256/306/129 255/305/129 257/307/130 258/308/130 
f 258/308/130 257/307/130 259/309/131 260/310/131 
f 260/311/131 259/312/131 261/313/132 262/314/132 
f 262/314/132 261/313/132 263/315/133 264/316/133 
f 264/316/133 263/315/133 265/317/134 266/318/134 
f 266/318/134 265/317/134 267/319/135 268/320/135 
f 268/320/135 267/319/135 269/321/136 270/322/136 
f 270/322/136 269/321/136 271/323/137 272/324/137 
f 272/325/137 271/326/137 273/327/138 274/328/138 
f 274/328/138 273/327/138 275/329/139 276/330/139 
f 276/330/139 275/329/139 277/331/140 278/332/140 
f 278/333/140 277/334/140 279/335/141 280/336/141 
f 280/336/141 279/335/141 281/337/142 282/338/142 
f 282/338/142 281/337/142 283/339/143 284/340/143 
f 284/340/143 283/339/143 285/341/144 286/342/144 
f 286/342/144 285/341/144 287/343/145 288/344/145 
f 288/345/145 287/346/145 289/347/146 290/348/146 
f 290/348/146 289/347/146 291/349/147 292/350/147 
f 292/350/147 291/349/147 293/351/108 294/352/108 
f 294/352/108 293/351/108 295/353/109 296/354/109 
f 296/355/109 295/356/109 297/357/148 298/358/148 
f 298/358/148 297/357/148 299/359/149 300/360/149 
f 300/360/149 299/359/149 301/361/112 302/362/112 
f 302/362/112 301/361/112 303/363/113 304/364/113 
f 304/364/113 303/363/113 305/365/150 306/366/150 
f 306/367/150 305/368/150 307/369/151 308/370/151 
f 308/370/151 307/369/151 309/371/152 310/372/152 
f 310/372/152 309/371/152 311/373/153 312/374/153 
f 312/375/153 311/376/153 313/377/154 314/378/154 
f 314/378/154 313/377/154 315/379/155 316/380/155 
f 316/380/155 315/379/155 317/381/156 318/382/156 
f 318/382/156 317/381/156 319/383/157 320/384/157 
f 320/384/157 319/383/157 321/385/158 322/386/158 
f 323/387/159 322/386/158 321/385/158 324/388/159 
f 323/387/159 324/388/159 325/389/160 326/390/160 
f 326/390/160 325/389/160 327/391/161 328/392/161 
f 328/392/161 327/391/161 329/393/162 330/394/162 
f 330/394/162 329/393/162 331/395/163 332/396/163 
f 332/396/163 331/395/163 333/397/164 334/398/164 
f 334/398/164 333/397/164 335/399/165 336/400/165 
f 336/400/165 335/399/165 337/401/166 338/402/166 
f 338/402/166 337/401/166 339/403/167 340/404/167 
f 340/404/167 339/403/167 341/405/168 342/406/168 
f 342/406/168 341/405/168 343/407/169 344/408/169 
f 344/408/169 343/407/169 345/409/170 346/410/170 
f 346/410/170 345/409/170 347/411/171 348/412/171 
f 348/412/171 347/411/171 349/413/172 350/414/172 
f 350/414/172 349/413/172 351/415/173 352/416/173 
f 352/416/173 351/415/173 353/417/174 354/418/174 
f 354/419/174 353/420/174 355/421/175 356/422/175 
f 356/422/175 355/421/175 357/423/176 358/424/176 
f 358/425/176 357/426/176 359/427/81 360/428/81 
f 360/428/81 359/427/81 361/429/82 362/430/82 
f 362/430/82 361/429/82 363/431/83 364/432/83 
f 364/432/83 363/431/83 365/433/177 366/434/177 
f 366/435/177 365/436/177 367/437/178 368/438/178 
f 368/438/178 367/437/178 369/439/179 370/440/179 
f 370/441/179 369/442/179 371/443/87 372/444/87 
f 372/444/87 371/443/87 2/445/76 1/446/76 
s 2
f 373/447/180 108/448/54 107/449/54 374/450/180 
f 375/451/181 376/452/181 110/453/55 109/454/55 
f 373/447/180 374/450/180 377/455/182 378/456/182 
f 378/456/182 377/455/182 379/457/183 380/458/183 
f 380/458/183 379/457/183 381/459/184 382/460/184 
f 382/461/184 381/462/184 383/463/185 384/464/185 
f 384/464/185 383/463/185 385/465/186 386/466/186 
f 386/466/186 385/465/186 387/467/187 388/468/187 
f 388/468/187 387/467/187 389/469/188 390/470/188 
f 390/470/188 389/469/188 391/471/189 392/472/189 
f 392/472/189 391/471/189 393/473/190 394/474/190 
f 394/474/190 393/473/190 395/475/191 396/476/191 
f 396/476/191 395/475/191 397/477/192 398/478/192 
f 398/478/192 397/477/192 399/479/193 400/480/193 
f 400/480/193 399/479/193 401/481/194 402/482/194 
f 402/482/194 401/481/194 403/483/195 404/484/195 
f 404/484/195 403/483/195 405/485/196 406/486/196 
f 406/486/196 405/485/196 407/487/197 408/488/197 
f 408/488/197 407/487/197 409/489/198 410/490/198 
f 410/490/198 409/489/198 411/491/199 412/492/199 
f 412/492/199 411/491/199 413/493/200 414/494/200 
f 414/494/200 413/493/200 415/495/201 416/496/201 
f 416/497/201 415/498/201 417/499/202 418/500/202 
f 418/500/202 417/499/202 419/501/203 420/502/203 
f 420/502/203 419/501/203 421/503/204 422/504/204 
f 422/504/204 421/503/204 423/505/205 424/506/205 
f 424/506/205 423/505/205 425/507/206 426/508/206 
f 426/508/206 425/507/206 427/509/207 428/510/207 
f 428/510/207 427/509/207 429/511/208 430/512/208 
f 430/512/208 429/511/208 431/513/209 432/514/209 
f 432/514/209 431/513/209 433/515/210 434/516/210 
f 434/516/210 433/515/210 435/517/211 436/518/211 
f 436/518/211 435/517/211 437/519/212 438/520/212 
f 438/520/212 437/519/212 439/521/213 440/522/213 
f 440/522/213 439/521/213 441/523/214 442/524/214 
f 442/525/214 441/526/214 443/527/215 444/528/215 
f 444/528/215 443/527/215 445/529/216 446/530/216 
f 446/530/216 445/529/216 447/531/217 448/532/217 
f 448/532/217 447/531/217 449/533/218 450/534/218 
f 450/534/218 449/533/218 451/535/219 452/536/219 
f 452/536/219 451/535/219 453/537/220 454/538/220 
f 454/538/220 453/537/220 455/539/221 456/540/221 
f 456/540/221 455/539/221 457/541/222 458/542/222 
f 458/542/222 457/541/222 459/543/223 460/544/223 
f 460/544/223 459/543/223 376/452/181 375/451/181 
s off
f 370/545/224 372/546/224 1/547/224 4/548/224 6/549/224 
f 220/550/224 222/551/224 224/552/224 218/553/224 
f 218/553/224 224/552/224 226/554/224 216/555/224 
f 216/555/224 226/554/224 228/556/224 214/557/224 
f 214/557/224 228/556/224 230/558/224 212/559/224 
f 212/559/224 230/558/224 232/560/224 210/561/224 
f 210/561/224 232/560/224 234/562/224 208/563/224 
f 208/563/224 234/562/224 236/564/224 206/565/224 
f 172/566/224 174/567/224 176/568/224 170/569/224 
f 170/569/224 176/568/224 178/570/224 168/571/224 
f 168/571/224 178/570/224 180/572/224 166/573/224 
f 166/573/224 180/572/224 182/574/224 164/575/224 
f 150/576/224 152/577/224 154/578/224 
f 158/579/224 160/580/224 186/581/224 148/582/224 
f 140/583/224 142/584/224 192/585/224 194/586/224 
f 148/582/224 186/581/224 188/587/224 146/588/224 
f 146/588/224 188/587/224 190/589/224 144/590/224 
f 144/590/224 190/589/224 192/585/224 142/584/224 
f 162/591/224 164/575/224 182/574/224 184/592/224 
f 160/580/224 162/591/224 184/592/224 186/581/224 
f 150/576/224 154/578/224 156/593/224 
f 150/576/224 156/593/224 158/579/224 
f 148/582/224 150/576/224 158/579/224 
f 138/594/224 140/583/224 194/586/224 
f 134/595/224 136/596/224 194/586/224 
f 136/596/224 138/594/224 194/586/224 
f 132/597/224 134/595/224 194/586/224 
f 130/598/224 132/597/224 194/586/224 
f 128/599/224 130/598/224 194/586/224 
f 126/600/224 128/599/224 194/586/224 
f 124/601/224 126/600/224 194/586/224 
f 122/602/224 124/601/224 194/586/224 
f 120/603/224 122/602/224 194/586/224 
f 118/604/224 120/603/224 194/586/224 196/605/224 
f 114/606/224 116/607/224 196/605/224 
f 116/607/224 118/604/224 196/605/224 
f 112/608/224 114/606/224 196/605/224 
f 375/609/224 109/610/224 198/611/224 
f 109/610/224 112/608/224 196/605/224 198/611/224 
f 375/609/224 198/611/224 200/612/224 460/613/224 
f 460/613/224 200/612/224 202/614/224 458/615/224 
f 454/616/224 456/617/224 204/618/224 
f 458/615/224 202/614/224 204/618/224 456/617/224 
f 450/619/224 452/620/224 206/565/224 
f 454/616/224 204/618/224 206/565/224 452/620/224 
f 450/619/224 206/565/224 236/564/224 448/621/224 
f 446/622/224 448/621/224 236/564/224 238/623/224 
f 446/622/224 238/623/224 239/624/224 444/625/224 
f 444/625/224 239/624/224 242/626/224 442/627/224 
f 442/627/224 242/626/224 244/628/224 440/629/224 
f 440/629/224 244/628/224 246/630/224 438/631/224 
f 438/631/224 246/630/224 248/632/224 436/633/224 
f 436/633/224 248/632/224 250/634/224 434/635/224 
f 434/635/224 250/634/224 252/636/224 432/637/224 
f 432/637/224 252/636/224 254/638/224 430/639/224 
f 430/639/224 254/638/224 256/640/224 428/641/224 
f 426/642/224 428/641/224 256/640/224 
f 424/643/224 426/642/224 256/640/224 
f 422/644/224 424/643/224 256/640/224 258/645/224 
f 420/646/224 422/644/224 258/645/224 
f 418/647/224 420/646/224 258/645/224 
f 414/648/224 416/649/224 260/650/224 
f 418/647/224 258/645/224 260/650/224 416/649/224 
f 412/651/224 414/648/224 260/650/224 
f 410/652/224 412/651/224 260/650/224 262/653/224 
f 406/654/224 408/655/224 262/653/224 
f 408/655/224 410/652/224 262/653/224 
f 406/654/224 262/653/224 264/656/224 404/657/224 
f 400/658/224 402/659/224 266/660/224 
f 402/659/224 404/657/224 264/656/224 266/660/224 
f 398/661/224 400/658/224 266/660/224 268/662/224 
f 396/663/224 398/661/224 268/662/224 
f 392/664/224 394/665/224 270/666/224 
f 394/665/224 396/663/224 268/662/224 270/666/224 
f 390/667/224 392/664/224 270/666/224 
f 386/668/224 388/669/224 272/670/224 
f 388/669/224 390/667/224 270/666/224 272/670/224 
f 384/671/224 386/668/224 272/670/224 274/672/224 
f 382/673/224 384/671/224 274/672/224 276/674/224 
f 380/675/224 382/673/224 276/674/224 278/676/224 
f 378/677/224 380/675/224 278/676/224 280/678/224 
f 373/679/224 378/677/224 280/678/224 282/680/224 
f 300/681/224 302/682/224 304/683/224 298/684/224 
f 298/684/224 304/683/224 306/685/224 296/686/224 
f 296/686/224 306/685/224 308/687/224 294/688/224 
f 294/688/224 308/687/224 310/689/224 292/690/224 
f 292/690/224 310/689/224 312/691/224 290/692/224 
f 288/693/224 290/692/224 312/691/224 314/694/224 
f 286/695/224 288/693/224 314/694/224 316/696/224 
f 108/697/224 373/679/224 282/680/224 284/698/224 
f 106/699/224 108/697/224 284/698/224 286/695/224 
f 102/700/224 104/701/224 316/696/224 
f 104/701/224 106/699/224 286/695/224 316/696/224 
f 100/702/224 102/700/224 316/696/224 
f 98/703/224 100/702/224 316/696/224 
f 96/704/224 98/703/224 316/696/224 
f 94/705/224 96/704/224 316/696/224 
f 92/706/224 94/705/224 316/696/224 
f 90/707/224 92/706/224 316/696/224 
f 88/708/224 90/707/224 316/696/224 
f 86/709/224 88/708/224 316/696/224 
f 84/710/224 86/709/224 316/696/224 
f 82/711/224 84/710/224 316/696/224 
f 80/712/224 82/711/224 316/696/224 
f 78/713/224 80/712/224 316/696/224 
f 76/714/224 78/713/224 316/696/224 
f 74/715/224 76/714/224 316/696/224 
f 72/716/224 74/715/224 316/696/224 
f 70/717/224 72/716/224 316/696/224 
f 70/717/224 316/696/224 318/718/224 68/719/224 
f 66/720/224 68/719/224 318/718/224 320/721/224 
f 66/720/224 320/721/224 322/722/224 64/723/224 
f 64/723/224 322/722/224 323/724/224 62/725/224 
f 62/725/224 323/724/224 326/726/224 60/727/224 
f 58/728/224 60/727/224 326/726/224 328/729/224 
f 56/730/224 58/728/224 328/729/224 330/731/224 
f 54/732/224 56/730/224 330/731/224 332/733/224 
f 52/734/224 54/732/224 332/733/224 334/735/224 
f 50/736/224 52/734/224 334/735/224 
f 46/737/224 48/738/224 336/739/224 
f 48/738/224 50/736/224 334/735/224 336/739/224 
f 42/740/224 44/741/224 338/742/224 
f 44/741/224 46/737/224 336/739/224 338/742/224 
f 42/740/224 338/742/224 340/743/224 40/744/224 
f 40/744/224 340/743/224 342/745/224 38/746/224 
f 36/747/224 38/746/224 342/745/224 344/748/224 
f 6/549/224 8/749/224 370/545/224 
f 10/750/224 368/751/224 370/545/224 8/749/224 
f 10/750/224 12/752/224 368/751/224 
f 13/753/224 366/754/224 368/751/224 12/752/224 
f 13/753/224 364/755/224 366/754/224 
f 16/756/224 362/757/224 364/755/224 13/753/224 
f 16/756/224 18/758/224 360/759/224 362/757/224 
f 18/758/224 356/760/224 358/761/224 
f 18/758/224 358/761/224 360/759/224 
f 18/758/224 20/762/224 354/763/224 356/760/224 
f 20/762/224 352/764/224 354/763/224 
f 20/762/224 22/765/224 350/766/224 352/764/224 
f 22/765/224 24/767/224 350/766/224 
f 26/768/224 348/769/224 350/766/224 24/767/224 
f 26/768/224 28/770/224 348/769/224 
f 28/770/224 30/771/224 346/772/224 348/769/224 
f 30/771/224 32/773/224 346/772/224 
f 32/773/224 34/774/224 344/748/224 346/772/224 
f 34/774/224 36/747/224 344/748/224 
f 2/775/225 371/776/225 369/777/225 5/778/225 3/779/225 
f 219/780/225 217/781/225 223/782/225 221/783/225 
f 217/781/225 215/784/225 225/785/225 223/782/225 
f 215/784/225 213/786/225 227/787/225 225/785/225 
f 213/786/225 211/788/225 229/789/225 227/787/225 
f 211/788/225 209/790/225 231/791/225 229/789/225 
f 209/790/225 207/792/225 233/793/225 231/791/225 
f 207/792/225 205/794/225 235/795/225 233/793/225 
f 171/796/225 169/797/225 175/798/225 173/799/225 
f 169/797/225 167/800/225 177/801/225 175/798/225 
f 167/800/225 165/802/225 179/803/225 177/801/225 
f 165/802/225 163/804/225 181/805/225 179/803/225 
f 149/806/225 153/807/225 151/808/225 
f 157/809/225 147/810/225 185/811/225 159/812/225 
f 139/813/225 193/814/225 191/815/225 141/816/225 
f 147/810/225 145/817/225 187/818/225 185/811/225 
f 145/817/225 143/819/225 189/820/225 187/818/225 
f 143/819/225 141/816/225 191/815/225 189/820/225 
f 161/821/225 183/822/225 181/805/225 163/804/225 
f 159/812/225 185/811/225 183/822/225 161/821/225 
f 149/806/225 155/823/225 153/807/225 
f 149/806/225 157/809/225 155/823/225 
f 147/810/225 157/809/225 149/806/225 
f 137/824/225 193/814/225 139/813/225 
f 133/825/225 193/814/225 135/826/225 
f 135/826/225 193/814/225 137/824/225 
f 131/827/225 193/814/225 133/825/225 
f 129/828/225 193/814/225 131/827/225 
f 127/829/225 193/814/225 129/828/225 
f 125/830/225 193/814/225 127/829/225 
f 123/831/225 193/814/225 125/830/225 
f 121/832/225 193/814/225 123/831/225 
f 119/833/225 193/814/225 121/832/225 
f 117/834/225 195/835/225 193/814/225 119/833/225 
f 113/836/225 195/835/225 115/837/225 
f 115/837/225 195/835/225 117/834/225 
f 111/838/225 195/835/225 113/836/225 
f 376/839/225 197/840/225 110/841/225 
f 110/841/225 197/840/225 195/835/225 111/838/225 
f 376/839/225 459/842/225 199/843/225 197/840/225 
f 459/842/225 457/844/225 201/845/225 199/843/225 
f 453/846/225 203/847/225 455/848/225 
f 457/844/225 455/848/225 203/847/225 201/845/225 
f 449/849/225 205/794/225 451/850/225 
f 453/846/225 451/850/225 205/794/225 203/847/225 
f 449/849/225 447/851/225 235/795/225 205/794/225 
f 445/852/225 237/853/225 235/795/225 447/851/225 
f 445/852/225 443/854/225 240/855/225 237/853/225 
f 443/854/225 441/856/225 241/857/225 240/855/225 
f 441/856/225 439/858/225 243/859/225 241/857/225 
f 439/858/225 437/860/225 245/861/225 243/859/225 
f 437/860/225 435/862/225 247/863/225 245/861/225 
f 435/862/225 433/864/225 249/865/225 247/863/225 
f 433/864/225 431/866/225 251/867/225 249/865/225 
f 431/866/225 429/868/225 253/869/225 251/867/225 
f 429/868/225 427/870/225 255/871/225 253/869/225 
f 425/872/225 255/871/225 427/870/225 
f 423/873/225 255/871/225 425/872/225 
f 421/874/225 257/875/225 255/871/225 423/873/225 
f 419/876/225 257/875/225 421/874/225 
f 417/877/225 257/875/225 419/876/225 
f 413/878/225 259/879/225 415/880/225 
f 417/877/225 415/880/225 259/879/225 257/875/225 
f 411/881/225 259/879/225 413/878/225 
f 409/882/225 261/883/225 259/879/225 411/881/225 
f 405/884/225 261/883/225 407/885/225 
f 407/885/225 261/883/225 409/882/225 
f 405/884/225 403/886/225 263/887/225 261/883/225 
f 399/888/225 265/889/225 401/890/225 
f 401/890/225 265/889/225 263/887/225 403/886/225 
f 397/891/225 267/892/225 265/889/225 399/888/225 
f 395/893/225 267/892/225 397/891/225 
f 391/894/225 269/895/225 393/896/225 
f 393/896/225 269/895/225 267/892/225 395/893/225 
f 389/897/225 269/895/225 391/894/225 
f 385/898/225 271/899/225 387/900/225 
f 387/900/225 271/899/225 269/895/225 389/897/225 
f 383/901/225 273/902/225 271/899/225 385/898/225 
f 381/903/225 275/904/225 273/902/225 383/901/225 
f 379/905/225 277/906/225 275/904/225 381/903/225 
f 377/907/225 279/908/225 277/906/225 379/905/225 
f 374/909/225 281/910/225 279/908/225 377/907/225 
f 299/911/225 297/912/225 303/913/225 301/914/225 
f 297/912/225 295/915/225 305/916/225 303/913/225 
f 295/915/225 293/917/225 307/918/225 305/916/225 
f 293/917/225 291/919/225 309/920/225 307/918/225 
f 291/919/225 289/921/225 311/922/225 309/920/225 
f 287/923/225 313/924/225 311/922/225 289/921/225 
f 285/925/225 315/926/225 313/924/225 287/923/225 
f 107/927/225 283/928/225 281/910/225 374/909/225 
f 105/929/225 285/925/225 283/928/225 107/927/225 
f 101/930/225 315/926/225 103/931/225 
f 103/931/225 315/926/225 285/925/225 105/929/225 
f 99/932/225 315/926/225 101/930/225 
f 97/933/225 315/926/225 99/932/225 
f 95/934/225 315/926/225 97/933/225 
f 93/935/225 315/926/225 95/934/225 
f 91/936/225 315/926/225 93/935/225 
f 89/937/225 315/926/225 91/936/225 
f 87/938/225 315/926/225 89/937/225 
f 85/939/225 315/926/225 87/938/225 
f 83/940/225 315/926/225 85/939/225 
f 81/941/225 315/926/225 83/940/225 
f 79/942/225 315/926/225 81/941/225 
f 77/943/225 315/926/225 79/942/225 
f 75/944/225 315/926/225 77/943/225 
f 73/945/225 315/926/225 75/944/225 
f 71/946/225 315/926/225 73/945/225 
f 69/947/225 315/926/225 71/946/225 
f 69/947/225 67/948/225 317/949/225 315/926/225 
f 65/950/225 319/951/225 317/949/225 67/948/225 
f 65/950/225 63/952/225 321/953/225 319/951/225 
f 63/952/225 61/954/225 324/955/225 321/953/225 
f 61/954/225 59/956/225 325/957/225 324/955/225 
f 57/958/225 327/959/225 325/957/225 59/956/225 
f 55/960/225 329/961/225 327/959/225 57/958/225 
f 53/962/225 331/963/225 329/961/225 55/960/225 
f 51/964/225 333/965/225 331/963/225 53/962/225 
f 49/966/225 333/965/225 51/964/225 
f 45/967/225 335/968/225 47/969/225 
f 47/969/225 335/968/225 333/965/225 49/966/225 
f 41/970/225 337/971/225 43/972/225 
f 43/972/225 337/971/225 335/968/225 45/967/225 
f 41/970/225 39/973/225 339/974/225 337/971/225 
f 39/973/225 37/975/225 341/976/225 339/974/225 
f 35/977/225 343/978/225 341/976/225 37/975/225 
f 5/778/225 369/777/225 7/979/225 
f 9/980/225 7/979/225 369/777/225 367/981/225 
f 9/980/225 367/981/225 11/982/225 
f 14/983/225 11/982/225 367/981/225 365/984/225 
f 14/983/225 365/984/225 363/985/225 
f 15/986/225 14/983/225 363/985/225 361/987/225 
f 15/986/225 361/987/225 359/988/225 17/989/225 
f 17/989/225 357/990/225 355/991/225 
f 17/989/225 359/988/225 357/990/225 
f 17/989/225 355/991/225 353/992/225 19/993/225 
f 19/993/225 353/992/225 351/994/225 
f 19/993/225 351/994/225 349/995/225 21/996/225 
f 21/996/225 349/995/225 23/997/225 
f 25/998/225 23/997/225 349/995/225 347/999/225 
f 25/998/225 347/999/225 27/1000/225 
f 27/1000/225 347/999/225 345/1001/225 29/1002/225 
f 29/1002/225 345/1001/225 31/1003/225 
f 31/1003/225 345/1001/225 343/978/225 33/1004/225 
f 33/1004/225 343/978/225 35/977/225 
# 394 polygons - 126 triangles

