# 3ds Max Wavefront OBJ Exporter v0.97b - (c)2007 guruware
# File Created: 06.10.2020 22:58:38

#
# object OracDecor_SX162_cornice_moulding
#

v  1000.0001 -3.0000 27.5077
v  1000.0001 -10.0000 39.5001
v  1000.0001 -10.0000 0.5001
v  1000.0001 -3.0000 12.4924
v  1000.0001 -0.4450 36.5321
v  1000.0001 -0.0000 36.7336
v  1000.0001 -0.0000 40.0001
v  1000.0001 -9.5000 40.0001
v  1000.0001 -0.7352 36.3093
v  1000.0001 -9.7242 39.9401
v  1000.0001 -0.9745 36.0325
v  1000.0001 -9.9400 39.7243
v  1000.0001 -1.1528 35.7130
v  1000.0001 -1.2628 35.3641
v  1000.0001 -1.3000 35.0001
v  1000.0001 -0.0000 30.7003
v  1000.0001 -0.0000 33.2665
v  1000.0001 -0.4450 33.4681
v  1000.0001 -0.0734 30.3446
v  1000.0001 -0.7352 33.6908
v  1000.0001 -0.3488 29.9512
v  1000.0001 -0.6580 29.7606
v  1000.0001 -0.9745 33.9676
v  1000.0001 -1.1528 34.2871
v  1000.0001 -1.6841 29.3871
v  1000.0001 -2.0000 29.2398
v  1000.0001 -1.2628 34.6361
v  1000.0001 -2.5321 28.7933
v  1000.0001 -2.2856 29.0398
v  1000.0001 -2.7321 28.5077
v  1000.0001 -2.8794 28.1918
v  1000.0001 -2.9696 27.8550
v  1000.0001 -9.9400 0.2758
v  1000.0001 -2.8794 11.8084
v  1000.0001 -2.9696 12.1451
v  1000.0001 -0.4450 6.5321
v  1000.0001 -0.0000 6.7336
v  1000.0001 -0.0000 9.2999
v  1000.0001 -0.0734 9.6555
v  1000.0001 -0.7352 6.3093
v  1000.0001 -0.3488 10.0489
v  1000.0001 -0.6580 10.2395
v  1000.0001 -0.9745 6.0325
v  1000.0001 -1.6841 10.6130
v  1000.0001 -2.0000 10.7603
v  1000.0001 -2.2856 10.9603
v  1000.0001 -1.1528 5.7130
v  1000.0001 -2.5321 11.2068
v  1000.0001 -2.7321 11.4924
v  1000.0001 -1.2628 5.3641
v  1000.0001 -9.7242 0.0601
v  1000.0001 -1.3000 5.0001
v  1000.0001 -0.0000 0.0001
v  1000.0001 -0.0000 3.2665
v  1000.0001 -0.4450 3.4681
v  1000.0001 -9.5000 0.0001
v  1000.0001 -0.7352 3.6908
v  1000.0001 -1.1528 4.2871
v  1000.0001 -1.2628 4.6361
v  1000.0001 -0.9745 3.9676
v  -1000.0000 -9.5001 40.0000
v  -1000.0000 -9.7243 39.9400
v  -1000.0000 -0.0001 40.0000
v  -1000.0000 -0.0001 36.7335
v  -1000.0000 -0.4450 36.5320
v  -1000.0000 -0.7353 36.3092
v  -1000.0000 -0.9746 36.0324
v  -1000.0000 -1.1529 35.7129
v  -1000.0000 -1.2629 35.3640
v  -1000.0000 -1.3001 35.0000
v  -1000.0000 -1.2629 34.6360
v  -1000.0000 -1.1529 34.2870
v  -1000.0000 -0.9746 33.9675
v  -1000.0000 -0.7353 33.6907
v  -1000.0000 -0.4450 33.4680
v  -1000.0000 -0.0001 33.2664
v  -1000.0000 -0.0001 30.7002
v  -1000.0000 -0.0735 30.3445
v  -1000.0000 -0.3489 29.9511
v  -1000.0000 -0.6581 29.7605
v  -1000.0000 -1.6841 29.3870
v  -1000.0000 -2.0001 29.2397
v  -1000.0000 -2.2857 29.0397
v  -1000.0000 -2.5322 28.7932
v  -1000.0000 -2.7321 28.5076
v  -1000.0000 -2.8795 28.1917
v  -1000.0000 -2.9697 27.8549
v  -1000.0000 -3.0001 27.5076
v  -1000.0000 -3.0001 12.4923
v  -1000.0000 -2.9697 12.1450
v  -1000.0000 -2.8795 11.8083
v  -1000.0000 -2.7321 11.4923
v  -1000.0000 -2.5322 11.2067
v  -1000.0000 -2.2857 10.9602
v  -1000.0000 -2.0001 10.7602
v  -1000.0000 -1.6841 10.6129
v  -1000.0000 -0.6581 10.2395
v  -1000.0000 -0.3489 10.0489
v  -1000.0000 -0.0735 9.6555
v  -1000.0000 -0.0001 9.2998
v  -1000.0000 -0.0001 6.7335
v  -1000.0000 -0.4450 6.5320
v  -1000.0000 -0.7353 6.3092
v  -1000.0000 -0.9746 6.0324
v  -1000.0000 -1.1529 5.7129
v  -1000.0000 -1.2629 5.3640
v  -1000.0000 -1.3001 5.0000
v  -1000.0000 -1.2629 4.6360
v  -1000.0000 -1.1529 4.2870
v  -1000.0000 -0.9746 3.9675
v  -1000.0000 -0.7353 3.6907
v  -1000.0000 -0.4450 3.4680
v  -1000.0000 -0.0001 3.2664
v  -1000.0000 -0.0001 -0.0000
v  -1000.0000 -9.5001 -0.0000
v  -1000.0000 -9.7243 0.0600
v  -1000.0000 -9.9401 0.2757
v  -1000.0000 -10.0001 0.5000
v  -1000.0000 -10.0001 39.5000
v  -1000.0000 -9.9401 39.7242
# 120 vertices

vn 1.0000 0.0000 -0.0000
vn -0.0000 -0.4999 0.8661
vn -0.0000 -0.1304 0.9915
vn -0.0000 0.0000 1.0000
vn -0.0000 1.0000 -0.0000
vn 0.0000 0.4126 -0.9109
vn 0.0000 0.5140 -0.8578
vn 0.0000 0.6862 -0.7274
vn -0.0000 0.8192 -0.5736
vn -0.0000 0.9182 -0.3961
vn -0.0000 0.9793 -0.2022
vn -0.0000 0.9793 0.2022
vn -0.0000 0.9182 0.3961
vn -0.0000 0.8192 0.5736
vn -0.0000 0.6862 0.7274
vn -0.0000 0.5140 0.8578
vn -0.0000 0.4126 0.9109
vn -0.0000 0.9948 -0.1015
vn -0.0000 0.9183 -0.3960
vn 0.0000 0.4357 -0.9001
vn 0.0000 0.3827 -0.9239
vn 0.0000 0.5000 -0.8660
vn 0.0000 0.6428 -0.7660
vn 0.0000 0.7660 -0.6428
vn -0.0000 0.8660 -0.5000
vn -0.0000 0.9397 -0.3420
vn -0.0000 0.9848 -0.1736
vn -0.0000 0.9990 -0.0436
vn -0.0000 0.9990 0.0436
vn -0.0000 0.9848 0.1737
vn -0.0000 0.9397 0.3420
vn -0.0000 0.8660 0.5000
vn -0.0000 0.7660 0.6428
vn -0.0000 0.6428 0.7660
vn -0.0000 0.5000 0.8660
vn -0.0000 0.3827 0.9239
vn -0.0000 0.4357 0.9001
vn -0.0000 0.9183 0.3960
vn -0.0000 0.9948 0.1015
vn -0.0000 1.0000 0.0000
vn 0.0000 0.0000 -1.0000
vn 0.0000 -0.1304 -0.9915
vn 0.0000 -0.4999 -0.8661
vn 0.0000 -0.8661 -0.4999
vn 0.0000 -0.9915 -0.1304
vn 0.0000 -0.9915 0.1304
vn 0.0000 -0.8661 0.4999
vn -1.0000 0.0000 -0.0000
# 48 vertex normals

vt 0.7000 1.2508 100.5000
vt 0.0000 2.4500 100.5000
vt 0.0000 -1.4500 100.5000
vt 0.7000 -0.2508 100.5000
vt 0.9555 2.1532 100.5000
vt 1.0000 2.1734 100.5000
vt 1.0000 2.5000 100.5000
vt 0.0500 2.5000 100.5000
vt 0.9264 2.1309 100.5000
vt 0.0276 2.4940 100.5000
vt 0.9025 2.1032 100.5000
vt 0.0060 2.4724 100.5000
vt 0.8847 2.0713 100.5000
vt 0.8737 2.0364 100.5000
vt 0.8700 2.0000 100.5000
vt 1.0000 1.5700 100.5000
vt 1.0000 1.8266 100.5000
vt 0.9555 1.8468 100.5000
vt 0.9926 1.5345 100.5000
vt 0.9264 1.8691 100.5000
vt 0.9651 1.4951 100.5000
vt 0.9342 1.4761 100.5000
vt 0.9025 1.8968 100.5000
vt 0.8847 1.9287 100.5000
vt 0.8316 1.4387 100.5000
vt 0.8000 1.4240 100.5000
vt 0.8737 1.9636 100.5000
vt 0.7468 1.3793 100.5000
vt 0.7714 1.4040 100.5000
vt 0.7268 1.3508 100.5000
vt 0.7120 1.3192 100.5000
vt 0.7030 1.2855 100.5000
vt 0.0060 -1.4724 100.5000
vt 0.7120 -0.3192 100.5000
vt 0.7030 -0.2855 100.5000
vt 0.9555 -0.8468 100.5000
vt 1.0000 -0.8266 100.5000
vt 1.0000 -0.5700 100.5000
vt 0.9926 -0.5345 100.5000
vt 0.9264 -0.8691 100.5000
vt 0.9651 -0.4951 100.5000
vt 0.9342 -0.4761 100.5000
vt 0.9025 -0.8968 100.5000
vt 0.8316 -0.4387 100.5000
vt 0.8000 -0.4240 100.5000
vt 0.7714 -0.4040 100.5000
vt 0.8847 -0.9287 100.5000
vt 0.7468 -0.3793 100.5000
vt 0.7268 -0.3508 100.5000
vt 0.8737 -0.9636 100.5000
vt 0.0276 -1.4940 100.5000
vt 0.8700 -1.0000 100.5000
vt 1.0000 -1.5000 100.5000
vt 1.0000 -1.1734 100.5000
vt 0.9555 -1.1532 100.5000
vt 0.0500 -1.5000 100.5000
vt 0.9264 -1.1309 100.5000
vt 0.8847 -1.0713 100.5000
vt 0.8737 -1.0364 100.5000
vt 0.9025 -1.1032 100.5000
vt 100.5000 0.0276 2.4940
vt 100.5000 0.0500 2.5000
vt -99.5000 0.0500 2.5000
vt -99.5000 0.0276 2.4940
vt 100.5000 1.0000 2.5000
vt -99.5000 1.0000 2.5000
vt -99.5000 2.5000 1.0000
vt -99.5000 2.1734 1.0000
vt 100.5000 2.1734 1.0000
vt 100.5000 2.5000 1.0000
vt -99.5000 1.0000 2.1734
vt -99.5000 0.9555 2.1532
vt 100.5000 0.9555 2.1532
vt 100.5000 1.0000 2.1734
vt -99.5000 0.9264 2.1309
vt 100.5000 0.9265 2.1309
vt -99.5000 2.1309 0.9264
vt -99.5000 2.1032 0.9025
vt 100.5000 2.1032 0.9026
vt 100.5000 2.1309 0.9265
vt -99.5000 2.0713 0.8847
vt 100.5000 2.0713 0.8847
vt -99.5000 2.0364 0.8737
vt 100.5000 2.0364 0.8737
vt -99.5000 2.0000 0.8700
vt 100.5000 2.0000 0.8700
vt -99.5000 1.9636 0.8737
vt 100.5000 1.9636 0.8737
vt -99.5000 1.9287 0.8847
vt 100.5000 1.9287 0.8847
vt -99.5000 1.8968 0.9025
vt 100.5000 1.8968 0.9026
vt -99.5000 1.8691 0.9264
vt 100.5000 1.8691 0.9265
vt 100.5000 0.9264 1.8691
vt 100.5000 0.9555 1.8468
vt -99.5000 0.9555 1.8468
vt -99.5000 0.9265 1.8691
vt 100.5000 1.0000 1.8266
vt -99.5000 1.0000 1.8266
vt -99.5000 1.8266 1.0000
vt -99.5000 1.5700 1.0000
vt 100.5000 1.5700 1.0000
vt 100.5000 1.8266 1.0000
vt -99.5000 1.5345 0.9926
vt 100.5000 1.5345 0.9927
vt -99.5000 1.4951 0.9651
vt 100.5000 1.4951 0.9651
vt -99.5000 0.9651 1.4951
vt -99.5000 0.9342 1.4761
vt 100.5000 0.9342 1.4761
vt 100.5000 0.9651 1.4951
vt -99.5000 0.8316 1.4387
vt 100.5000 0.8316 1.4387
vt -99.5000 0.8000 1.4240
vt 100.5000 0.8000 1.4240
vt -99.5000 0.7714 1.4040
vt 100.5000 0.7715 1.4040
vt -99.5000 0.7468 1.3793
vt 100.5000 0.7468 1.3793
vt -99.5000 1.3793 0.7468
vt -99.5000 1.3508 0.7268
vt 100.5000 1.3508 0.7268
vt 100.5000 1.3793 0.7468
vt -99.5000 1.3192 0.7120
vt 100.5000 1.3192 0.7121
vt -99.5000 1.2855 0.7030
vt 100.5000 1.2855 0.7031
vt -99.5000 1.2508 0.7000
vt 100.5000 1.2508 0.7000
vt -99.5000 -0.2508 0.7000
vt 100.5000 -0.2508 0.7000
vt -99.5000 -0.2855 0.7030
vt 100.5000 -0.2855 0.7031
vt -99.5000 -0.3192 0.7120
vt 100.5000 -0.3192 0.7121
vt -99.5000 -0.3508 0.7268
vt 100.5000 -0.3508 0.7268
vt -99.5000 -0.3793 0.7468
vt 100.5000 -0.3793 0.7468
vt 100.5000 0.7468 -0.3793
vt 100.5000 0.7714 -0.4040
vt -99.5000 0.7715 -0.4040
vt -99.5000 0.7468 -0.3793
vt 100.5000 0.8000 -0.4240
vt -99.5000 0.8000 -0.4240
vt 100.5000 0.8316 -0.4387
vt -99.5000 0.8316 -0.4387
vt 100.5000 0.9342 -0.4761
vt -99.5000 0.9342 -0.4761
vt 100.5000 0.9651 -0.4951
vt -99.5000 0.9651 -0.4951
vt -99.5000 -0.4951 0.9651
vt -99.5000 -0.5345 0.9926
vt 100.5000 -0.5345 0.9927
vt 100.5000 -0.4951 0.9651
vt -99.5000 -0.5700 1.0000
vt 100.5000 -0.5700 1.0000
vt -99.5000 -0.8266 1.0000
vt 100.5000 -0.8266 1.0000
vt -99.5000 1.0000 -0.8266
vt -99.5000 0.9555 -0.8468
vt 100.5000 0.9555 -0.8468
vt 100.5000 1.0000 -0.8266
vt -99.5000 0.9264 -0.8691
vt 100.5000 0.9265 -0.8691
vt -99.5000 -0.8691 0.9264
vt -99.5000 -0.8968 0.9025
vt 100.5000 -0.8968 0.9026
vt 100.5000 -0.8691 0.9265
vt -99.5000 -0.9287 0.8847
vt 100.5000 -0.9287 0.8847
vt -99.5000 -0.9636 0.8737
vt 100.5000 -0.9636 0.8737
vt -99.5000 -1.0000 0.8700
vt 100.5000 -1.0000 0.8700
vt -99.5000 -1.0364 0.8737
vt 100.5000 -1.0364 0.8737
vt -99.5000 -1.0713 0.8847
vt 100.5000 -1.0713 0.8847
vt -99.5000 -1.1032 0.9025
vt 100.5000 -1.1032 0.9026
vt -99.5000 -1.1309 0.9264
vt 100.5000 -1.1309 0.9265
vt 100.5000 0.9264 -1.1309
vt 100.5000 0.9555 -1.1532
vt -99.5000 0.9555 -1.1532
vt -99.5000 0.9265 -1.1309
vt 100.5000 1.0000 -1.1734
vt -99.5000 1.0000 -1.1734
vt -99.5000 -1.1734 1.0000
vt -99.5000 -1.5000 1.0000
vt 100.5000 -1.5000 1.0000
vt 100.5000 -1.1734 1.0000
vt -99.5000 1.0000 -1.5000
vt -99.5000 0.0500 -1.5000
vt 100.5000 0.0500 -1.5000
vt 100.5000 1.0000 -1.5000
vt -99.5000 0.0276 -1.4940
vt 100.5000 0.0276 -1.4940
vt -99.5000 0.0060 -1.4724
vt 100.5000 0.0060 -1.4724
vt 100.5000 -1.4724 0.0060
vt 100.5000 -1.4500 0.0000
vt -99.5000 -1.4500 0.0000
vt -99.5000 -1.4724 0.0060
vt 100.5000 2.4500 0.0000
vt -99.5000 2.4500 0.0000
vt 100.5000 2.4724 0.0060
vt -99.5000 2.4724 0.0060
vt 100.5000 0.0060 2.4724
vt -99.5000 0.0060 2.4724
vt 0.3000 1.2508 -99.5000
vt 0.3000 -0.2508 -99.5000
vt 1.0000 -1.4500 -99.5000
vt 1.0000 2.4500 -99.5000
vt 0.0445 2.1532 -99.5000
vt 0.9500 2.5000 -99.5000
vt 0.0000 2.5000 -99.5000
vt 0.0000 2.1734 -99.5000
vt 0.0735 2.1309 -99.5000
vt 0.9724 2.4940 -99.5000
vt 0.0974 2.1032 -99.5000
vt 0.9940 2.4724 -99.5000
vt 0.1153 2.0713 -99.5000
vt 0.1263 2.0364 -99.5000
vt 0.1300 2.0000 -99.5000
vt 0.0000 1.5700 -99.5000
vt 0.0073 1.5345 -99.5000
vt 0.0445 1.8468 -99.5000
vt 0.0000 1.8266 -99.5000
vt 0.0349 1.4951 -99.5000
vt 0.0735 1.8691 -99.5000
vt 0.0658 1.4761 -99.5000
vt 0.0974 1.8968 -99.5000
vt 0.1684 1.4387 -99.5000
vt 0.1153 1.9287 -99.5000
vt 0.2000 1.4240 -99.5000
vt 0.1263 1.9636 -99.5000
vt 0.2532 1.3793 -99.5000
vt 0.2285 1.4040 -99.5000
vt 0.2732 1.3508 -99.5000
vt 0.2879 1.3192 -99.5000
vt 0.2969 1.2855 -99.5000
vt 0.2969 -0.2855 -99.5000
vt 0.2879 -0.3192 -99.5000
vt 0.9940 -1.4724 -99.5000
vt 0.0445 -0.8468 -99.5000
vt 0.0073 -0.5345 -99.5000
vt 0.0000 -0.5700 -99.5000
vt 0.0000 -0.8266 -99.5000
vt 0.0735 -0.8691 -99.5000
vt 0.0349 -0.4951 -99.5000
vt 0.0658 -0.4761 -99.5000
vt 0.0974 -0.8968 -99.5000
vt 0.1684 -0.4387 -99.5000
vt 0.2000 -0.4240 -99.5000
vt 0.1153 -0.9287 -99.5000
vt 0.2285 -0.4040 -99.5000
vt 0.2532 -0.3793 -99.5000
vt 0.2732 -0.3508 -99.5000
vt 0.1263 -0.9636 -99.5000
vt 0.1300 -1.0000 -99.5000
vt 0.9724 -1.4940 -99.5000
vt 0.0000 -1.5000 -99.5000
vt 0.9500 -1.5000 -99.5000
vt 0.0445 -1.1532 -99.5000
vt 0.0000 -1.1734 -99.5000
vt 0.0735 -1.1309 -99.5000
vt 0.1263 -1.0364 -99.5000
vt 0.1153 -1.0713 -99.5000
vt 0.0974 -1.1032 -99.5000
# 272 texture coords

g OracDecor_SX162_cornice_moulding
s 1
f 1/1/1 2/2/1 3/3/1 4/4/1 
f 5/5/1 6/6/1 7/7/1 8/8/1 
f 9/9/1 5/5/1 8/8/1 10/10/1 
f 11/11/1 9/9/1 10/10/1 12/12/1 
f 11/11/1 12/12/1 2/2/1 13/13/1 
f 14/14/1 13/13/1 2/2/1 
f 15/15/1 14/14/1 2/2/1 
f 16/16/1 17/17/1 18/18/1 19/19/1 
f 19/19/1 18/18/1 20/20/1 21/21/1 
f 22/22/1 21/21/1 20/20/1 23/23/1 
f 22/22/1 23/23/1 24/24/1 25/25/1 
f 26/26/1 25/25/1 24/24/1 27/27/1 
f 28/28/1 29/29/1 2/2/1 
f 26/26/1 27/27/1 15/15/1 2/2/1 29/29/1 
f 30/30/1 28/28/1 2/2/1 
f 31/31/1 30/30/1 2/2/1 
f 32/32/1 31/31/1 2/2/1 
f 1/1/1 32/32/1 2/2/1 
f 3/3/1 33/33/1 34/34/1 35/35/1 
f 3/3/1 35/35/1 4/4/1 
f 36/36/1 37/37/1 38/38/1 39/39/1 
f 40/40/1 36/36/1 39/39/1 41/41/1 
f 40/40/1 41/41/1 42/42/1 
f 43/43/1 40/40/1 42/42/1 44/44/1 
f 43/43/1 44/44/1 45/45/1 
f 43/43/1 45/45/1 46/46/1 47/47/1 
f 47/47/1 46/46/1 48/48/1 
f 47/47/1 48/48/1 49/49/1 33/33/1 
f 33/33/1 49/49/1 34/34/1 
f 33/33/1 50/50/1 47/47/1 
f 33/33/1 51/51/1 52/52/1 50/50/1 
f 53/53/1 54/54/1 55/55/1 56/56/1 
f 56/56/1 55/55/1 57/57/1 
f 51/51/1 58/58/1 59/59/1 
f 51/51/1 59/59/1 52/52/1 
f 56/56/1 60/60/1 58/58/1 51/51/1 
f 56/56/1 57/57/1 60/60/1 
s 2
f 10/61/2 8/62/3 61/63/3 62/64/2 
f 8/62/3 7/65/4 63/66/4 61/63/3 
s 4
f 7/67/5 6/68/5 64/69/5 63/70/5 
s 2
f 6/71/6 5/72/7 65/73/7 64/74/6 
f 5/72/7 9/75/8 66/76/8 65/73/7 
f 9/77/8 11/78/9 67/79/9 66/80/8 
f 11/78/9 13/81/10 68/82/10 67/79/9 
f 13/81/10 14/83/11 69/84/11 68/82/10 
f 14/83/11 15/85/5 70/86/5 69/84/11 
f 15/85/5 27/87/12 71/88/12 70/86/5 
f 27/87/12 24/89/13 72/90/13 71/88/12 
f 24/89/13 23/91/14 73/92/14 72/90/13 
f 23/91/14 20/93/15 74/94/15 73/92/14 
f 20/95/15 18/96/16 75/97/16 74/98/15 
f 18/96/16 17/99/17 76/100/17 75/97/16 
s 4
f 17/101/5 16/102/18 77/103/18 76/104/5 
f 16/102/18 19/105/19 78/106/19 77/103/18 
f 19/105/19 21/107/8 79/108/8 78/106/19 
f 21/109/8 22/110/20 80/111/20 79/112/8 
f 22/110/20 25/113/21 81/114/21 80/111/20 
f 25/113/21 26/115/22 82/116/22 81/114/21 
f 26/115/22 29/117/23 83/118/23 82/116/22 
f 29/117/23 28/119/24 84/120/24 83/118/23 
f 28/121/24 30/122/25 85/123/25 84/124/24 
f 30/122/25 31/125/26 86/126/26 85/123/25 
f 31/125/26 32/127/27 87/128/27 86/126/26 
f 32/127/27 1/129/28 88/130/28 87/128/27 
f 1/129/28 4/131/29 89/132/29 88/130/28 
f 4/131/29 35/133/30 90/134/30 89/132/29 
f 35/133/30 34/135/31 91/136/31 90/134/30 
f 34/135/31 49/137/32 92/138/32 91/136/31 
f 49/137/32 48/139/33 93/140/33 92/138/32 
f 48/141/33 46/142/34 94/143/34 93/144/33 
f 46/142/34 45/145/35 95/146/35 94/143/34 
f 45/145/35 44/147/36 96/148/36 95/146/35 
f 44/147/36 42/149/37 97/150/37 96/148/36 
f 42/149/37 41/151/15 98/152/15 97/150/37 
f 41/153/15 39/154/38 99/155/38 98/156/15 
f 39/154/38 38/157/39 100/158/39 99/155/38 
f 38/157/39 37/159/5 101/160/5 100/158/39 
s 2
f 37/161/6 36/162/7 102/163/7 101/164/6 
f 36/162/7 40/165/8 103/166/8 102/163/7 
f 40/167/8 43/168/9 104/169/9 103/170/8 
f 43/168/9 47/171/10 105/172/10 104/169/9 
f 47/171/10 50/173/11 106/174/11 105/172/10 
f 50/173/11 52/175/40 107/176/40 106/174/11 
f 52/175/40 59/177/12 108/178/12 107/176/40 
f 59/177/12 58/179/13 109/180/13 108/178/12 
f 58/179/13 60/181/14 110/182/14 109/180/13 
f 60/181/14 57/183/15 111/184/15 110/182/14 
f 57/185/15 55/186/16 112/187/16 111/188/15 
f 55/186/16 54/189/17 113/190/17 112/187/16 
s 4
f 54/191/5 53/192/5 114/193/5 113/194/5 
s 2
f 53/195/41 56/196/42 115/197/42 114/198/41 
f 56/196/42 51/199/43 116/200/43 115/197/42 
f 51/199/43 33/201/44 117/202/44 116/200/43 
f 33/203/44 3/204/45 118/205/45 117/206/44 
f 3/204/45 2/207/46 119/208/46 118/205/45 
f 2/207/46 12/209/47 120/210/47 119/208/46 
f 12/211/47 10/61/2 62/64/2 120/212/47 
s 1
f 88/213/48 89/214/48 118/215/48 119/216/48 
f 65/217/48 61/218/48 63/219/48 64/220/48 
f 66/221/48 62/222/48 61/218/48 65/217/48 
f 67/223/48 120/224/48 62/222/48 66/221/48 
f 67/223/48 68/225/48 119/216/48 120/224/48 
f 69/226/48 119/216/48 68/225/48 
f 70/227/48 119/216/48 69/226/48 
f 77/228/48 78/229/48 75/230/48 76/231/48 
f 78/229/48 79/232/48 74/233/48 75/230/48 
f 80/234/48 73/235/48 74/233/48 79/232/48 
f 80/234/48 81/236/48 72/237/48 73/235/48 
f 82/238/48 71/239/48 72/237/48 81/236/48 
f 84/240/48 119/216/48 83/241/48 
f 70/227/48 71/239/48 82/238/48 83/241/48 119/216/48 
f 85/242/48 119/216/48 84/240/48 
f 86/243/48 119/216/48 85/242/48 
f 87/244/48 119/216/48 86/243/48 
f 88/213/48 119/216/48 87/244/48 
f 118/215/48 90/245/48 91/246/48 117/247/48 
f 118/215/48 89/214/48 90/245/48 
f 102/248/48 99/249/48 100/250/48 101/251/48 
f 103/252/48 98/253/48 99/249/48 102/248/48 
f 103/252/48 97/254/48 98/253/48 
f 104/255/48 96/256/48 97/254/48 103/252/48 
f 104/255/48 95/257/48 96/256/48 
f 104/255/48 105/258/48 94/259/48 95/257/48 
f 105/258/48 93/260/48 94/259/48 
f 105/258/48 117/247/48 92/261/48 93/260/48 
f 117/247/48 91/246/48 92/261/48 
f 117/247/48 105/258/48 106/262/48 
f 117/247/48 106/262/48 107/263/48 116/264/48 
f 114/265/48 115/266/48 112/267/48 113/268/48 
f 115/266/48 111/269/48 112/267/48 
f 116/264/48 108/270/48 109/271/48 
f 116/264/48 107/263/48 108/270/48 
f 115/266/48 116/264/48 109/271/48 110/272/48 
f 115/266/48 110/272/48 111/269/48 
# 100 polygons - 34 triangles

