# 3ds Max Wavefront OBJ Exporter v0.97b - (c)2007 guruware
# File Created: 06.10.2020 21:26:53

#
# object OracDecor_SX171_skirting
#

v  1000.0000 87.2500 14.0000
v  1000.0000 100.0000 22.0000
v  1000.0000 42.8831 14.0000
v  1000.0000 0.7500 14.0000
v  1000.0000 7.1169 14.0000
v  1000.0000 7.4723 14.0654
v  1000.0000 0.3750 14.1005
v  1000.0000 7.7819 14.2533
v  1000.0000 0.1005 14.3750
v  1000.0000 -0.0000 14.7500
v  1000.0000 8.0040 14.5385
v  1000.0000 -0.0000 22.0000
v  1000.0000 8.5036 15.1801
v  1000.0000 9.1990 15.6025
v  1000.0000 10.8010 15.6025
v  1000.0000 19.1990 15.6025
v  1000.0000 20.0000 15.7500
v  1000.0000 10.0000 15.7500
v  1000.0000 11.4964 15.1801
v  1000.0000 18.5036 15.1801
v  1000.0000 11.9960 14.5385
v  1000.0000 18.0040 14.5385
v  1000.0000 12.2181 14.2533
v  1000.0000 17.7819 14.2533
v  1000.0000 12.5277 14.0654
v  1000.0000 17.4723 14.0654
v  1000.0000 12.8831 14.0000
v  1000.0000 17.1169 14.0000
v  1000.0000 20.8010 15.6025
v  1000.0000 29.1990 15.6025
v  1000.0000 30.0000 15.7500
v  1000.0000 21.4964 15.1801
v  1000.0000 28.5036 15.1801
v  1000.0000 21.9960 14.5385
v  1000.0000 28.0040 14.5385
v  1000.0000 22.2181 14.2533
v  1000.0000 27.7819 14.2533
v  1000.0000 22.5277 14.0654
v  1000.0000 27.4723 14.0654
v  1000.0000 22.8831 14.0000
v  1000.0000 27.1169 14.0000
v  1000.0000 30.8010 15.6025
v  1000.0000 39.1990 15.6025
v  1000.0000 40.0000 15.7500
v  1000.0000 31.4964 15.1801
v  1000.0000 38.5036 15.1801
v  1000.0000 31.9960 14.5385
v  1000.0000 38.0040 14.5385
v  1000.0000 32.2181 14.2533
v  1000.0000 37.7819 14.2533
v  1000.0000 32.5277 14.0654
v  1000.0000 37.4723 14.0654
v  1000.0000 32.8831 14.0000
v  1000.0000 37.1169 14.0000
v  1000.0000 40.8010 15.6025
v  1000.0000 41.4964 15.1801
v  1000.0000 41.9960 14.5385
v  1000.0000 42.2181 14.2533
v  1000.0000 42.5277 14.0654
v  1000.0000 87.6250 13.8995
v  1000.0000 87.8995 13.6250
v  1000.0000 88.0000 13.2500
v  1000.0000 93.5993 1.2548
v  1000.0000 94.4007 1.2548
v  1000.0000 95.1224 0.9072
v  1000.0000 95.6210 0.2826
v  1000.0000 95.8054 0.0765
v  1000.0000 96.0712 0.0000
v  1000.0000 100.0000 0.0000
v  1000.0000 88.0000 0.7500
v  1000.0000 92.8776 0.9072
v  1000.0000 88.7500 0.0000
v  1000.0000 91.9288 0.0000
v  1000.0000 92.1946 0.0765
v  1000.0000 88.3750 0.1005
v  1000.0000 92.3790 0.2826
v  1000.0000 88.1005 0.3750
v  -1000.0001 100.0000 0.0000
v  -1000.0001 100.0000 22.0000
v  -1000.0001 96.0712 0.0000
v  -1000.0001 95.8054 0.0765
v  -1000.0001 95.6210 0.2826
v  -1000.0001 95.1224 0.9072
v  -1000.0001 94.4007 1.2548
v  -1000.0001 93.5993 1.2548
v  -1000.0001 92.8776 0.9072
v  -1000.0001 92.3790 0.2826
v  -1000.0001 92.1946 0.0765
v  -1000.0001 91.9288 0.0000
v  -1000.0001 88.7500 0.0000
v  -1000.0001 88.3750 0.1005
v  -1000.0001 88.1005 0.3750
v  -1000.0001 88.0000 0.7500
v  -1000.0001 88.0000 13.2500
v  -1000.0001 87.8995 13.6250
v  -1000.0001 87.6250 13.8995
v  -1000.0001 87.2500 14.0000
v  -1000.0001 42.8831 14.0000
v  -1000.0001 42.5277 14.0654
v  -1000.0001 42.2181 14.2533
v  -1000.0001 41.9960 14.5385
v  -1000.0001 41.4964 15.1801
v  -1000.0001 40.8010 15.6025
v  -1000.0001 40.0000 15.7500
v  -1000.0001 39.1990 15.6025
v  -1000.0001 38.5036 15.1801
v  -1000.0001 38.0040 14.5385
v  -1000.0001 37.7819 14.2533
v  -1000.0001 37.4723 14.0654
v  -1000.0001 37.1169 14.0000
v  -1000.0001 32.8831 14.0000
v  -1000.0001 32.5277 14.0654
v  -1000.0001 32.2181 14.2533
v  -1000.0001 31.9960 14.5385
v  -1000.0001 31.4964 15.1801
v  -1000.0001 30.8010 15.6025
v  -1000.0001 30.0000 15.7500
v  -1000.0001 29.1990 15.6025
v  -1000.0001 28.5036 15.1801
v  -1000.0001 28.0040 14.5385
v  -1000.0001 27.7819 14.2533
v  -1000.0001 27.4723 14.0654
v  -1000.0001 27.1169 14.0000
v  -1000.0001 22.8831 14.0000
v  -1000.0001 22.5277 14.0654
v  -1000.0001 22.2181 14.2533
v  -1000.0001 21.9960 14.5385
v  -1000.0001 21.4964 15.1801
v  -1000.0001 20.8010 15.6025
v  -1000.0001 20.0000 15.7500
v  -1000.0001 19.1990 15.6025
v  -1000.0001 18.5036 15.1801
v  -1000.0001 18.0040 14.5385
v  -1000.0001 17.7819 14.2533
v  -1000.0001 17.4723 14.0654
v  -1000.0001 17.1169 14.0000
v  -1000.0001 12.8831 14.0000
v  -1000.0001 12.5277 14.0654
v  -1000.0001 12.2181 14.2533
v  -1000.0001 11.9960 14.5385
v  -1000.0001 11.4964 15.1801
v  -1000.0001 10.8010 15.6025
v  -1000.0001 10.0000 15.7500
v  -1000.0001 9.1990 15.6025
v  -1000.0001 8.5036 15.1801
v  -1000.0001 8.0040 14.5385
v  -1000.0001 7.7819 14.2533
v  -1000.0001 7.4723 14.0654
v  -1000.0001 7.1169 14.0000
v  -1000.0001 0.7500 14.0000
v  -1000.0001 0.3750 14.1005
v  -1000.0001 0.1005 14.3750
v  -1000.0001 -0.0000 14.7500
v  -1000.0001 -0.0000 22.0000
# 154 vertices

vn 1.0000 0.0000 -0.0000
vn 0.0000 1.0000 -0.0000
vn 0.0000 0.0000 -1.0000
vn 0.0000 -0.1397 -0.9902
vn 0.0000 -0.5316 -0.8470
vn 0.0000 -0.7636 -0.6457
vn 0.0000 -0.6233 -0.7820
vn 0.0000 -0.2226 -0.9749
vn 0.0000 0.2226 -0.9749
vn 0.0000 0.6233 -0.7820
vn 0.0000 0.7636 -0.6457
vn 0.0000 0.5316 -0.8470
vn 0.0000 0.1397 -0.9902
vn 0.0000 -0.1305 -0.9914
vn 0.0000 -0.5000 -0.8660
vn 0.0000 -0.8660 -0.5000
vn 0.0000 -0.9914 -0.1305
vn 0.0000 -0.0909 -0.9959
vn 0.0000 -0.3558 -0.9346
vn -0.0000 -0.6649 -0.7470
vn -0.0000 -0.7890 -0.6144
vn -0.0000 -0.6650 -0.7468
vn -0.0000 -0.3560 -0.9345
vn -0.0000 -0.0000 -1.0000
vn 0.0000 0.3560 -0.9345
vn -0.0000 0.6650 -0.7468
vn -0.0000 0.7890 -0.6144
vn -0.0000 0.6649 -0.7470
vn -0.0000 0.3558 -0.9346
vn -0.0000 0.0909 -0.9959
vn -0.0000 -0.0909 -0.9959
vn -0.0000 -0.3558 -0.9346
vn -0.0000 0.0000 -1.0000
vn 0.0000 0.6650 -0.7468
vn 0.0000 -0.6649 -0.7470
vn 0.0000 -0.7890 -0.6144
vn 0.0000 -0.6650 -0.7468
vn -0.0000 0.3560 -0.9345
vn 0.0000 -1.0000 -0.0000
vn -0.0000 -0.0000 1.0000
vn -1.0000 0.0000 -0.0000
# 41 vertex normals

vt 0.2000 4.2250 100.5000
vt -0.6000 5.5000 100.5000
vt 0.2000 -0.2117 100.5000
vt 0.2000 -4.4250 100.5000
vt 0.2000 -3.7883 100.5000
vt 0.1934 -3.7528 100.5000
vt 0.1899 -4.4625 100.5000
vt 0.1746 -3.7218 100.5000
vt 0.1625 -4.4900 100.5000
vt 0.1250 -4.5000 100.5000
vt 0.1461 -3.6996 100.5000
vt -0.6000 -4.5000 100.5000
vt 0.0820 -3.6496 100.5000
vt 0.0397 -3.5801 100.5000
vt 0.0397 -3.4199 100.5000
vt 0.0397 -2.5801 100.5000
vt 0.0250 -2.5000 100.5000
vt 0.0250 -3.5000 100.5000
vt 0.0820 -3.3504 100.5000
vt 0.0820 -2.6496 100.5000
vt 0.1461 -3.3004 100.5000
vt 0.1461 -2.6996 100.5000
vt 0.1746 -3.2782 100.5000
vt 0.1746 -2.7218 100.5000
vt 0.1934 -3.2472 100.5000
vt 0.1934 -2.7528 100.5000
vt 0.2000 -3.2117 100.5000
vt 0.2000 -2.7883 100.5000
vt 0.0397 -2.4199 100.5000
vt 0.0397 -1.5801 100.5000
vt 0.0250 -1.5000 100.5000
vt 0.0820 -2.3504 100.5000
vt 0.0820 -1.6496 100.5000
vt 0.1461 -2.3004 100.5000
vt 0.1461 -1.6996 100.5000
vt 0.1746 -2.2782 100.5000
vt 0.1746 -1.7218 100.5000
vt 0.1934 -2.2472 100.5000
vt 0.1934 -1.7528 100.5000
vt 0.2000 -2.2117 100.5000
vt 0.2000 -1.7883 100.5000
vt 0.0397 -1.4199 100.5000
vt 0.0397 -0.5801 100.5000
vt 0.0250 -0.5000 100.5000
vt 0.0820 -1.3504 100.5000
vt 0.0820 -0.6496 100.5000
vt 0.1461 -1.3004 100.5000
vt 0.1461 -0.6996 100.5000
vt 0.1746 -1.2782 100.5000
vt 0.1746 -0.7218 100.5000
vt 0.1934 -1.2472 100.5000
vt 0.1934 -0.7528 100.5000
vt 0.2000 -1.2117 100.5000
vt 0.2000 -0.7883 100.5000
vt 0.0397 -0.4199 100.5000
vt 0.0820 -0.3504 100.5000
vt 0.1461 -0.3004 100.5000
vt 0.1746 -0.2782 100.5000
vt 0.1934 -0.2472 100.5000
vt 0.2100 4.2625 100.5000
vt 0.2375 4.2900 100.5000
vt 0.2750 4.3000 100.5000
vt 1.4745 4.8599 100.5000
vt 1.4745 4.9401 100.5000
vt 1.5093 5.0122 100.5000
vt 1.5717 5.0621 100.5000
vt 1.5923 5.0805 100.5000
vt 1.6000 5.1071 100.5000
vt 1.6000 5.5000 100.5000
vt 1.5250 4.3000 100.5000
vt 1.5093 4.7878 100.5000
vt 1.6000 4.3750 100.5000
vt 1.6000 4.6929 100.5000
vt 1.5923 4.7195 100.5000
vt 1.5899 4.3375 100.5000
vt 1.5717 4.7379 100.5000
vt 1.5625 4.3100 100.5000
vt 100.5000 -0.6000 5.5000
vt 100.5000 1.6000 5.5000
vt -99.5000 1.6000 5.5000
vt -99.5000 -0.6000 5.5000
vt -99.5000 5.5000 1.6000
vt -99.5000 5.1071 1.6000
vt 100.5000 5.1071 1.6000
vt 100.5000 5.5000 1.6000
vt -99.5000 5.0805 1.5923
vt 100.5000 5.0805 1.5924
vt -99.5000 1.5923 5.0805
vt -99.5000 1.5717 5.0621
vt 100.5000 1.5718 5.0621
vt 100.5000 1.5924 5.0805
vt -99.5000 1.5093 5.0122
vt 100.5000 1.5093 5.0122
vt -99.5000 5.0122 1.5093
vt -99.5000 4.9401 1.4745
vt 100.5000 4.9401 1.4745
vt 100.5000 5.0122 1.5093
vt -99.5000 4.8599 1.4745
vt 100.5000 4.8599 1.4745
vt -99.5000 4.7878 1.5093
vt 100.5000 4.7878 1.5093
vt 100.5000 1.5093 4.7878
vt 100.5000 1.5717 4.7379
vt -99.5000 1.5718 4.7379
vt -99.5000 1.5093 4.7878
vt 100.5000 1.5923 4.7195
vt -99.5000 1.5924 4.7195
vt -99.5000 4.7195 1.5923
vt -99.5000 4.6929 1.6000
vt 100.5000 4.6929 1.6000
vt 100.5000 4.7195 1.5924
vt -99.5000 4.3750 1.6000
vt 100.5000 4.3750 1.6000
vt -99.5000 4.3375 1.5899
vt 100.5000 4.3375 1.5900
vt -99.5000 4.3100 1.5625
vt 100.5000 4.3100 1.5625
vt -99.5000 1.5625 4.3100
vt -99.5000 1.5250 4.3000
vt 100.5000 1.5250 4.3000
vt 100.5000 1.5625 4.3100
vt -99.5000 0.2750 4.3000
vt 100.5000 0.2750 4.3000
vt -99.5000 0.2375 4.2900
vt 100.5000 0.2375 4.2900
vt -99.5000 4.2900 0.2375
vt -99.5000 4.2625 0.2100
vt 100.5000 4.2625 0.2101
vt 100.5000 4.2900 0.2375
vt -99.5000 4.2250 0.2000
vt 100.5000 4.2250 0.2000
vt -99.5000 -0.2117 0.2000
vt 100.5000 -0.2117 0.2000
vt -99.5000 -0.2472 0.1934
vt 100.5000 -0.2472 0.1935
vt -99.5000 -0.2782 0.1746
vt 100.5000 -0.2782 0.1747
vt -99.5000 0.1746 -0.2782
vt -99.5000 0.1461 -0.3004
vt 100.5000 0.1462 -0.3004
vt 100.5000 0.1747 -0.2782
vt -99.5000 0.0820 -0.3504
vt 100.5000 0.0820 -0.3504
vt -99.5000 -0.3504 0.0820
vt -99.5000 -0.4199 0.0397
vt 100.5000 -0.4199 0.0398
vt 100.5000 -0.3504 0.0820
vt -99.5000 -0.5000 0.0250
vt 100.5000 -0.5000 0.0250
vt -99.5000 -0.5801 0.0397
vt 100.5000 -0.5801 0.0398
vt -99.5000 -0.6496 0.0820
vt 100.5000 -0.6496 0.0820
vt 100.5000 0.0820 -0.6496
vt 100.5000 0.1461 -0.6996
vt -99.5000 0.1462 -0.6996
vt -99.5000 0.0820 -0.6496
vt 100.5000 0.1746 -0.7218
vt -99.5000 0.1747 -0.7218
vt -99.5000 -0.7218 0.1746
vt -99.5000 -0.7528 0.1934
vt 100.5000 -0.7528 0.1935
vt 100.5000 -0.7218 0.1747
vt -99.5000 -0.7883 0.2000
vt 100.5000 -0.7883 0.2000
vt -99.5000 -1.2117 0.2000
vt 100.5000 -1.2117 0.2000
vt -99.5000 -1.2472 0.1934
vt 100.5000 -1.2472 0.1935
vt -99.5000 -1.2782 0.1746
vt 100.5000 -1.2782 0.1747
vt -99.5000 0.1746 -1.2782
vt -99.5000 0.1461 -1.3004
vt 100.5000 0.1462 -1.3004
vt 100.5000 0.1747 -1.2782
vt -99.5000 0.0820 -1.3504
vt 100.5000 0.0820 -1.3504
vt -99.5000 -1.3504 0.0820
vt -99.5000 -1.4199 0.0397
vt 100.5000 -1.4199 0.0398
vt 100.5000 -1.3504 0.0820
vt -99.5000 -1.5000 0.0250
vt 100.5000 -1.5000 0.0250
vt -99.5000 -1.5801 0.0397
vt 100.5000 -1.5801 0.0398
vt -99.5000 -1.6496 0.0820
vt 100.5000 -1.6496 0.0820
vt 100.5000 0.0820 -1.6496
vt 100.5000 0.1461 -1.6996
vt -99.5000 0.1462 -1.6996
vt -99.5000 0.0820 -1.6496
vt 100.5000 0.1746 -1.7218
vt -99.5000 0.1747 -1.7218
vt -99.5000 -1.7218 0.1746
vt -99.5000 -1.7528 0.1934
vt 100.5000 -1.7528 0.1935
vt 100.5000 -1.7218 0.1747
vt -99.5000 -1.7883 0.2000
vt 100.5000 -1.7883 0.2000
vt -99.5000 -2.2117 0.2000
vt 100.5000 -2.2117 0.2000
vt -99.5000 -2.2472 0.1934
vt 100.5000 -2.2472 0.1935
vt -99.5000 -2.2782 0.1746
vt 100.5000 -2.2782 0.1747
vt -99.5000 0.1746 -2.2782
vt -99.5000 0.1461 -2.3004
vt 100.5000 0.1462 -2.3004
vt 100.5000 0.1747 -2.2782
vt -99.5000 0.0820 -2.3504
vt 100.5000 0.0820 -2.3504
vt -99.5000 -2.3504 0.0820
vt -99.5000 -2.4199 0.0397
vt 100.5000 -2.4199 0.0398
vt 100.5000 -2.3504 0.0820
vt -99.5000 -2.5000 0.0250
vt 100.5000 -2.5000 0.0250
vt -99.5000 -2.5801 0.0397
vt 100.5000 -2.5801 0.0398
vt -99.5000 -2.6496 0.0820
vt 100.5000 -2.6496 0.0820
vt 100.5000 0.0820 -2.6496
vt 100.5000 0.1461 -2.6996
vt -99.5000 0.1462 -2.6996
vt -99.5000 0.0820 -2.6496
vt 100.5000 0.1746 -2.7218
vt -99.5000 0.1747 -2.7218
vt -99.5000 -2.7218 0.1746
vt -99.5000 -2.7528 0.1934
vt 100.5000 -2.7528 0.1935
vt 100.5000 -2.7218 0.1747
vt -99.5000 -2.7883 0.2000
vt 100.5000 -2.7883 0.2000
vt -99.5000 -3.2117 0.2000
vt 100.5000 -3.2117 0.2000
vt -99.5000 -3.2472 0.1934
vt 100.5000 -3.2472 0.1935
vt -99.5000 -3.2782 0.1746
vt 100.5000 -3.2782 0.1747
vt -99.5000 0.1746 -3.2782
vt -99.5000 0.1461 -3.3004
vt 100.5000 0.1462 -3.3004
vt 100.5000 0.1747 -3.2782
vt -99.5000 0.0820 -3.3504
vt 100.5000 0.0820 -3.3504
vt -99.5000 -3.3504 0.0820
vt -99.5000 -3.4199 0.0397
vt 100.5000 -3.4199 0.0398
vt 100.5000 -3.3504 0.0820
vt -99.5000 -3.5000 0.0250
vt 100.5000 -3.5000 0.0250
vt -99.5000 -3.5801 0.0397
vt 100.5000 -3.5801 0.0398
vt -99.5000 -3.6496 0.0820
vt 100.5000 -3.6496 0.0820
vt 100.5000 0.0820 -3.6496
vt 100.5000 0.1461 -3.6996
vt -99.5000 0.1462 -3.6996
vt -99.5000 0.0820 -3.6496
vt 100.5000 0.1746 -3.7218
vt -99.5000 0.1747 -3.7218
vt -99.5000 -3.7218 0.1746
vt -99.5000 -3.7528 0.1934
vt 100.5000 -3.7528 0.1935
vt 100.5000 -3.7218 0.1747
vt -99.5000 -3.7883 0.2000
vt 100.5000 -3.7883 0.2000
vt -99.5000 -4.4250 0.2000
vt 100.5000 -4.4250 0.2000
vt -99.5000 -4.4625 0.1899
vt 100.5000 -4.4625 0.1900
vt -99.5000 -4.4900 0.1625
vt 100.5000 -4.4900 0.1625
vt -99.5000 0.1625 -4.4900
vt -99.5000 0.1250 -4.5000
vt 100.5000 0.1250 -4.5000
vt 100.5000 0.1625 -4.4900
vt -99.5000 -0.6000 -4.5000
vt 100.5000 -0.6000 -4.5000
vt 100.5000 -4.5000 -0.6000
vt 100.5000 5.5000 -0.6000
vt -99.5000 5.5000 -0.6000
vt -99.5000 -4.5000 -0.6000
vt 0.8000 4.2250 -99.5000
vt 0.8000 -0.2117 -99.5000
vt 1.6000 5.5000 -99.5000
vt 0.8000 -4.4250 -99.5000
vt 0.8100 -4.4625 -99.5000
vt 0.8065 -3.7528 -99.5000
vt 0.8000 -3.7883 -99.5000
vt 0.8375 -4.4900 -99.5000
vt 0.8253 -3.7218 -99.5000
vt 0.8750 -4.5000 -99.5000
vt 0.8538 -3.6996 -99.5000
vt 1.6000 -4.5000 -99.5000
vt 0.9180 -3.6496 -99.5000
vt 0.9602 -3.5801 -99.5000
vt 0.9602 -3.4199 -99.5000
vt 0.9750 -3.5000 -99.5000
vt 0.9750 -2.5000 -99.5000
vt 0.9602 -2.5801 -99.5000
vt 0.9180 -3.3504 -99.5000
vt 0.9180 -2.6496 -99.5000
vt 0.8538 -3.3004 -99.5000
vt 0.8538 -2.6996 -99.5000
vt 0.8253 -3.2782 -99.5000
vt 0.8253 -2.7218 -99.5000
vt 0.8065 -3.2472 -99.5000
vt 0.8065 -2.7528 -99.5000
vt 0.8000 -3.2117 -99.5000
vt 0.8000 -2.7883 -99.5000
vt 0.9602 -2.4199 -99.5000
vt 0.9750 -1.5000 -99.5000
vt 0.9602 -1.5801 -99.5000
vt 0.9180 -2.3504 -99.5000
vt 0.9180 -1.6496 -99.5000
vt 0.8538 -2.3004 -99.5000
vt 0.8538 -1.6996 -99.5000
vt 0.8253 -2.2782 -99.5000
vt 0.8253 -1.7218 -99.5000
vt 0.8065 -2.2472 -99.5000
vt 0.8065 -1.7528 -99.5000
vt 0.8000 -2.2117 -99.5000
vt 0.8000 -1.7883 -99.5000
vt 0.9602 -1.4199 -99.5000
vt 0.9750 -0.5000 -99.5000
vt 0.9602 -0.5801 -99.5000
vt 0.9180 -1.3504 -99.5000
vt 0.9180 -0.6496 -99.5000
vt 0.8538 -1.3004 -99.5000
vt 0.8538 -0.6996 -99.5000
vt 0.8253 -1.2782 -99.5000
vt 0.8253 -0.7218 -99.5000
vt 0.8065 -1.2472 -99.5000
vt 0.8065 -0.7528 -99.5000
vt 0.8000 -1.2117 -99.5000
vt 0.8000 -0.7883 -99.5000
vt 0.9602 -0.4199 -99.5000
vt 0.9180 -0.3504 -99.5000
vt 0.8538 -0.3004 -99.5000
vt 0.8253 -0.2782 -99.5000
vt 0.8065 -0.2472 -99.5000
vt 0.7899 4.2625 -99.5000
vt 0.7625 4.2900 -99.5000
vt 0.7250 4.3000 -99.5000
vt -0.4745 4.9401 -99.5000
vt -0.4745 4.8599 -99.5000
vt -0.5093 5.0122 -99.5000
vt -0.5718 5.0621 -99.5000
vt -0.5924 5.0805 -99.5000
vt -0.6000 5.1071 -99.5000
vt -0.6000 5.5000 -99.5000
vt -0.5093 4.7878 -99.5000
vt -0.5250 4.3000 -99.5000
vt -0.6000 4.3750 -99.5000
vt -0.5900 4.3375 -99.5000
vt -0.5924 4.7195 -99.5000
vt -0.6000 4.6929 -99.5000
vt -0.5625 4.3100 -99.5000
vt -0.5718 4.7379 -99.5000
# 360 texture coords

g OracDecor_SX171_skirting
s 1
f 1/1/1 2/2/1 3/3/1 
f 4/4/1 5/5/1 6/6/1 7/7/1 
f 7/7/1 6/6/1 8/8/1 9/9/1 
f 10/10/1 9/9/1 8/8/1 11/11/1 
f 12/12/1 10/10/1 11/11/1 13/13/1 
f 12/12/1 13/13/1 14/14/1 
f 15/15/1 16/16/1 17/17/1 18/18/1 
f 19/19/1 20/20/1 16/16/1 15/15/1 
f 21/21/1 22/22/1 20/20/1 19/19/1 
f 23/23/1 24/24/1 22/22/1 21/21/1 
f 25/25/1 26/26/1 24/24/1 23/23/1 
f 27/27/1 28/28/1 26/26/1 25/25/1 
f 29/29/1 30/30/1 31/31/1 17/17/1 
f 32/32/1 33/33/1 30/30/1 29/29/1 
f 34/34/1 35/35/1 33/33/1 32/32/1 
f 36/36/1 37/37/1 35/35/1 34/34/1 
f 38/38/1 39/39/1 37/37/1 36/36/1 
f 40/40/1 41/41/1 39/39/1 38/38/1 
f 12/12/1 14/14/1 18/18/1 
f 12/12/1 18/18/1 17/17/1 
f 12/12/1 17/17/1 31/31/1 
f 42/42/1 43/43/1 44/44/1 31/31/1 
f 45/45/1 46/46/1 43/43/1 42/42/1 
f 47/47/1 48/48/1 46/46/1 45/45/1 
f 49/49/1 50/50/1 48/48/1 47/47/1 
f 51/51/1 52/52/1 50/50/1 49/49/1 
f 53/53/1 54/54/1 52/52/1 51/51/1 
f 2/2/1 12/12/1 31/31/1 44/44/1 
f 2/2/1 44/44/1 55/55/1 
f 2/2/1 55/55/1 56/56/1 
f 2/2/1 56/56/1 57/57/1 
f 2/2/1 57/57/1 58/58/1 
f 2/2/1 58/58/1 59/59/1 
f 2/2/1 59/59/1 3/3/1 
f 60/60/1 61/61/1 2/2/1 
f 1/1/1 60/60/1 2/2/1 
f 61/61/1 62/62/1 2/2/1 
f 62/62/1 63/63/1 64/64/1 2/2/1 
f 64/64/1 65/65/1 2/2/1 
f 65/65/1 66/66/1 2/2/1 
f 66/66/1 67/67/1 2/2/1 
f 67/67/1 68/68/1 2/2/1 
f 68/68/1 69/69/1 2/2/1 
f 62/62/1 70/70/1 71/71/1 
f 62/62/1 71/71/1 63/63/1 
f 72/72/1 73/73/1 74/74/1 75/75/1 
f 75/75/1 74/74/1 76/76/1 77/77/1 
f 70/70/1 77/77/1 76/76/1 71/71/1 
s 2
f 2/78/2 69/79/2 78/80/2 79/81/2 
s 4
f 69/82/3 68/83/4 80/84/4 78/85/3 
f 68/83/4 67/86/5 81/87/5 80/84/4 
f 67/88/5 66/89/6 82/90/6 81/91/5 
f 66/89/6 65/92/7 83/93/7 82/90/6 
f 65/94/7 64/95/8 84/96/8 83/97/7 
f 64/95/8 63/98/9 85/99/9 84/96/8 
f 63/98/9 71/100/10 86/101/10 85/99/9 
f 71/102/10 76/103/11 87/104/11 86/105/10 
f 76/103/11 74/106/12 88/107/12 87/104/11 
f 74/108/12 73/109/13 89/110/13 88/111/12 
f 73/109/13 72/112/14 90/113/14 89/110/13 
f 72/112/14 75/114/15 91/115/15 90/113/14 
f 75/114/15 77/116/16 92/117/16 91/115/15 
f 77/118/16 70/119/17 93/120/17 92/121/16 
f 70/119/17 62/122/17 94/123/17 93/120/17 
f 62/122/17 61/124/16 95/125/16 94/123/17 
f 61/126/16 60/127/15 96/128/15 95/129/16 
f 60/127/15 1/130/14 97/131/14 96/128/15 
f 1/130/14 3/132/18 98/133/18 97/131/14 
f 3/132/18 59/134/19 99/135/19 98/133/18 
f 59/134/19 58/136/20 100/137/20 99/135/19 
f 58/138/20 57/139/21 101/140/21 100/141/20 
f 57/139/21 56/142/22 102/143/22 101/140/21 
f 56/144/22 55/145/23 103/146/23 102/147/22 
f 55/145/23 44/148/24 104/149/24 103/146/23 
f 44/148/24 43/150/25 105/151/25 104/149/24 
f 43/150/25 46/152/26 106/153/26 105/151/25 
f 46/154/26 48/155/27 107/156/27 106/157/26 
f 48/155/27 50/158/28 108/159/28 107/156/27 
f 50/160/28 52/161/29 109/162/29 108/163/28 
f 52/161/29 54/164/30 110/165/30 109/162/29 
f 54/164/30 53/166/31 111/167/31 110/165/30 
f 53/166/31 51/168/32 112/169/32 111/167/31 
f 51/168/32 49/170/20 113/171/20 112/169/32 
f 49/172/20 47/173/21 114/174/21 113/175/20 
f 47/173/21 45/176/22 115/177/22 114/174/21 
f 45/178/22 42/179/23 116/180/23 115/181/22 
f 42/179/23 31/182/33 117/183/33 116/180/23 
f 31/182/33 30/184/25 118/185/25 117/183/33 
f 30/184/25 33/186/34 119/187/34 118/185/25 
f 33/188/34 35/189/27 120/190/27 119/191/34 
f 35/189/27 37/192/28 121/193/28 120/190/27 
f 37/194/28 39/195/29 122/196/29 121/197/28 
f 39/195/29 41/198/30 123/199/30 122/196/29 
f 41/198/30 40/200/18 124/201/18 123/199/30 
f 40/200/18 38/202/19 125/203/19 124/201/18 
f 38/202/19 36/204/35 126/205/35 125/203/19 
f 36/206/35 34/207/36 127/208/36 126/209/35 
f 34/207/36 32/210/37 128/211/37 127/208/36 
f 32/212/37 29/213/23 129/214/23 128/215/37 
f 29/213/23 17/216/33 130/217/33 129/214/23 
f 17/216/33 16/218/38 131/219/38 130/217/33 
f 16/218/38 20/220/26 132/221/26 131/219/38 
f 20/222/26 22/223/27 133/224/27 132/225/26 
f 22/223/27 24/226/28 134/227/28 133/224/27 
f 24/228/28 26/229/29 135/230/29 134/231/28 
f 26/229/29 28/232/30 136/233/30 135/230/29 
f 28/232/30 27/234/31 137/235/31 136/233/30 
f 27/234/31 25/236/32 138/237/32 137/235/31 
f 25/236/32 23/238/20 139/239/20 138/237/32 
f 23/240/20 21/241/21 140/242/21 139/243/20 
f 21/241/21 19/244/22 141/245/22 140/242/21 
f 19/246/22 15/247/23 142/248/23 141/249/22 
f 15/247/23 18/250/33 143/251/33 142/248/23 
f 18/250/33 14/252/38 144/253/38 143/251/33 
f 14/252/38 13/254/26 145/255/26 144/253/38 
f 13/256/26 11/257/27 146/258/27 145/259/26 
f 11/257/27 8/260/28 147/261/28 146/258/27 
f 8/262/28 6/263/29 148/264/29 147/265/28 
f 6/263/29 5/266/30 149/267/30 148/264/29 
f 5/266/30 4/268/14 150/269/14 149/267/30 
f 4/268/14 7/270/15 151/271/15 150/269/14 
f 7/270/15 9/272/16 152/273/16 151/271/15 
f 9/274/16 10/275/17 153/276/17 152/277/16 
f 10/275/17 12/278/39 154/279/39 153/276/17 
s 8
f 12/280/40 2/281/40 79/282/40 154/283/40 
s 1
f 97/284/41 98/285/41 79/286/41 
f 150/287/41 151/288/41 148/289/41 149/290/41 
f 151/288/41 152/291/41 147/292/41 148/289/41 
f 153/293/41 146/294/41 147/292/41 152/291/41 
f 154/295/41 145/296/41 146/294/41 153/293/41 
f 154/295/41 144/297/41 145/296/41 
f 142/298/41 143/299/41 130/300/41 131/301/41 
f 141/302/41 142/298/41 131/301/41 132/303/41 
f 140/304/41 141/302/41 132/303/41 133/305/41 
f 139/306/41 140/304/41 133/305/41 134/307/41 
f 138/308/41 139/306/41 134/307/41 135/309/41 
f 137/310/41 138/308/41 135/309/41 136/311/41 
f 129/312/41 130/300/41 117/313/41 118/314/41 
f 128/315/41 129/312/41 118/314/41 119/316/41 
f 127/317/41 128/315/41 119/316/41 120/318/41 
f 126/319/41 127/317/41 120/318/41 121/320/41 
f 125/321/41 126/319/41 121/320/41 122/322/41 
f 124/323/41 125/321/41 122/322/41 123/324/41 
f 154/295/41 143/299/41 144/297/41 
f 154/295/41 130/300/41 143/299/41 
f 154/295/41 117/313/41 130/300/41 
f 116/325/41 117/313/41 104/326/41 105/327/41 
f 115/328/41 116/325/41 105/327/41 106/329/41 
f 114/330/41 115/328/41 106/329/41 107/331/41 
f 113/332/41 114/330/41 107/331/41 108/333/41 
f 112/334/41 113/332/41 108/333/41 109/335/41 
f 111/336/41 112/334/41 109/335/41 110/337/41 
f 79/286/41 104/326/41 117/313/41 154/295/41 
f 79/286/41 103/338/41 104/326/41 
f 79/286/41 102/339/41 103/338/41 
f 79/286/41 101/340/41 102/339/41 
f 79/286/41 100/341/41 101/340/41 
f 79/286/41 99/342/41 100/341/41 
f 79/286/41 98/285/41 99/342/41 
f 96/343/41 79/286/41 95/344/41 
f 97/284/41 79/286/41 96/343/41 
f 95/344/41 79/286/41 94/345/41 
f 94/345/41 79/286/41 84/346/41 85/347/41 
f 84/346/41 79/286/41 83/348/41 
f 83/348/41 79/286/41 82/349/41 
f 82/349/41 79/286/41 81/350/41 
f 81/350/41 79/286/41 80/351/41 
f 80/351/41 79/286/41 78/352/41 
f 94/345/41 86/353/41 93/354/41 
f 94/345/41 85/347/41 86/353/41 
f 90/355/41 91/356/41 88/357/41 89/358/41 
f 91/356/41 92/359/41 87/360/41 88/357/41 
f 93/354/41 86/353/41 87/360/41 92/359/41 
# 131 polygons - 42 triangles

